Alkalami-Regular.ufo
<glyph name="exclam" format="1">
  <advance width="263"/>
  <unicode hex="0021"/>
  <outline>
    <contour>
      <point x="68" y="743" type="curve"/>
      <point x="30" y="711" type="line"/>
      <point x="73" y="492"/>
      <point x="88" y="350"/>
      <point x="98" y="171" type="curve"/>
      <point x="158" y="171" type="line"/>
      <point x="163" y="350"/>
      <point x="180" y="492"/>
      <point x="203" y="701" type="curve"/>
      <point x="166" y="723"/>
      <point x="122" y="735"/>
    </contour>
    <contour>
      <point x="128" y="119" type="curve" smooth="yes"/>
      <point x="112" y="119"/>
      <point x="95" y="116"/>
      <point x="74" y="111" type="curve"/>
      <point x="71" y="91"/>
      <point x="67" y="75"/>
      <point x="67" y="55" type="curve" smooth="yes"/>
      <point x="67" y="36"/>
      <point x="71" y="19"/>
      <point x="74" y="0" type="curve"/>
      <point x="95" y="-3"/>
      <point x="112" y="-8"/>
      <point x="128" y="-8" type="curve" smooth="yes"/>
      <point x="148" y="-8"/>
      <point x="165" y="-3"/>
      <point x="185" y="0" type="curve"/>
      <point x="189" y="19"/>
      <point x="191" y="36"/>
      <point x="191" y="55" type="curve" smooth="yes"/>
      <point x="191" y="75"/>
      <point x="189" y="91"/>
      <point x="185" y="111" type="curve"/>
      <point x="165" y="116"/>
      <point x="148" y="119"/>
    </contour>
  </outline>
</glyph>
<glyph name="numbersign" format="2">
  <advance width="738"/>
  <unicode hex="0023"/>
  <outline>
    <contour>
      <point x="428" y="584" type="line"/>
      <point x="331" y="584" type="line"/>
      <point x="93" y="-138" type="line"/>
      <point x="189" y="-138" type="line"/>
    </contour>
    <contour>
      <point x="648" y="584" type="line"/>
      <point x="552" y="584" type="line"/>
      <point x="313" y="-138" type="line"/>
      <point x="409" y="-138" type="line"/>
    </contour>
    <contour>
      <point x="672" y="165" type="line"/>
      <point x="13" y="165" type="line"/>
      <point x="13" y="85" type="line"/>
      <point x="672" y="85" type="line"/>
    </contour>
    <contour>
      <point x="725" y="359" type="line"/>
      <point x="65" y="359" type="line"/>
      <point x="65" y="280" type="line"/>
      <point x="725" y="280" type="line"/>
    </contour>
  </outline>
</glyph>
<glyph name="dollar" format="1">
  <advance width="602"/>
  <unicode hex="0024"/>
  <outline>
    <contour>
      <point x="288" y="-65" type="line"/>
      <point x="281" y="172"/>
      <point x="281" y="489"/>
      <point x="288" y="726" type="curve"/>
      <point x="225" y="726" type="line"/>
      <point x="232" y="489"/>
      <point x="232" y="172"/>
      <point x="225" y="-65" type="curve"/>
    </contour>
    <contour>
      <point x="378" y="-65" type="line"/>
      <point x="371" y="172"/>
      <point x="371" y="489"/>
      <point x="378" y="726" type="curve"/>
      <point x="315" y="726" type="line"/>
      <point x="322" y="489"/>
      <point x="322" y="172"/>
      <point x="315" y="-65" type="curve"/>
    </contour>
    <component base="S" xScale="1.03" xOffset="-2"/>
  </outline>
</glyph>
<glyph name="ampersand" format="2">
  <advance width="759"/>
  <unicode hex="0026"/>
  <outline>
    <contour>
      <point x="595" y="104" type="curve"/>
      <point x="530" y="144"/>
      <point x="464" y="221"/>
      <point x="394" y="300" type="curve" smooth="yes"/>
      <point x="298" y="409"/>
      <point x="230" y="462"/>
      <point x="230" y="532" type="curve" smooth="yes"/>
      <point x="230" y="559"/>
      <point x="238" y="595"/>
      <point x="265" y="613" type="curve"/>
      <point x="305" y="613"/>
      <point x="339" y="604"/>
      <point x="372" y="574" type="curve"/>
      <point x="395" y="465" type="line"/>
      <point x="448" y="465" type="line"/>
      <point x="460" y="514"/>
      <point x="473" y="573"/>
      <point x="483" y="620" type="curve"/>
      <point x="416" y="654"/>
      <point x="344" y="664"/>
      <point x="294" y="664" type="curve" smooth="yes"/>
      <point x="165" y="664"/>
      <point x="93" y="593"/>
      <point x="93" y="507" type="curve" smooth="yes"/>
      <point x="93" y="425"/>
      <point x="167" y="356"/>
      <point x="225" y="288" type="curve" smooth="yes"/>
      <point x="358" y="132"/>
      <point x="483" y="6"/>
      <point x="554" y="-24" type="curve"/>
      <point x="606" y="25"/>
      <point x="649" y="67"/>
      <point x="709" y="118" type="curve"/>
      <point x="695" y="153" type="line"/>
      <point x="668" y="140"/>
      <point x="628" y="119"/>
    </contour>
    <contour>
      <point x="250" y="363" type="curve"/>
      <point x="229" y="387" type="line"/>
      <point x="100" y="355"/>
      <point x="40" y="266"/>
      <point x="40" y="181" type="curve" smooth="yes"/>
      <point x="40" y="84"/>
      <point x="117" y="-8"/>
      <point x="259" y="-8" type="curve" smooth="yes"/>
      <point x="424" y="-8"/>
      <point x="579" y="109"/>
      <point x="623" y="398" type="curve"/>
      <point x="511" y="409" type="line"/>
      <point x="517" y="386"/>
      <point x="520" y="361"/>
      <point x="520" y="335" type="curve" smooth="yes"/>
      <point x="520" y="209"/>
      <point x="450" y="61"/>
      <point x="311" y="61" type="curve" smooth="yes"/>
      <point x="228" y="61"/>
      <point x="180" y="134"/>
      <point x="180" y="214" type="curve" smooth="yes"/>
      <point x="180" y="268"/>
      <point x="202" y="324"/>
    </contour>
    <contour>
      <point x="739" y="340" type="curve"/>
      <point x="727" y="420" type="line"/>
      <point x="413" y="420" type="line"/>
      <point x="397" y="366" type="line"/>
      <point x="508" y="366"/>
      <point x="625" y="352"/>
    </contour>
  </outline>
</glyph>
<glyph name="parenleft" format="1">
  <advance width="354"/>
  <unicode hex="0028"/>
  <outline>
    <contour>
      <point x="293" y="804" type="line"/>
      <point x="111" y="718"/>
      <point x="20" y="540"/>
      <point x="20" y="364" type="curve" smooth="yes"/>
      <point x="20" y="188"/>
      <point x="110" y="15"/>
      <point x="289" y="-78" type="curve"/>
      <point x="315" y="-41" type="line"/>
      <point x="212" y="43"/>
      <point x="161" y="201"/>
      <point x="161" y="364" type="curve" smooth="yes"/>
      <point x="161" y="527"/>
      <point x="213" y="695"/>
      <point x="319" y="774" type="curve"/>
    </contour>
  </outline>
</glyph>
<glyph name="asterisk" format="2">
  <advance width="420"/>
  <unicode hex="002A"/>
  <outline>
    <contour>
      <point x="46" y="482" type="line"/>
      <point x="73" y="445" type="line"/>
      <point x="101.705" y="445"/>
      <point x="140.704" y="460.169"/>
      <point x="175.242" y="468.576" type="curve"/>
      <point x="144.956" y="449.833"/>
      <point x="106.821" y="433.02"/>
      <point x="86" y="413" type="curve"/>
      <point x="95" y="366" type="line"/>
      <point x="140" y="359" type="line"/>
      <point x="160.02" y="379.821"/>
      <point x="176.833" y="417.956"/>
      <point x="195.576" y="448.242" type="curve"/>
      <point x="187.169" y="413.704"/>
      <point x="172" y="374.705"/>
      <point x="172" y="346" type="curve"/>
      <point x="211" y="319" type="line"/>
      <point x="248" y="346" type="line"/>
      <point x="248" y="374.333"/>
      <point x="233.222" y="412.695"/>
      <point x="224.754" y="446.898" type="curve"/>
      <point x="242.67" y="416.909"/>
      <point x="259.279" y="379.932"/>
      <point x="279" y="361" type="curve"/>
      <point x="325" y="366" type="line"/>
      <point x="332" y="414" type="line"/>
      <point x="313.099" y="433.688"/>
      <point x="276.213" y="450.276"/>
      <point x="246.25" y="468.158" type="curve"/>
      <point x="280.018" y="459.676"/>
      <point x="317.488" y="445"/>
      <point x="345" y="445" type="curve"/>
      <point x="374" y="482" type="line"/>
      <point x="345" y="521" type="line"/>
      <point x="317.488" y="521"/>
      <point x="280.018" y="506.324"/>
      <point x="246.25" y="497.842" type="curve"/>
      <point x="276.213" y="515.724"/>
      <point x="313.099" y="532.312"/>
      <point x="332" y="552" type="curve"/>
      <point x="327" y="598" type="line"/>
      <point x="279" y="605" type="line"/>
      <point x="259.312" y="586.099"/>
      <point x="242.724" y="549.213"/>
      <point x="224.842" y="519.25" type="curve"/>
      <point x="233.324" y="553.018"/>
      <point x="248" y="590.488"/>
      <point x="248" y="618" type="curve"/>
      <point x="211" y="647" type="line"/>
      <point x="172" y="618" type="line"/>
      <point x="172" y="590.117"/>
      <point x="187.075" y="552.004"/>
      <point x="195.498" y="517.884" type="curve"/>
      <point x="176.787" y="548.15"/>
      <point x="159.992" y="586.208"/>
      <point x="140" y="607" type="curve"/>
      <point x="93" y="598" type="line"/>
      <point x="86" y="553" type="line"/>
      <point x="106.821" y="532.98"/>
      <point x="144.956" y="516.167"/>
      <point x="175.242" y="497.424" type="curve"/>
      <point x="140.704" y="505.831"/>
      <point x="101.705" y="521"/>
      <point x="73" y="521" type="curve"/>
    </contour>
  </outline>
</glyph>
<glyph name="plus" format="1">
  <advance width="571"/>
  <unicode hex="002B"/>
  <outline>
    <contour>
      <point x="536" y="372" type="line"/>
      <point x="386" y="369"/>
      <point x="185" y="369"/>
      <point x="35" y="372" type="curve"/>
      <point x="35" y="289" type="line"/>
      <point x="185" y="292"/>
      <point x="386" y="292"/>
      <point x="536" y="289" type="curve"/>
    </contour>
    <contour>
      <point x="327" y="80" type="line"/>
      <point x="324" y="230"/>
      <point x="324" y="431"/>
      <point x="327" y="581" type="curve"/>
      <point x="244" y="581" type="line"/>
      <point x="247" y="431"/>
      <point x="247" y="230"/>
      <point x="244" y="80" type="curve"/>
    </contour>
  </outline>
</glyph>
<glyph name="five" format="2">
  <advance width="504"/>
  <unicode hex="0035"/>
  <outline>
    <contour>
      <point x="52" y="321" type="curve"/>
      <point x="82" y="286" type="line"/>
      <point x="103" y="292"/>
      <point x="134" y="297"/>
      <point x="179" y="297" type="curve" smooth="yes"/>
      <point x="286" y="297"/>
      <point x="343" y="237"/>
      <point x="343" y="172" type="curve" smooth="yes"/>
      <point x="343" y="85"/>
      <point x="265" y="46"/>
      <point x="170" y="46" type="curve" smooth="yes"/>
      <point x="132" y="46"/>
      <point x="92" y="52"/>
      <point x="53" y="64" type="curve"/>
      <point x="45" y="10" type="line"/>
      <point x="91" y="-2"/>
      <point x="138" y="-8"/>
      <point x="182" y="-8" type="curve" smooth="yes"/>
      <point x="337" y="-8"/>
      <point x="469" y="64"/>
      <point x="469" y="215" type="curve" smooth="yes"/>
      <point x="469" y="320"/>
      <point x="376" y="428"/>
      <point x="212" y="428" type="curve" smooth="yes"/>
      <point x="174" y="428"/>
      <point x="155" y="427"/>
      <point x="130" y="423" type="curve"/>
      <point x="133" y="459"/>
      <point x="138" y="491"/>
      <point x="147" y="522" type="curve"/>
      <point x="175" y="522"/>
      <point x="355" y="522"/>
      <point x="436" y="497" type="curve"/>
      <point x="440" y="620" type="line"/>
      <point x="400" y="619"/>
      <point x="288" y="618"/>
      <point x="241" y="618" type="curve" smooth="yes"/>
      <point x="174" y="618"/>
      <point x="135" y="619"/>
      <point x="77" y="620" type="curve"/>
      <point x="76" y="543"/>
      <point x="67" y="414"/>
    </contour>
  </outline>
</glyph>
<glyph name="six" format="2">
  <advance width="534"/>
  <unicode hex="0036"/>
  <outline>
    <contour>
      <point x="156" y="347" type="curve"/>
      <point x="168" y="284" type="line"/>
      <point x="175" y="298"/>
      <point x="210" y="336"/>
      <point x="268" y="336" type="curve" smooth="yes"/>
      <point x="327" y="336"/>
      <point x="359" y="258"/>
      <point x="359" y="183" type="curve" smooth="yes"/>
      <point x="359" y="113"/>
      <point x="332" y="47"/>
      <point x="277" y="47" type="curve" smooth="yes"/>
      <point x="228" y="47"/>
      <point x="180" y="114"/>
      <point x="180" y="248" type="curve" smooth="yes"/>
      <point x="180" y="418"/>
      <point x="265" y="543"/>
      <point x="453" y="595" type="curve"/>
      <point x="436" y="633" type="line"/>
      <point x="186" y="587"/>
      <point x="35" y="420"/>
      <point x="35" y="232" type="curve" smooth="yes"/>
      <point x="35" y="108"/>
      <point x="116" y="-6"/>
      <point x="273" y="-6" type="curve" smooth="yes"/>
      <point x="423" y="-6"/>
      <point x="499" y="102"/>
      <point x="499" y="206" type="curve" smooth="yes"/>
      <point x="499" y="304"/>
      <point x="432" y="400"/>
      <point x="295" y="400" type="curve" smooth="yes"/>
      <point x="240" y="400"/>
      <point x="187" y="375"/>
    </contour>
  </outline>
</glyph>
<glyph name="question" format="1">
  <advance width="458"/>
  <unicode hex="003F"/>
  <outline>
    <contour>
      <point x="188" y="721" type="curve" smooth="yes"/>
      <point x="115" y="721"/>
      <point x="52" y="707"/>
      <point x="5" y="687" type="curve"/>
      <point x="20" y="629"/>
      <point x="32" y="578"/>
      <point x="41" y="520" type="curve"/>
      <point x="91" y="520" type="line"/>
      <point x="111" y="625" type="line"/>
      <point x="145" y="644"/>
      <point x="183" y="657"/>
      <point x="233" y="657" type="curve" smooth="yes"/>
      <point x="241" y="657"/>
      <point x="248" y="657"/>
      <point x="256" y="656" type="curve"/>
      <point x="280" y="622"/>
      <point x="294" y="583"/>
      <point x="294" y="533" type="curve" smooth="yes"/>
      <point x="294" y="456"/>
      <point x="254" y="397"/>
      <point x="142" y="397" type="curve" smooth="yes"/>
      <point x="110" y="397"/>
      <point x="98" y="397"/>
      <point x="86" y="398" type="curve"/>
      <point x="101" y="299"/>
      <point x="108" y="248"/>
      <point x="115" y="171" type="curve"/>
      <point x="177" y="171" type="line"/>
      <point x="179" y="215"/>
      <point x="180" y="242"/>
      <point x="183" y="272" type="curve"/>
      <point x="336" y="278"/>
      <point x="413" y="391"/>
      <point x="413" y="502" type="curve" smooth="yes"/>
      <point x="413" y="614"/>
      <point x="339" y="721"/>
    </contour>
    <contour>
      <point x="147" y="117" type="curve" smooth="yes"/>
      <point x="131" y="117"/>
      <point x="114" y="114"/>
      <point x="93" y="109" type="curve"/>
      <point x="90" y="89"/>
      <point x="86" y="73"/>
      <point x="86" y="53" type="curve" smooth="yes"/>
      <point x="86" y="34"/>
      <point x="90" y="17"/>
      <point x="93" y="-2" type="curve"/>
      <point x="114" y="-5"/>
      <point x="131" y="-10"/>
      <point x="147" y="-10" type="curve" smooth="yes"/>
      <point x="167" y="-10"/>
      <point x="184" y="-5"/>
      <point x="204" y="-2" type="curve"/>
      <point x="208" y="17"/>
      <point x="210" y="34"/>
      <point x="210" y="53" type="curve" smooth="yes"/>
      <point x="210" y="73"/>
      <point x="208" y="89"/>
      <point x="204" y="109" type="curve"/>
      <point x="184" y="114"/>
      <point x="167" y="117"/>
    </contour>
  </outline>
</glyph>
<glyph name="at" format="1">
  <advance width="740"/>
  <unicode hex="0040"/>
  <outline>
    <contour>
      <point x="25" y="-22"/>
      <point x="198" y="-134"/>
      <point x="365" y="-134" type="curve" smooth="yes"/>
      <point x="453" y="-134"/>
      <point x="548" y="-110"/>
      <point x="633" y="-53" type="curve"/>
      <point x="615" y="-19" type="line"/>
      <point x="537" y="-67"/>
      <point x="452" y="-88"/>
      <point x="372" y="-88" type="curve" smooth="yes"/>
      <point x="232" y="-88"/>
      <point x="84" y="1"/>
      <point x="84" y="187" type="curve" smooth="yes"/>
      <point x="84" y="404"/>
      <point x="225" y="495"/>
      <point x="369" y="495" type="curve" smooth="yes"/>
      <point x="533" y="495"/>
      <point x="662" y="402"/>
      <point x="662" y="222" type="curve" smooth="yes"/>
      <point x="662" y="124"/>
      <point x="614" y="62"/>
      <point x="539" y="42" type="curve"/>
      <point x="520" y="60"/>
      <point x="518" y="88"/>
      <point x="518" y="115" type="curve" smooth="yes"/>
      <point x="518" y="166"/>
      <point x="547" y="280"/>
      <point x="587" y="374" type="curve"/>
      <point x="560" y="389"/>
      <point x="506" y="414"/>
      <point x="465" y="414" type="curve"/>
      <point x="456" y="364"/>
      <point x="403" y="156"/>
      <point x="403" y="115" type="curve" smooth="yes"/>
      <point x="403" y="66"/>
      <point x="434" y="-2"/>
      <point x="527" y="-8" type="curve"/>
      <point x="654" y="21"/>
      <point x="715" y="123"/>
      <point x="715" y="231" type="curve" smooth="yes"/>
      <point x="715" y="380"/>
      <point x="601" y="541"/>
      <point x="375" y="541" type="curve" smooth="yes"/>
      <point x="200" y="541"/>
      <point x="25" y="423"/>
      <point x="25" y="187" type="curve" smooth="yes"/>
    </contour>
    <contour>
      <point x="271" y="-4" type="curve" smooth="yes"/>
      <point x="358" y="-4"/>
      <point x="418" y="91"/>
      <point x="444" y="176" type="curve"/>
      <point x="442" y="312" type="line"/>
      <point x="416" y="183"/>
      <point x="363" y="72"/>
      <point x="309" y="72" type="curve" smooth="yes"/>
      <point x="280" y="72"/>
      <point x="266" y="111"/>
      <point x="266" y="161" type="curve" smooth="yes"/>
      <point x="266" y="238"/>
      <point x="297" y="341"/>
      <point x="350" y="372" type="curve"/>
      <point x="375" y="372"/>
      <point x="399" y="344"/>
      <point x="418" y="321" type="curve"/>
      <point x="432" y="377" type="line"/>
      <point x="412" y="401"/>
      <point x="377" y="422"/>
      <point x="337" y="422" type="curve" smooth="yes"/>
      <point x="212" y="422"/>
      <point x="144" y="287"/>
      <point x="144" y="169" type="curve" smooth="yes"/>
      <point x="144" y="78"/>
      <point x="185" y="-4"/>
    </contour>
  </outline>
</glyph>
<glyph name="D" format="2">
  <advance width="728"/>
  <unicode hex="0044"/>
  <anchor x="187" y="324" name="center"/>
  <anchor x="345" y="659" name="top"/>
  <outline>
    <contour>
      <point x="181" y="656" type="curve" smooth="yes"/>
      <point x="118" y="656"/>
      <point x="92" y="657"/>
      <point x="33" y="660" type="curve"/>
      <point x="21" y="621" type="line"/>
      <point x="109" y="597" type="line"/>
      <point x="112" y="533"/>
      <point x="114" y="446"/>
      <point x="114" y="356" type="curve" smooth="yes"/>
      <point x="114" y="277"/>
      <point x="111" y="185"/>
      <point x="108" y="58" type="curve"/>
      <point x="20" y="38" type="line"/>
      <point x="33" y="0" type="line"/>
      <point x="74" y="1"/>
      <point x="117" y="4"/>
      <point x="184" y="3" type="curve"/>
      <point x="237" y="2"/>
      <point x="254" y="3"/>
      <point x="289" y="1" type="curve"/>
      <point x="300" y="30" type="line"/>
      <point x="259" y="73" type="line"/>
      <point x="257" y="163"/>
      <point x="257" y="258"/>
      <point x="257" y="356" type="curve" smooth="yes"/>
      <point x="257" y="435"/>
      <point x="257" y="520"/>
      <point x="258" y="596" type="curve"/>
      <point x="282" y="603"/>
      <point x="302" y="607"/>
      <point x="333" y="607" type="curve" smooth="yes"/>
      <point x="454" y="607"/>
      <point x="523" y="461"/>
      <point x="523" y="315" type="curve" smooth="yes"/>
      <point x="523" y="210"/>
      <point x="487" y="105"/>
      <point x="410" y="55" type="curve"/>
      <point x="367" y="55"/>
      <point x="314" y="59"/>
      <point x="258" y="76" type="curve"/>
      <point x="184" y="3" type="line"/>
      <point x="251" y="3"/>
      <point x="299" y="-1"/>
      <point x="364" y="-1" type="curve" smooth="yes"/>
      <point x="502" y="-1"/>
      <point x="678" y="99"/>
      <point x="678" y="334" type="curve" smooth="yes"/>
      <point x="678" y="556"/>
      <point x="517" y="660"/>
      <point x="361" y="660" type="curve" smooth="yes"/>
      <point x="281" y="660"/>
      <point x="236" y="656"/>
    </contour>
  </outline>
</glyph>
<glyph name="E" format="2">
  <advance width="602"/>
  <unicode hex="0045"/>
  <anchor x="323" y="0" name="bottom"/>
  <anchor x="539" y="-2" name="ogonek"/>
  <anchor x="323" y="660" name="top"/>
  <outline>
    <contour>
      <point x="416" y="371" type="line"/>
      <point x="370" y="364"/>
      <point x="353" y="360"/>
      <point x="291" y="360" type="curve" smooth="yes"/>
      <point x="259" y="360"/>
      <point x="228" y="362"/>
      <point x="181" y="366" type="curve"/>
      <point x="181" y="292" type="line"/>
      <point x="225" y="298"/>
      <point x="261" y="299"/>
      <point x="293" y="299" type="curve" smooth="yes"/>
      <point x="355" y="299"/>
      <point x="369" y="295"/>
      <point x="416" y="287" type="curve"/>
    </contour>
    <contour>
      <point x="445" y="454" type="curve"/>
      <point x="390" y="454" type="line"/>
      <point x="357" y="351" type="line"/>
      <point x="357" y="308" type="line"/>
      <point x="390" y="204" type="line"/>
      <point x="445" y="204" type="line"/>
      <point x="443" y="232"/>
      <point x="441" y="289"/>
      <point x="441" y="333" type="curve" smooth="yes"/>
      <point x="441" y="376"/>
      <point x="443" y="414"/>
    </contour>
    <contour>
      <point x="567" y="0" type="curve"/>
      <point x="562" y="68"/>
      <point x="558" y="149"/>
      <point x="558" y="210" type="curve"/>
      <point x="494" y="210" type="line"/>
      <point x="471" y="89" type="line"/>
      <point x="437" y="72"/>
      <point x="383" y="64"/>
      <point x="330" y="64" type="curve" smooth="yes"/>
      <point x="306" y="64"/>
      <point x="281" y="66"/>
      <point x="259" y="69" type="curve"/>
      <point x="257" y="138"/>
      <point x="257" y="202"/>
      <point x="257" y="263" type="curve" smooth="yes"/>
      <point x="257" y="362"/>
      <point x="258" y="467"/>
      <point x="259" y="587" type="curve"/>
      <point x="284" y="590"/>
      <point x="309" y="592"/>
      <point x="333" y="592" type="curve" smooth="yes"/>
      <point x="385" y="592"/>
      <point x="434" y="584"/>
      <point x="467" y="567" type="curve"/>
      <point x="485" y="462" type="line"/>
      <point x="549" y="462" type="line"/>
      <point x="550" y="513"/>
      <point x="553" y="576"/>
      <point x="557" y="660" type="curve"/>
      <point x="507" y="657"/>
      <point x="290" y="656"/>
      <point x="192" y="656" type="curve" smooth="yes"/>
      <point x="153" y="656"/>
      <point x="99" y="657"/>
      <point x="33" y="660" type="curve"/>
      <point x="20" y="621" type="line"/>
      <point x="108" y="597" type="line"/>
      <point x="111" y="528"/>
      <point x="113" y="460"/>
      <point x="113" y="376" type="curve" smooth="yes"/>
      <point x="113" y="271"/>
      <point x="111" y="167"/>
      <point x="108" y="59" type="curve"/>
      <point x="20" y="38" type="line"/>
      <point x="32" y="0" type="line"/>
      <point x="105" y="2"/>
      <point x="141" y="3"/>
      <point x="188" y="3" type="curve" smooth="yes"/>
      <point x="381" y="3"/>
      <point x="508" y="2"/>
    </contour>
  </outline>
</glyph>
<glyph name="F" format="2">
  <advance width="579"/>
  <unicode hex="0046"/>
  <anchor x="193" y="0" name="bottom"/>
  <anchor x="317" y="660" name="top"/>
  <outline>
    <contour>
      <point x="418" y="371" type="line"/>
      <point x="373" y="364"/>
      <point x="353" y="360"/>
      <point x="290" y="360" type="curve" smooth="yes"/>
      <point x="258" y="360"/>
      <point x="228" y="362"/>
      <point x="183" y="366" type="curve"/>
      <point x="183" y="292" type="line"/>
      <point x="228" y="298"/>
      <point x="258" y="299"/>
      <point x="290" y="299" type="curve" smooth="yes"/>
      <point x="353" y="299"/>
      <point x="373" y="295"/>
      <point x="418" y="287" type="curve"/>
    </contour>
    <contour>
      <point x="447" y="454" type="curve"/>
      <point x="392" y="454" type="line"/>
      <point x="359" y="351" type="line"/>
      <point x="359" y="308" type="line"/>
      <point x="392" y="204" type="line"/>
      <point x="447" y="204" type="line"/>
      <point x="445" y="243"/>
      <point x="443" y="286"/>
      <point x="443" y="328" type="curve" smooth="yes"/>
      <point x="443" y="371"/>
      <point x="445" y="414"/>
    </contour>
    <contour>
      <point x="25" y="38" type="line"/>
      <point x="38" y="0" type="line"/>
      <point x="89" y="3"/>
      <point x="129" y="3"/>
      <point x="182" y="3" type="curve" smooth="yes"/>
      <point x="269" y="3"/>
      <point x="303" y="2"/>
      <point x="369" y="0" type="curve"/>
      <point x="382" y="37" type="line"/>
      <point x="261" y="68" type="line"/>
      <point x="259" y="136"/>
      <point x="259" y="193"/>
      <point x="259" y="325" type="curve" smooth="yes"/>
      <point x="259" y="351"/>
      <point x="260" y="457"/>
      <point x="261" y="587" type="curve"/>
      <point x="355" y="599"/>
      <point x="422" y="588"/>
      <point x="469" y="568" type="curve"/>
      <point x="487" y="462" type="line"/>
      <point x="551" y="462" type="line"/>
      <point x="552" y="526"/>
      <point x="556" y="591"/>
      <point x="559" y="660" type="curve"/>
      <point x="475" y="656"/>
      <point x="263" y="656"/>
      <point x="182" y="656" type="curve" smooth="yes"/>
      <point x="111" y="656"/>
      <point x="84" y="657"/>
      <point x="33" y="660" type="curve"/>
      <point x="20" y="621" type="line"/>
      <point x="110" y="597" type="line"/>
      <point x="114" y="520"/>
      <point x="115" y="426"/>
      <point x="115" y="335" type="curve" smooth="yes"/>
      <point x="115" y="245"/>
      <point x="113" y="154"/>
      <point x="110" y="59" type="curve"/>
    </contour>
  </outline>
</glyph>
<glyph name="G" format="2">
  <advance width="738"/>
  <unicode hex="0047"/>
  <anchor x="387" y="0" name="bottom"/>
  <anchor x="377" y="660" name="top"/>
  <outline>
    <contour>
      <point x="481" y="93" type="curve"/>
      <point x="450" y="67"/>
      <point x="422" y="53"/>
      <point x="382" y="53" type="curve" smooth="yes"/>
      <point x="260" y="53"/>
      <point x="205" y="201"/>
      <point x="205" y="345" type="curve" smooth="yes"/>
      <point x="205" y="462"/>
      <point x="238" y="553"/>
      <point x="312" y="607" type="curve"/>
      <point x="389" y="607"/>
      <point x="438" y="598"/>
      <point x="502" y="571" type="curve"/>
      <point x="522" y="439" type="line"/>
      <point x="589" y="439" type="line"/>
      <point x="598" y="501"/>
      <point x="610" y="561"/>
      <point x="624" y="622" type="curve"/>
      <point x="544" y="659"/>
      <point x="468" y="671"/>
      <point x="384" y="671" type="curve" smooth="yes"/>
      <point x="148" y="671"/>
      <point x="45" y="502"/>
      <point x="45" y="327" type="curve" smooth="yes"/>
      <point x="45" y="160"/>
      <point x="137" y="-7"/>
      <point x="377" y="-7" type="curve" smooth="yes"/>
      <point x="485" y="-7"/>
      <point x="556" y="18"/>
      <point x="634" y="42" type="curve"/>
      <point x="632" y="92"/>
      <point x="628" y="135"/>
      <point x="628" y="175" type="curve" smooth="yes"/>
      <point x="627" y="210"/>
      <point x="628" y="242"/>
      <point x="630" y="274" type="curve"/>
      <point x="718" y="301" type="line"/>
      <point x="705" y="338" type="line"/>
      <point x="657" y="335"/>
      <point x="611" y="334"/>
      <point x="560" y="334" type="curve" smooth="yes"/>
      <point x="501" y="334"/>
      <point x="447" y="335"/>
      <point x="402" y="338" type="curve"/>
      <point x="391" y="301" type="line"/>
      <point x="480" y="274" type="line"/>
      <point x="484" y="246"/>
      <point x="485" y="218"/>
      <point x="485" y="189" type="curve" smooth="yes"/>
      <point x="485" y="160"/>
      <point x="484" y="131"/>
    </contour>
  </outline>
</glyph>
<glyph name="K" format="2">
  <advance width="740"/>
  <unicode hex="004B"/>
  <anchor x="384" y="0" name="bottom"/>
  <anchor x="384" y="660" name="top"/>
  <outline>
    <contour>
      <point x="33" y="0" type="line"/>
      <point x="74" y="1"/>
      <point x="122" y="3"/>
      <point x="184" y="3" type="curve" smooth="yes"/>
      <point x="248" y="3"/>
      <point x="300" y="2"/>
      <point x="336" y="0" type="curve"/>
      <point x="347" y="38" type="line"/>
      <point x="258" y="59" type="line"/>
      <point x="257" y="152"/>
      <point x="257" y="246"/>
      <point x="257" y="312" type="curve" smooth="yes"/>
      <point x="257" y="403"/>
      <point x="257" y="463"/>
      <point x="258" y="595" type="curve"/>
      <point x="347" y="621" type="line"/>
      <point x="336" y="660" type="line"/>
      <point x="291" y="658"/>
      <point x="245" y="656"/>
      <point x="188" y="656" type="curve" smooth="yes"/>
      <point x="126" y="656"/>
      <point x="74" y="657"/>
      <point x="32" y="660" type="curve"/>
      <point x="20" y="621" type="line"/>
      <point x="108" y="595" type="line"/>
      <point x="111" y="485"/>
      <point x="113" y="387"/>
      <point x="113" y="312" type="curve" smooth="yes"/>
      <point x="113" y="230"/>
      <point x="111" y="171"/>
      <point x="108" y="59" type="curve"/>
      <point x="20" y="38" type="line"/>
    </contour>
    <contour>
      <point x="701" y="0" type="curve"/>
      <point x="715" y="38" type="line"/>
      <point x="614" y="59" type="line"/>
      <point x="527" y="173"/>
      <point x="464" y="268"/>
      <point x="383" y="399" type="curve"/>
      <point x="368" y="383"/>
      <point x="304" y="351"/>
      <point x="267" y="324" type="curve"/>
      <point x="355" y="192"/>
      <point x="395" y="126"/>
      <point x="468" y="1" type="curve"/>
      <point x="490" y="1"/>
      <point x="542" y="3"/>
      <point x="588" y="3" type="curve" smooth="yes"/>
      <point x="623" y="3"/>
      <point x="661" y="2"/>
    </contour>
    <contour>
      <point x="353" y="313" type="line"/>
      <point x="435" y="413"/>
      <point x="517" y="501"/>
      <point x="610" y="600" type="curve"/>
      <point x="697" y="621" type="line"/>
      <point x="685" y="660" type="line"/>
      <point x="650" y="658"/>
      <point x="611" y="657"/>
      <point x="565" y="657" type="curve" smooth="yes"/>
      <point x="519" y="657"/>
      <point x="482" y="657"/>
      <point x="436" y="660" type="curve"/>
      <point x="424" y="621" type="line"/>
      <point x="505" y="600" type="line"/>
      <point x="442" y="501"/>
      <point x="390" y="433"/>
      <point x="267" y="324" type="curve"/>
    </contour>
  </outline>
</glyph>
<glyph name="M" format="2">
  <advance width="965"/>
  <unicode hex="004D"/>
  <outline>
    <contour>
      <point x="685" y="660" type="line"/>
      <point x="604" y="445"/>
      <point x="530" y="261"/>
      <point x="439" y="97" type="curve"/>
      <point x="430" y="-9" type="line"/>
      <point x="484" y="-9" type="line"/>
      <point x="572" y="218"/>
      <point x="637" y="373"/>
      <point x="756" y="599" type="curve"/>
    </contour>
    <contour>
      <point x="204" y="589" type="curve"/>
      <point x="169" y="525" type="line"/>
      <point x="265" y="328"/>
      <point x="306" y="260"/>
      <point x="430" y="-9" type="curve"/>
      <point x="484" y="-9" type="line"/>
      <point x="528" y="149" type="line"/>
      <point x="422" y="330"/>
      <point x="363" y="462"/>
      <point x="275" y="660" type="curve"/>
      <point x="244" y="658"/>
      <point x="204" y="657"/>
      <point x="164" y="657" type="curve" smooth="yes"/>
      <point x="118" y="657"/>
      <point x="85" y="658"/>
      <point x="43" y="660" type="curve"/>
      <point x="27" y="619" type="line"/>
      <point x="126" y="591" type="line"/>
      <point x="126" y="432"/>
      <point x="118" y="230"/>
      <point x="102" y="59" type="curve"/>
      <point x="2" y="38" type="line"/>
      <point x="15" y="0" type="line"/>
      <point x="50" y="2"/>
      <point x="88" y="3"/>
      <point x="151" y="3" type="curve" smooth="yes"/>
      <point x="203" y="3"/>
      <point x="237" y="2"/>
      <point x="287" y="0" type="curve"/>
      <point x="301" y="38" type="line"/>
      <point x="194" y="59" type="line"/>
      <point x="188" y="227"/>
      <point x="191" y="455"/>
    </contour>
    <contour>
      <point x="913" y="660" type="line"/>
      <point x="878" y="659"/>
      <point x="832" y="657"/>
      <point x="789" y="657" type="curve" smooth="yes"/>
      <point x="752" y="657"/>
      <point x="714" y="658"/>
      <point x="685" y="660" type="curve"/>
      <point x="688" y="608" type="line"/>
      <point x="701" y="417"/>
      <point x="707" y="275"/>
      <point x="712" y="59" type="curve"/>
      <point x="619" y="38" type="line"/>
      <point x="633" y="0" type="line"/>
      <point x="673" y="1"/>
      <point x="714" y="3"/>
      <point x="786" y="3" type="curve" smooth="yes"/>
      <point x="864" y="3"/>
      <point x="902" y="2"/>
      <point x="937" y="0" type="curve"/>
      <point x="953" y="38" type="line"/>
      <point x="860" y="59" type="line"/>
      <point x="848" y="279"/>
      <point x="845" y="363"/>
      <point x="836" y="591" type="curve"/>
      <point x="929" y="619" type="line"/>
    </contour>
  </outline>
</glyph>
<glyph name="N" format="2">
  <advance width="774"/>
  <unicode hex="004E"/>
  <anchor x="421" y="0" name="bottom"/>
  <anchor x="382" y="660" name="top"/>
  <outline>
    <contour>
      <point x="266" y="660" type="curve"/>
      <point x="239" y="638"/>
      <point x="185" y="604"/>
      <point x="175" y="530" type="curve"/>
      <point x="310" y="349"/>
      <point x="424" y="231"/>
      <point x="589" y="-10" type="curve"/>
      <point x="599" y="-10" type="line"/>
      <point x="615" y="199" type="line"/>
      <point x="491" y="361"/>
      <point x="374" y="494"/>
    </contour>
    <contour>
      <point x="266" y="660" type="line"/>
      <point x="241" y="658"/>
      <point x="188" y="657"/>
      <point x="156" y="657" type="curve" smooth="yes"/>
      <point x="115" y="657"/>
      <point x="75" y="658"/>
      <point x="34" y="660" type="curve"/>
      <point x="22" y="621" type="line"/>
      <point x="126" y="594" type="line"/>
      <point x="129" y="515"/>
      <point x="131" y="439"/>
      <point x="131" y="361" type="curve" smooth="yes"/>
      <point x="131" y="265"/>
      <point x="128" y="167"/>
      <point x="121" y="59" type="curve"/>
      <point x="20" y="38" type="line"/>
      <point x="33" y="0" type="line"/>
      <point x="74" y="1"/>
      <point x="123" y="3"/>
      <point x="163" y="3" type="curve" smooth="yes"/>
      <point x="207" y="3"/>
      <point x="263" y="2"/>
      <point x="299" y="0" type="curve"/>
      <point x="313" y="38" type="line"/>
      <point x="212" y="59" type="line"/>
      <point x="202" y="190"/>
      <point x="199" y="276"/>
      <point x="199" y="359" type="curve" smooth="yes"/>
      <point x="199" y="455"/>
      <point x="199" y="539"/>
      <point x="199" y="568" type="curve"/>
    </contour>
    <contour>
      <point x="740" y="660" type="line"/>
      <point x="704" y="657"/>
      <point x="660" y="656"/>
      <point x="617" y="656" type="curve" smooth="yes"/>
      <point x="576" y="656"/>
      <point x="540" y="658"/>
      <point x="499" y="660" type="curve"/>
      <point x="487" y="621" type="line"/>
      <point x="574" y="600" type="line"/>
      <point x="584" y="462"/>
      <point x="589" y="333"/>
      <point x="589" y="223" type="curve" smooth="yes"/>
      <point x="589" y="154"/>
      <point x="587" y="101"/>
      <point x="583" y="33" type="curve"/>
      <point x="595" y="-10" type="line"/>
      <point x="658" y="-10" type="line"/>
      <point x="656" y="75"/>
      <point x="655" y="150"/>
      <point x="655" y="225" type="curve" smooth="yes"/>
      <point x="655" y="344"/>
      <point x="658" y="459"/>
      <point x="666" y="600" type="curve"/>
      <point x="754" y="621" type="line"/>
    </contour>
  </outline>
</glyph>
<glyph name="P" format="1">
  <advance width="619"/>
  <unicode hex="0050"/>
  <outline>
    <contour>
      <point x="359" y="660" type="curve" smooth="yes"/>
      <point x="285" y="660"/>
      <point x="250" y="656"/>
      <point x="188" y="656" type="curve" smooth="yes"/>
      <point x="129" y="656"/>
      <point x="96" y="657"/>
      <point x="35" y="660" type="curve"/>
      <point x="24" y="622" type="line"/>
      <point x="113" y="596" type="line"/>
      <point x="116" y="515"/>
      <point x="118" y="470"/>
      <point x="118" y="366" type="curve" smooth="yes"/>
      <point x="118" y="287"/>
      <point x="117" y="149"/>
      <point x="113" y="59" type="curve"/>
      <point x="20" y="38" type="line"/>
      <point x="35" y="0" type="line"/>
      <point x="76" y="1"/>
      <point x="123" y="3"/>
      <point x="189" y="3" type="curve" smooth="yes"/>
      <point x="267" y="3"/>
      <point x="325" y="2"/>
      <point x="360" y="0" type="curve"/>
      <point x="374" y="38" type="line"/>
      <point x="264" y="64" type="line"/>
      <point x="264" y="192"/>
      <point x="264" y="163"/>
      <point x="264" y="278" type="curve" smooth="yes"/>
      <point x="264" y="336"/>
      <point x="264" y="520"/>
      <point x="264" y="595" type="curve"/>
      <point x="281" y="598"/>
      <point x="304" y="602"/>
      <point x="331" y="602" type="curve" smooth="yes"/>
      <point x="395" y="602"/>
      <point x="429" y="532"/>
      <point x="429" y="460" type="curve" smooth="yes"/>
      <point x="429" y="404"/>
      <point x="408" y="350"/>
      <point x="366" y="322" type="curve"/>
      <point x="351" y="319"/>
      <point x="335" y="317"/>
      <point x="317" y="317" type="curve" smooth="yes"/>
      <point x="293" y="317"/>
      <point x="263" y="323"/>
      <point x="219" y="333" type="curve"/>
      <point x="219" y="270" type="line"/>
      <point x="258" y="262"/>
      <point x="294" y="258"/>
      <point x="318" y="258" type="curve" smooth="yes"/>
      <point x="480" y="258"/>
      <point x="579" y="344"/>
      <point x="579" y="473" type="curve" smooth="yes"/>
      <point x="579" y="585"/>
      <point x="508" y="660"/>
    </contour>
    <contour>
      <point x="308" y="0" type="move" name="bottom"/>
    </contour>
    <contour>
      <point x="308" y="660" type="move" name="top"/>
    </contour>
  </outline>
</glyph>
<glyph name="Q" format="1">
  <advance width="714"/>
  <unicode hex="0051"/>
  <outline>
    <contour>
      <point x="660" y="-20" type="line"/>
      <point x="627" y="-60"/>
      <point x="598" y="-87"/>
      <point x="561" y="-107" type="curve"/>
      <point x="479" y="-107"/>
      <point x="331" y="-20"/>
      <point x="233" y="-20" type="curve" smooth="yes"/>
      <point x="181" y="-20"/>
      <point x="123" y="-48"/>
      <point x="68" y="-86" type="curve"/>
      <point x="93" y="-124" type="line"/>
      <point x="128" y="-101"/>
      <point x="159" y="-91"/>
      <point x="196" y="-91" type="curve" smooth="yes"/>
      <point x="275" y="-91"/>
      <point x="401" y="-226"/>
      <point x="502" y="-226" type="curve" smooth="yes"/>
      <point x="571" y="-226"/>
      <point x="641" y="-170"/>
      <point x="699" y="-48" type="curve"/>
    </contour>
    <component base="O"/>
    <contour>
      <point x="357" y="0" type="move" name="bottom"/>
    </contour>
    <contour>
      <point x="357" y="660" type="move" name="top"/>
    </contour>
  </outline>
</glyph>
<glyph name="S" format="2">
  <advance width="589"/>
  <unicode hex="0053"/>
  <anchor x="296" y="0" name="bottom"/>
  <anchor x="300" y="660" name="top"/>
  <outline>
    <contour>
      <point x="455" y="655"/>
      <point x="373" y="673"/>
      <point x="300" y="673" type="curve" smooth="yes"/>
      <point x="173" y="673"/>
      <point x="65" y="612"/>
      <point x="65" y="488" type="curve" smooth="yes"/>
      <point x="65" y="260"/>
      <point x="390" y="317"/>
      <point x="390" y="149" type="curve" smooth="yes"/>
      <point x="390" y="77"/>
      <point x="334" y="48"/>
      <point x="272" y="48" type="curve" smooth="yes"/>
      <point x="233" y="48"/>
      <point x="197" y="61"/>
      <point x="167" y="82" type="curve"/>
      <point x="153" y="212" type="line"/>
      <point x="88" y="212" type="line"/>
      <point x="78" y="146"/>
      <point x="69" y="107"/>
      <point x="55" y="47" type="curve"/>
      <point x="112" y="11"/>
      <point x="196" y="-10"/>
      <point x="277" y="-10" type="curve" smooth="yes"/>
      <point x="408" y="-10"/>
      <point x="534" y="45"/>
      <point x="534" y="177" type="curve" smooth="yes"/>
      <point x="534" y="421"/>
      <point x="196" y="397"/>
      <point x="196" y="530" type="curve" smooth="yes"/>
      <point x="196" y="586"/>
      <point x="245" y="616"/>
      <point x="297" y="616" type="curve" smooth="yes"/>
      <point x="340" y="616"/>
      <point x="383" y="601"/>
      <point x="402" y="575" type="curve"/>
      <point x="412" y="466" type="line"/>
      <point x="476" y="466" type="line"/>
      <point x="486" y="518"/>
      <point x="496" y="562"/>
      <point x="510" y="627" type="curve"/>
    </contour>
  </outline>
</glyph>
<glyph name="U" format="2">
  <advance width="788"/>
  <unicode hex="0055"/>
  <anchor x="419" y="0" name="ogonek"/>
  <anchor x="404" y="660" name="top"/>
  <outline>
    <contour>
      <point x="754" y="660" type="line"/>
      <point x="729" y="658"/>
      <point x="671" y="656"/>
      <point x="629" y="656" type="curve" smooth="yes"/>
      <point x="594" y="656"/>
      <point x="549" y="657"/>
      <point x="509" y="660" type="curve"/>
      <point x="495" y="621" type="line"/>
      <point x="585" y="600" type="line"/>
      <point x="591" y="517"/>
      <point x="593" y="427"/>
      <point x="593" y="356" type="curve" smooth="yes"/>
      <point x="593" y="300"/>
      <point x="592" y="248"/>
      <point x="589" y="219" type="curve" smooth="yes"/>
      <point x="577" y="109"/>
      <point x="518" y="62"/>
      <point x="419" y="62" type="curve" smooth="yes"/>
      <point x="326" y="62"/>
      <point x="274" y="117"/>
      <point x="265" y="218" type="curve" smooth="yes"/>
      <point x="262" y="259"/>
      <point x="258" y="343"/>
      <point x="258" y="443" type="curve" smooth="yes"/>
      <point x="258" y="491"/>
      <point x="259" y="543"/>
      <point x="261" y="595" type="curve"/>
      <point x="350" y="621" type="line"/>
      <point x="338" y="660" type="line"/>
      <point x="303" y="658"/>
      <point x="250" y="656"/>
      <point x="185" y="656" type="curve" smooth="yes"/>
      <point x="133" y="656"/>
      <point x="73" y="659"/>
      <point x="32" y="660" type="curve"/>
      <point x="20" y="621" type="line"/>
      <point x="110" y="595" type="line"/>
      <point x="114" y="447"/>
      <point x="108" y="296"/>
      <point x="119" y="203" type="curve" smooth="yes"/>
      <point x="136" y="47"/>
      <point x="249" y="-6"/>
      <point x="396" y="-6" type="curve" smooth="yes"/>
      <point x="517" y="-6"/>
      <point x="647" y="52"/>
      <point x="659" y="219" type="curve" smooth="yes"/>
      <point x="666" y="317"/>
      <point x="671" y="451"/>
      <point x="680" y="600" type="curve"/>
      <point x="768" y="621" type="line"/>
    </contour>
  </outline>
</glyph>
<glyph name="W" format="2">
  <advance width="1000"/>
  <unicode hex="0057"/>
  <anchor x="528" y="660" name="top"/>
  <outline>
    <contour>
      <point x="325" y="660" type="line"/>
      <point x="278" y="657"/>
      <point x="231" y="656"/>
      <point x="167" y="656" type="curve" smooth="yes"/>
      <point x="101" y="656"/>
      <point x="67" y="656"/>
      <point x="21" y="660" type="curve"/>
      <point x="7" y="621" type="line"/>
      <point x="95" y="600" type="line"/>
      <point x="169" y="391"/>
      <point x="222" y="241"/>
      <point x="299" y="-9" type="curve"/>
      <point x="352" y="-9" type="line"/>
      <point x="396" y="166" type="line"/>
      <point x="334" y="322"/>
      <point x="303" y="415"/>
      <point x="254" y="600" type="curve"/>
      <point x="339" y="621" type="line"/>
    </contour>
    <contour>
      <point x="557" y="660" type="line"/>
      <point x="501" y="660" type="line"/>
      <point x="446" y="442"/>
      <point x="401" y="292"/>
      <point x="324" y="92" type="curve"/>
      <point x="352" y="-9" type="line"/>
      <point x="415" y="183"/>
      <point x="470" y="313"/>
      <point x="538" y="494" type="curve"/>
    </contour>
    <contour>
      <point x="557" y="660" type="curve"/>
      <point x="501" y="660" type="line"/>
      <point x="469" y="473" type="line"/>
      <point x="537" y="315"/>
      <point x="574" y="219"/>
      <point x="658" y="-8" type="curve"/>
      <point x="690" y="26" type="line"/>
      <point x="745" y="166" type="line"/>
      <point x="667" y="351"/>
      <point x="630" y="438"/>
    </contour>
    <contour>
      <point x="980" y="660" type="line"/>
      <point x="944" y="658"/>
      <point x="911" y="656"/>
      <point x="864" y="656" type="curve" smooth="yes"/>
      <point x="820" y="656"/>
      <point x="775" y="658"/>
      <point x="730" y="660" type="curve"/>
      <point x="716" y="621" type="line"/>
      <point x="809" y="600" type="line"/>
      <point x="786" y="434"/>
      <point x="735" y="261"/>
      <point x="683" y="125" type="curve"/>
      <point x="658" y="-8" type="line"/>
      <point x="711" y="-8" type="line"/>
      <point x="793" y="259"/>
      <point x="837" y="413"/>
      <point x="907" y="600" type="curve"/>
      <point x="993" y="621" type="line"/>
    </contour>
  </outline>
</glyph>
<glyph name="X" format="2">
  <advance width="697"/>
  <unicode hex="0058"/>
  <anchor x="342" y="0" name="bottom"/>
  <anchor x="366" y="660" name="top"/>
  <outline>
    <contour>
      <point x="328" y="660" type="line"/>
      <point x="292" y="659"/>
      <point x="225" y="657"/>
      <point x="184" y="657" type="curve" smooth="yes"/>
      <point x="141" y="657"/>
      <point x="78" y="657"/>
      <point x="38" y="660" type="curve"/>
      <point x="24" y="621" type="line"/>
      <point x="105" y="603" type="line"/>
      <point x="212" y="432"/>
      <point x="329" y="236"/>
      <point x="424" y="59" type="curve"/>
      <point x="357" y="38" type="line"/>
      <point x="374" y="0" type="line"/>
      <point x="409" y="2"/>
      <point x="465" y="3"/>
      <point x="531" y="3" type="curve" smooth="yes"/>
      <point x="579" y="3"/>
      <point x="622" y="1"/>
      <point x="662" y="0" type="curve"/>
      <point x="677" y="38" type="line"/>
      <point x="599" y="59" type="line"/>
      <point x="463" y="264"/>
      <point x="342" y="481"/>
      <point x="281" y="605" type="curve"/>
      <point x="342" y="621" type="line"/>
    </contour>
    <contour>
      <point x="362" y="304" type="curve"/>
      <point x="323" y="358" type="line"/>
      <point x="248" y="243"/>
      <point x="171" y="141"/>
      <point x="104" y="59" type="curve"/>
      <point x="20" y="38" type="line"/>
      <point x="34" y="0" type="line"/>
      <point x="70" y="2"/>
      <point x="101" y="3"/>
      <point x="144" y="3" type="curve" smooth="yes"/>
      <point x="197" y="3"/>
      <point x="235" y="2"/>
      <point x="278" y="0" type="curve"/>
      <point x="292" y="38" type="line"/>
      <point x="210" y="59" type="line"/>
      <point x="243" y="126"/>
      <point x="295" y="206"/>
    </contour>
    <contour>
      <point x="339" y="368" type="curve"/>
      <point x="376" y="311" type="line"/>
      <point x="454" y="431"/>
      <point x="519" y="521"/>
      <point x="582" y="600" type="curve"/>
      <point x="656" y="621" type="line"/>
      <point x="642" y="660" type="line"/>
      <point x="606" y="658"/>
      <point x="575" y="657"/>
      <point x="539" y="657" type="curve" smooth="yes"/>
      <point x="489" y="657"/>
      <point x="459" y="658"/>
      <point x="417" y="660" type="curve"/>
      <point x="403" y="621" type="line"/>
      <point x="479" y="602" type="line"/>
      <point x="460" y="556"/>
      <point x="412" y="472"/>
    </contour>
  </outline>
</glyph>
<glyph name="Z" format="2">
  <advance width="588"/>
  <unicode hex="005A"/>
  <anchor x="309" y="660" name="top"/>
  <outline>
    <contour>
      <point x="77" y="0" type="curve"/>
      <point x="129" y="2"/>
      <point x="204" y="2"/>
      <point x="283" y="2" type="curve" smooth="yes"/>
      <point x="361" y="2"/>
      <point x="443" y="2"/>
      <point x="508" y="0" type="curve"/>
      <point x="518" y="57"/>
      <point x="530" y="121"/>
      <point x="548" y="186" type="curve"/>
      <point x="484" y="206" type="line"/>
      <point x="462" y="165"/>
      <point x="436" y="112"/>
      <point x="412" y="82" type="curve"/>
      <point x="379" y="71"/>
      <point x="328" y="65"/>
      <point x="279" y="65" type="curve" smooth="yes"/>
      <point x="263" y="65"/>
      <point x="246" y="66"/>
      <point x="230" y="67" type="curve"/>
      <point x="300" y="221"/>
      <point x="400" y="393"/>
      <point x="535" y="608" type="curve"/>
      <point x="528" y="624"/>
      <point x="516" y="645"/>
      <point x="506" y="660" type="curve"/>
      <point x="435" y="659"/>
      <point x="369" y="658"/>
      <point x="300" y="658" type="curve" smooth="yes"/>
      <point x="231" y="658"/>
      <point x="159" y="659"/>
      <point x="76" y="660" type="curve"/>
      <point x="75" y="595"/>
      <point x="72" y="527"/>
      <point x="67" y="462" type="curve"/>
      <point x="128" y="462" type="line"/>
      <point x="144" y="507"/>
      <point x="158" y="537"/>
      <point x="180" y="575" type="curve"/>
      <point x="212" y="585"/>
      <point x="253" y="590"/>
      <point x="296" y="590" type="curve" smooth="yes"/>
      <point x="313" y="590"/>
      <point x="330" y="590"/>
      <point x="349" y="588" type="curve"/>
      <point x="298" y="469"/>
      <point x="172" y="250"/>
      <point x="40" y="46" type="curve"/>
      <point x="49" y="29"/>
      <point x="62" y="13"/>
    </contour>
  </outline>
</glyph>
<glyph name="bracketleft" format="2">
  <advance width="372"/>
  <unicode hex="005B"/>
  <outline>
    <contour>
      <point x="317" y="20" type="line"/>
      <point x="59" y="20" type="line"/>
      <point x="35" y="-30" type="line"/>
      <point x="317" y="-30" type="line"/>
    </contour>
    <contour>
      <point x="317" y="763" type="line"/>
      <point x="35" y="763" type="line"/>
      <point x="59" y="715" type="line"/>
      <point x="317" y="715" type="line"/>
    </contour>
    <contour>
      <point x="35" y="763" type="line"/>
      <point x="42" y="631"/>
      <point x="45" y="499"/>
      <point x="45" y="367" type="curve" smooth="yes"/>
      <point x="45" y="235"/>
      <point x="42" y="103"/>
      <point x="35" y="-30" type="curve"/>
      <point x="180" y="-11" type="line"/>
      <point x="175" y="114"/>
      <point x="172" y="240"/>
      <point x="172" y="366" type="curve" smooth="yes"/>
      <point x="172" y="491"/>
      <point x="175" y="617"/>
      <point x="180" y="742" type="curve"/>
    </contour>
  </outline>
</glyph>
<glyph name="asciicircum" format="2">
  <advance width="551"/>
  <unicode hex="005E"/>
  <outline>
    <contour>
      <point x="299" y="671" type="curve"/>
      <point x="267" y="671" type="line"/>
      <point x="197" y="553"/>
      <point x="123" y="434"/>
      <point x="45" y="316" type="curve"/>
      <point x="133" y="316" type="line"/>
      <point x="307" y="589" type="line"/>
      <point x="253" y="589" type="line"/>
      <point x="419" y="316" type="line"/>
      <point x="506" y="316" type="line"/>
      <point x="433" y="434"/>
      <point x="364" y="553"/>
    </contour>
  </outline>
</glyph>
<glyph name="a" format="1">
  <advance width="494"/>
  <unicode hex="0061"/>
  <outline>
    <contour>
      <point x="274" y="436" type="curve" smooth="yes"/>
      <point x="189" y="436"/>
      <point x="112" y="398"/>
      <point x="36" y="342" type="curve"/>
      <point x="62" y="299" type="line"/>
      <point x="120" y="330"/>
      <point x="174" y="351"/>
      <point x="236" y="354" type="curve"/>
      <point x="264" y="345"/>
      <point x="275" y="319"/>
      <point x="275" y="278" type="curve" smooth="yes"/>
      <point x="275" y="228"/>
      <point x="266" y="162"/>
      <point x="266" y="97" type="curve" smooth="yes"/>
      <point x="266" y="26"/>
      <point x="302" y="-5"/>
      <point x="343" y="-5" type="curve" smooth="yes"/>
      <point x="392" y="-5"/>
      <point x="434" y="19"/>
      <point x="482" y="53" type="curve"/>
      <point x="464" y="97" type="line"/>
      <point x="447" y="89"/>
      <point x="432" y="84"/>
      <point x="422" y="84" type="curve" smooth="yes"/>
      <point x="401" y="84"/>
      <point x="399" y="98"/>
      <point x="399" y="135" type="curve" smooth="yes"/>
      <point x="399" y="183"/>
      <point x="405" y="219"/>
      <point x="405" y="305" type="curve" smooth="yes"/>
      <point x="405" y="393"/>
      <point x="344" y="436"/>
    </contour>
    <contour>
      <point x="345" y="279" type="line"/>
      <point x="305" y="255"/>
      <point x="265" y="244"/>
      <point x="217" y="236" type="curve" smooth="yes"/>
      <point x="110" y="218"/>
      <point x="25" y="195"/>
      <point x="25" y="112" type="curve" smooth="yes"/>
      <point x="25" y="31"/>
      <point x="78" y="-9"/>
      <point x="128" y="-9" type="curve" smooth="yes"/>
      <point x="226" y="-9"/>
      <point x="302" y="74"/>
      <point x="334" y="114" type="curve"/>
      <point x="315" y="155" type="line"/>
      <point x="281" y="111"/>
      <point x="227" y="79"/>
      <point x="196" y="79" type="curve" smooth="yes"/>
      <point x="171" y="79"/>
      <point x="155" y="96"/>
      <point x="155" y="124" type="curve" smooth="yes"/>
      <point x="155" y="158"/>
      <point x="169" y="168"/>
      <point x="215" y="178" type="curve" smooth="yes"/>
      <point x="233" y="182"/>
      <point x="256" y="189"/>
      <point x="285" y="196" type="curve"/>
    </contour>
    <contour>
      <point x="454" y="51" type="move" name="ogonek"/>
    </contour>
    <contour>
      <point x="241" y="434" type="move" name="top"/>
    </contour>
  </outline>
</glyph>
<glyph name="b" format="2">
  <advance width="576"/>
  <unicode hex="0062"/>
  <outline>
    <contour>
      <point x="244" y="745" type="curve"/>
      <point x="179" y="734"/>
      <point x="52" y="729"/>
      <point x="7" y="727" type="curve"/>
      <point x="16" y="684" type="line"/>
      <point x="96" y="671" type="line"/>
      <point x="105" y="580"/>
      <point x="109" y="512"/>
      <point x="109" y="434" type="curve" smooth="yes"/>
      <point x="109" y="328"/>
      <point x="106" y="88"/>
      <point x="101" y="0" type="curve"/>
      <point x="163" y="0" type="line"/>
      <point x="186" y="23"/>
      <point x="209" y="45"/>
      <point x="224" y="63" type="curve"/>
      <point x="246" y="82" type="line"/>
      <point x="245" y="130"/>
      <point x="245" y="302"/>
      <point x="245" y="358" type="curve" smooth="yes"/>
      <point x="245" y="461"/>
      <point x="243" y="525"/>
      <point x="243" y="629" type="curve" smooth="yes"/>
      <point x="243" y="668"/>
      <point x="243" y="707"/>
    </contour>
    <contour>
      <point x="383" y="436" type="curve" smooth="yes"/>
      <point x="291" y="436"/>
      <point x="236" y="369"/>
      <point x="216" y="291" type="curve"/>
      <point x="245" y="204" type="line"/>
      <point x="245" y="301"/>
      <point x="285" y="358"/>
      <point x="326" y="365" type="curve"/>
      <point x="385" y="356"/>
      <point x="416" y="280"/>
      <point x="416" y="208" type="curve" smooth="yes"/>
      <point x="416" y="135"/>
      <point x="385" y="65"/>
      <point x="331" y="65" type="curve" smooth="yes"/>
      <point x="269" y="65"/>
      <point x="236" y="104"/>
      <point x="215" y="147" type="curve"/>
      <point x="189" y="105" type="line"/>
      <point x="229" y="41"/>
      <point x="284" y="-5"/>
      <point x="357" y="-5" type="curve" smooth="yes"/>
      <point x="486" y="-5"/>
      <point x="551" y="110"/>
      <point x="551" y="224" type="curve" smooth="yes"/>
      <point x="551" y="331"/>
      <point x="492" y="436"/>
    </contour>
  </outline>
</glyph>
<glyph name="c" format="2">
  <advance width="433"/>
  <unicode hex="0063"/>
  <anchor x="230" y="0" name="bottom"/>
  <anchor x="230" y="434" name="top"/>
  <outline>
    <contour>
      <point x="425" y="69" type="curve"/>
      <point x="398" y="118" type="line"/>
      <point x="358" y="89"/>
      <point x="319" y="75"/>
      <point x="286" y="75" type="curve" smooth="yes"/>
      <point x="211" y="75"/>
      <point x="148" y="142"/>
      <point x="148" y="250" type="curve" smooth="yes"/>
      <point x="148" y="298"/>
      <point x="164" y="346"/>
      <point x="192" y="379" type="curve"/>
      <point x="235" y="381"/>
      <point x="280" y="364"/>
      <point x="313" y="336" type="curve"/>
      <point x="328" y="245" type="line"/>
      <point x="378" y="245" type="line"/>
      <point x="386" y="285"/>
      <point x="391" y="325"/>
      <point x="410" y="394" type="curve"/>
      <point x="360" y="424"/>
      <point x="306" y="436"/>
      <point x="250" y="436" type="curve" smooth="yes"/>
      <point x="94" y="436"/>
      <point x="21" y="324"/>
      <point x="21" y="213" type="curve" smooth="yes"/>
      <point x="21" y="103"/>
      <point x="93" y="-6"/>
      <point x="238" y="-6" type="curve" smooth="yes"/>
      <point x="318" y="-6"/>
      <point x="379" y="28"/>
    </contour>
  </outline>
</glyph>
<glyph name="d" format="2">
  <advance width="542"/>
  <unicode hex="0064"/>
  <anchor x="264" y="218" name="center"/>
  <anchor x="532" y="434" name="topright"/>
  <outline>
    <contour>
      <point x="466" y="747" type="curve"/>
      <point x="405" y="739"/>
      <point x="274" y="728"/>
      <point x="229" y="728" type="curve"/>
      <point x="238" y="685" type="line"/>
      <point x="319" y="672" type="line"/>
      <point x="327" y="584"/>
      <point x="331" y="457"/>
      <point x="331" y="366" type="curve" smooth="yes"/>
      <point x="332" y="326"/>
      <point x="332" y="289"/>
      <point x="332" y="251" type="curve" smooth="yes"/>
      <point x="332" y="195"/>
      <point x="331" y="134"/>
      <point x="330" y="74" type="curve"/>
      <point x="332" y="49"/>
      <point x="336" y="27"/>
      <point x="338" y="0" type="curve"/>
      <point x="356" y="1"/>
      <point x="379" y="2"/>
      <point x="415" y="2" type="curve" smooth="yes"/>
      <point x="463" y="2"/>
      <point x="492" y="2"/>
      <point x="527" y="0" type="curve"/>
      <point x="542" y="37" type="line"/>
      <point x="467" y="58" type="line"/>
      <point x="465" y="115"/>
      <point x="465" y="271"/>
      <point x="465" y="434" type="curve" smooth="yes"/>
      <point x="465" y="563"/>
      <point x="466" y="661"/>
    </contour>
    <contour>
      <point x="205" y="436" type="curve" smooth="yes"/>
      <point x="118" y="436"/>
      <point x="21" y="363"/>
      <point x="21" y="221" type="curve" smooth="yes"/>
      <point x="21" y="69"/>
      <point x="114" y="-7"/>
      <point x="205" y="-7" type="curve" smooth="yes"/>
      <point x="296" y="-7"/>
      <point x="357" y="64"/>
      <point x="393" y="162" type="curve"/>
      <point x="362" y="207" type="line"/>
      <point x="346" y="124"/>
      <point x="298" y="69"/>
      <point x="252" y="69" type="curve" smooth="yes"/>
      <point x="203" y="69"/>
      <point x="157" y="118"/>
      <point x="157" y="219" type="curve" smooth="yes"/>
      <point x="157" y="294"/>
      <point x="188" y="357"/>
      <point x="242" y="373" type="curve"/>
      <point x="280" y="365"/>
      <point x="332" y="310"/>
      <point x="332" y="240" type="curve"/>
      <point x="363" y="325" type="line"/>
      <point x="337" y="395"/>
      <point x="278" y="436"/>
    </contour>
  </outline>
</glyph>
<glyph name="e" format="2">
  <advance width="440"/>
  <unicode hex="0065"/>
  <anchor x="229" y="0" name="bottom"/>
  <anchor x="394" y="65" name="ogonek"/>
  <anchor x="229" y="434" name="top"/>
  <outline>
    <contour>
      <point x="419" y="371"/>
      <point x="333" y="437"/>
      <point x="233" y="437" type="curve" smooth="yes"/>
      <point x="125" y="437"/>
      <point x="21" y="362"/>
      <point x="21" y="214" type="curve" smooth="yes"/>
      <point x="21" y="68"/>
      <point x="121" y="-6"/>
      <point x="233" y="-6" type="curve" smooth="yes"/>
      <point x="297" y="-6"/>
      <point x="365" y="15"/>
      <point x="422" y="67" type="curve"/>
      <point x="400" y="113" type="line"/>
      <point x="360" y="87"/>
      <point x="319" y="73"/>
      <point x="282" y="73" type="curve" smooth="yes"/>
      <point x="209" y="73"/>
      <point x="152" y="128"/>
      <point x="152" y="248" type="curve" smooth="yes"/>
      <point x="152" y="306"/>
      <point x="169" y="353"/>
      <point x="196" y="378" type="curve"/>
      <point x="261" y="377"/>
      <point x="291" y="326"/>
      <point x="293" y="284" type="curve"/>
      <point x="246" y="276"/>
      <point x="138" y="274"/>
      <point x="110" y="275" type="curve"/>
      <point x="110" y="227" type="line"/>
      <point x="120" y="226"/>
      <point x="153" y="224"/>
      <point x="196" y="224" type="curve" smooth="yes"/>
      <point x="281" y="224"/>
      <point x="375" y="228"/>
      <point x="419" y="237" type="curve"/>
    </contour>
  </outline>
</glyph>
<glyph name="f" format="2">
  <advance width="346"/>
  <unicode hex="0066"/>
  <outline>
    <contour>
      <point x="109" y="455" type="curve" smooth="yes"/>
      <point x="101" y="283"/>
      <point x="106" y="192"/>
      <point x="102" y="58" type="curve"/>
      <point x="15" y="37" type="line"/>
      <point x="32" y="0" type="line"/>
      <point x="73" y="1"/>
      <point x="134" y="2"/>
      <point x="174" y="3" type="curve" smooth="yes"/>
      <point x="222" y="2"/>
      <point x="296" y="2"/>
      <point x="331" y="0" type="curve"/>
      <point x="346" y="37" type="line"/>
      <point x="242" y="68" type="line"/>
      <point x="238" y="202"/>
      <point x="238" y="391"/>
      <point x="238" y="487" type="curve" smooth="yes"/>
      <point x="238" y="594"/>
      <point x="255" y="656"/>
      <point x="284" y="689" type="curve"/>
      <point x="319" y="683"/>
      <point x="347" y="652"/>
      <point x="369" y="583" type="curve"/>
      <point x="423" y="583" type="line"/>
      <point x="445" y="617"/>
      <point x="459" y="650"/>
      <point x="462" y="700" type="curve"/>
      <point x="439" y="729"/>
      <point x="393" y="746"/>
      <point x="336" y="746" type="curve" smooth="yes"/>
      <point x="232" y="746"/>
      <point x="119" y="665"/>
    </contour>
    <contour>
      <point x="30" y="420" type="line"/>
      <point x="14" y="366" type="line"/>
      <point x="125" y="366"/>
      <point x="242" y="352"/>
      <point x="356" y="340" type="curve"/>
      <point x="344" y="420" type="line"/>
    </contour>
  </outline>
</glyph>
<glyph name="g" format="2">
  <advance width="492"/>
  <unicode hex="0067"/>
  <anchor x="214" y="434" name="top"/>
  <outline>
    <contour>
      <point x="140" y="183" type="curve"/>
      <point x="188" y="171" type="line"/>
      <point x="173" y="145"/>
      <point x="165" y="126"/>
      <point x="165" y="111" type="curve" smooth="yes"/>
      <point x="165" y="75"/>
      <point x="209" y="73"/>
      <point x="263" y="70" type="curve" smooth="yes"/>
      <point x="346" y="65"/>
      <point x="452" y="59"/>
      <point x="452" y="-75" type="curve" smooth="yes"/>
      <point x="452" y="-173"/>
      <point x="373" y="-265"/>
      <point x="205" y="-265" type="curve" smooth="yes"/>
      <point x="77" y="-265"/>
      <point x="11" y="-200"/>
      <point x="11" y="-130" type="curve" smooth="yes"/>
      <point x="11" y="-72"/>
      <point x="55" y="-11"/>
      <point x="146" y="20" type="curve"/>
      <point x="165" y="9" type="line"/>
      <point x="138" y="-23"/>
      <point x="126" y="-56"/>
      <point x="126" y="-86" type="curve" smooth="yes"/>
      <point x="126" y="-146"/>
      <point x="177" y="-193"/>
      <point x="264" y="-193" type="curve" smooth="yes"/>
      <point x="320" y="-193"/>
      <point x="372" y="-169"/>
      <point x="372" y="-110" type="curve" smooth="yes"/>
      <point x="372" y="-68"/>
      <point x="328" y="-45"/>
      <point x="203" y="-45" type="curve" smooth="yes"/>
      <point x="116" y="-45"/>
      <point x="54" y="-15"/>
      <point x="54" y="63" type="curve"/>
      <point x="95" y="116"/>
      <point x="115" y="145"/>
    </contour>
    <contour>
      <point x="193" y="389" type="curve"/>
      <point x="166" y="370"/>
      <point x="158" y="325"/>
      <point x="158" y="293" type="curve" smooth="yes"/>
      <point x="158" y="240"/>
      <point x="196" y="173"/>
      <point x="252" y="173" type="curve"/>
      <point x="275" y="183"/>
      <point x="290" y="223"/>
      <point x="290" y="269" type="curve" smooth="yes"/>
      <point x="290" y="320"/>
      <point x="243" y="389"/>
    </contour>
    <contour>
      <point x="220" y="431" type="curve" smooth="yes"/>
      <point x="357" y="431"/>
      <point x="414" y="358"/>
      <point x="414" y="280" type="curve" smooth="yes"/>
      <point x="414" y="195"/>
      <point x="347" y="124"/>
      <point x="216" y="124" type="curve" smooth="yes"/>
      <point x="99" y="124"/>
      <point x="31" y="192"/>
      <point x="31" y="274" type="curve" smooth="yes"/>
      <point x="31" y="358"/>
      <point x="96" y="431"/>
    </contour>
    <contour>
      <point x="493" y="423" type="curve"/>
      <point x="493" y="390"/>
      <point x="491" y="343"/>
      <point x="491" y="325" type="curve"/>
      <point x="425" y="353"/>
      <point x="380" y="366"/>
      <point x="334" y="372" type="curve"/>
      <point x="287" y="410" type="line"/>
      <point x="351" y="418"/>
      <point x="459" y="423"/>
    </contour>
  </outline>
</glyph>
<glyph name="i" format="2">
  <advance width="305"/>
  <unicode hex="0069"/>
  <outline>
    <contour>
      <point x="230" y="435" type="curve"/>
      <point x="144" y="423"/>
      <point x="51" y="418"/>
      <point x="5" y="416" type="curve"/>
      <point x="20" y="378" type="line"/>
      <point x="91" y="365" type="line"/>
      <point x="96" y="294"/>
      <point x="96" y="272"/>
      <point x="97" y="226" type="curve" smooth="yes"/>
      <point x="98" y="167"/>
      <point x="97" y="124"/>
      <point x="95" y="58" type="curve"/>
      <point x="10" y="37" type="line"/>
      <point x="26" y="0" type="line"/>
      <point x="67" y="1"/>
      <point x="95" y="3"/>
      <point x="161" y="3" type="curve" smooth="yes"/>
      <point x="231" y="3"/>
      <point x="258" y="2"/>
      <point x="293" y="0" type="curve"/>
      <point x="310" y="37" type="line"/>
      <point x="230" y="58" type="line"/>
      <point x="228" y="107"/>
      <point x="226" y="179"/>
      <point x="226" y="228" type="curve" smooth="yes"/>
      <point x="226" y="285"/>
      <point x="228" y="358"/>
    </contour>
    <contour>
      <point x="155" y="509" type="curve" smooth="yes"/>
      <point x="197" y="509"/>
      <point x="233" y="545"/>
      <point x="233" y="592" type="curve" smooth="yes"/>
      <point x="233" y="636"/>
      <point x="197" y="673"/>
      <point x="155" y="673" type="curve" smooth="yes"/>
      <point x="112" y="673"/>
      <point x="77" y="636"/>
      <point x="77" y="592" type="curve" smooth="yes"/>
      <point x="77" y="545"/>
      <point x="112" y="509"/>
    </contour>
  </outline>
</glyph>
<glyph name="j" format="1">
  <advance width="285"/>
  <unicode hex="006A"/>
  <outline>
    <contour>
      <point x="230" y="433" type="curve"/>
      <point x="170" y="425"/>
      <point x="51" y="420"/>
      <point x="5" y="420" type="curve"/>
      <point x="17" y="378" type="line"/>
      <point x="86" y="367" type="line"/>
      <point x="91" y="296"/>
      <point x="97" y="193"/>
      <point x="97" y="149" type="curve" smooth="yes"/>
      <point x="98" y="32"/>
      <point x="100" y="-47"/>
      <point x="83" y="-110" type="curve" smooth="yes"/>
      <point x="70" y="-155"/>
      <point x="54" y="-186"/>
      <point x="7" y="-235" type="curve"/>
      <point x="44" y="-273" type="line"/>
      <point x="197" y="-169"/>
      <point x="228" y="-97"/>
      <point x="228" y="-15" type="curve" smooth="yes"/>
      <point x="228" y="50"/>
      <point x="227" y="179"/>
      <point x="227" y="228" type="curve" smooth="yes"/>
      <point x="227" y="285"/>
      <point x="228" y="362"/>
    </contour>
    <contour>
      <point x="155" y="509" type="curve" smooth="yes"/>
      <point x="197" y="509"/>
      <point x="233" y="545"/>
      <point x="233" y="592" type="curve" smooth="yes"/>
      <point x="233" y="636"/>
      <point x="197" y="673"/>
      <point x="155" y="673" type="curve" smooth="yes"/>
      <point x="113" y="673"/>
      <point x="77" y="632"/>
      <point x="77" y="592" type="curve" smooth="yes"/>
      <point x="77" y="545"/>
      <point x="112" y="509"/>
    </contour>
  </outline>
</glyph>
<glyph name="k" format="2">
  <advance width="599"/>
  <unicode hex="006B"/>
  <anchor x="295" y="0" name="bottom"/>
  <outline>
    <contour>
      <point x="232" y="745" type="curve"/>
      <point x="169" y="738"/>
      <point x="41" y="729"/>
      <point x="-5" y="727" type="curve"/>
      <point x="4" y="686" type="line"/>
      <point x="84" y="673" type="line"/>
      <point x="92" y="573"/>
      <point x="94" y="442"/>
      <point x="94" y="293" type="curve" smooth="yes"/>
      <point x="94" y="213"/>
      <point x="92" y="133"/>
      <point x="88" y="58" type="curve"/>
      <point x="2" y="37" type="line"/>
      <point x="19" y="0" type="line"/>
      <point x="63" y="2"/>
      <point x="104" y="3"/>
      <point x="157" y="3" type="curve" smooth="yes"/>
      <point x="204" y="3"/>
      <point x="238" y="2"/>
      <point x="288" y="0" type="curve"/>
      <point x="303" y="37" type="line"/>
      <point x="235" y="58" type="line"/>
      <point x="230" y="264" type="line"/>
      <point x="231" y="426"/>
      <point x="232" y="677"/>
    </contour>
    <contour>
      <point x="240" y="219" type="curve"/>
      <point x="287" y="137"/>
      <point x="318" y="69"/>
      <point x="357" y="0" type="curve"/>
      <point x="389" y="2"/>
      <point x="420" y="2"/>
      <point x="458" y="2" type="curve" smooth="yes"/>
      <point x="497" y="2"/>
      <point x="526" y="2"/>
      <point x="564" y="0" type="curve"/>
      <point x="574" y="37" type="line"/>
      <point x="497" y="58" type="line"/>
      <point x="436" y="132"/>
      <point x="414" y="170"/>
      <point x="353" y="272" type="curve"/>
      <point x="318" y="219" type="line"/>
      <point x="374" y="273"/>
      <point x="397" y="298"/>
      <point x="474" y="364" type="curve"/>
      <point x="557" y="384" type="line"/>
      <point x="543" y="421" type="line"/>
      <point x="508" y="419"/>
      <point x="467" y="418"/>
      <point x="426" y="418" type="curve" smooth="yes"/>
      <point x="378" y="418"/>
      <point x="341" y="419"/>
      <point x="300" y="421" type="curve"/>
      <point x="288" y="384" type="line"/>
      <point x="371" y="363" type="line"/>
      <point x="325" y="296"/>
      <point x="291" y="270"/>
    </contour>
  </outline>
</glyph>
<glyph name="l" format="1">
  <advance width="319"/>
  <unicode hex="006C"/>
  <outline>
    <contour>
      <point x="232" y="745" type="curve"/>
      <point x="145" y="733"/>
      <point x="41" y="728"/>
      <point x="-5" y="725" type="curve"/>
      <point x="5" y="686" type="line"/>
      <point x="91" y="672" type="line"/>
      <point x="98" y="518"/>
      <point x="99" y="272"/>
      <point x="95" y="58" type="curve"/>
      <point x="16" y="37" type="line"/>
      <point x="35" y="0" type="line"/>
      <point x="76" y="1"/>
      <point x="99" y="3"/>
      <point x="166" y="3" type="curve" smooth="yes"/>
      <point x="239" y="3"/>
      <point x="259" y="2"/>
      <point x="295" y="0" type="curve"/>
      <point x="314" y="37" type="line"/>
      <point x="235" y="58" type="line"/>
      <point x="231" y="276"/>
      <point x="231" y="518"/>
    </contour>
    <contour>
      <point x="166" y="0" type="move" name="bottom"/>
    </contour>
    <contour>
      <point x="152" y="734" type="move" name="top"/>
    </contour>
    <contour>
      <point x="309" y="434" type="move" name="topright"/>
    </contour>
  </outline>
</glyph>
<glyph name="m" format="2">
  <advance width="925"/>
  <unicode hex="006D"/>
  <anchor x="467" y="0" name="bottom"/>
  <anchor x="469" y="430" name="top"/>
  <outline>
    <contour>
      <point x="398" y="435" type="curve" smooth="yes"/>
      <point x="291" y="435"/>
      <point x="210" y="347"/>
      <point x="197" y="232" type="curve"/>
      <point x="234" y="190" type="line"/>
      <point x="233" y="238"/>
      <point x="252" y="301"/>
      <point x="311" y="340" type="curve"/>
      <point x="374" y="340"/>
      <point x="405" y="311"/>
      <point x="406" y="214" type="curve" smooth="yes"/>
      <point x="407" y="150"/>
      <point x="405" y="125"/>
      <point x="403" y="58" type="curve"/>
      <point x="329" y="37" type="line"/>
      <point x="343" y="0" type="line"/>
      <point x="378" y="1"/>
      <point x="419" y="3"/>
      <point x="465" y="3" type="curve" smooth="yes"/>
      <point x="513" y="3"/>
      <point x="559" y="2"/>
      <point x="595" y="0" type="curve"/>
      <point x="609" y="37" type="line"/>
      <point x="535" y="58" type="line"/>
      <point x="534" y="134"/>
      <point x="539" y="242"/>
      <point x="536" y="278" type="curve" smooth="yes"/>
      <point x="531" y="372"/>
      <point x="479" y="435"/>
    </contour>
    <contour>
      <point x="234" y="438" type="curve"/>
      <point x="147" y="426"/>
      <point x="79" y="423"/>
      <point x="12" y="420" type="curve"/>
      <point x="24" y="378" type="line"/>
      <point x="98" y="366" type="line"/>
      <point x="104" y="295"/>
      <point x="106" y="270"/>
      <point x="106" y="211" type="curve" smooth="yes"/>
      <point x="106" y="160"/>
      <point x="104" y="136"/>
      <point x="102" y="58" type="curve"/>
      <point x="27" y="37" type="line"/>
      <point x="43" y="0" type="line"/>
      <point x="83" y="1"/>
      <point x="116" y="3"/>
      <point x="163" y="3" type="curve" smooth="yes"/>
      <point x="210" y="3"/>
      <point x="251" y="2"/>
      <point x="295" y="0" type="curve"/>
      <point x="308" y="37" type="line"/>
      <point x="235" y="58" type="line"/>
      <point x="233" y="286" type="line"/>
      <point x="234" y="354"/>
      <point x="234" y="371"/>
    </contour>
    <contour>
      <point x="701" y="435" type="curve" smooth="yes"/>
      <point x="595" y="435"/>
      <point x="514" y="347"/>
      <point x="500" y="232" type="curve"/>
      <point x="536" y="190" type="line"/>
      <point x="536" y="238"/>
      <point x="556" y="301"/>
      <point x="614" y="340" type="curve"/>
      <point x="678" y="340"/>
      <point x="709" y="311"/>
      <point x="710" y="214" type="curve" smooth="yes"/>
      <point x="710" y="150"/>
      <point x="709" y="125"/>
      <point x="706" y="58" type="curve"/>
      <point x="633" y="37" type="line"/>
      <point x="647" y="0" type="line"/>
      <point x="681" y="1"/>
      <point x="722" y="3"/>
      <point x="768" y="3" type="curve" smooth="yes"/>
      <point x="816" y="3"/>
      <point x="862" y="2"/>
      <point x="898" y="0" type="curve"/>
      <point x="913" y="37" type="line"/>
      <point x="839" y="58" type="line"/>
      <point x="837" y="134"/>
      <point x="842" y="242"/>
      <point x="840" y="278" type="curve" smooth="yes"/>
      <point x="835" y="372"/>
      <point x="783" y="435"/>
    </contour>
  </outline>
</glyph>
<glyph name="n" format="1">
  <advance width="623"/>
  <unicode hex="006E"/>
  <outline>
    <contour>
      <point x="404" y="435" type="curve" smooth="yes"/>
      <point x="298" y="435"/>
      <point x="216" y="351"/>
      <point x="203" y="237" type="curve"/>
      <point x="240" y="193" type="line"/>
      <point x="238" y="243"/>
      <point x="264" y="305"/>
      <point x="323" y="344" type="curve"/>
      <point x="377" y="332"/>
      <point x="406" y="299"/>
      <point x="407" y="218" type="curve" smooth="yes"/>
      <point x="408" y="154"/>
      <point x="406" y="125"/>
      <point x="404" y="58" type="curve"/>
      <point x="331" y="37" type="line"/>
      <point x="344" y="0" type="line"/>
      <point x="379" y="1"/>
      <point x="419" y="3"/>
      <point x="471" y="3" type="curve" smooth="yes"/>
      <point x="514" y="3"/>
      <point x="560" y="2"/>
      <point x="595" y="0" type="curve"/>
      <point x="611" y="37" type="line"/>
      <point x="536" y="58" type="line"/>
      <point x="535" y="134"/>
      <point x="540" y="245"/>
      <point x="538" y="281" type="curve" smooth="yes"/>
      <point x="533" y="372"/>
      <point x="480" y="435"/>
    </contour>
    <contour>
      <point x="241" y="440" type="curve"/>
      <point x="154" y="430"/>
      <point x="90" y="423"/>
      <point x="12" y="419" type="curve"/>
      <point x="24" y="381" type="line"/>
      <point x="102" y="362" type="line"/>
      <point x="110" y="291"/>
      <point x="111" y="274"/>
      <point x="111" y="216" type="curve" smooth="yes"/>
      <point x="111" y="164"/>
      <point x="106" y="101"/>
      <point x="106" y="58" type="curve"/>
      <point x="31" y="37" type="line"/>
      <point x="47" y="0" type="line"/>
      <point x="86" y="1"/>
      <point x="120" y="3"/>
      <point x="172" y="3" type="curve" smooth="yes"/>
      <point x="220" y="3"/>
      <point x="257" y="2"/>
      <point x="302" y="0" type="curve"/>
      <point x="315" y="37" type="line"/>
      <point x="242" y="58" type="line"/>
      <point x="238" y="291" type="line"/>
      <point x="241" y="358"/>
      <point x="241" y="373"/>
    </contour>
    <contour>
      <point x="312" y="0" type="move" name="bottom"/>
    </contour>
    <contour>
      <point x="312" y="434" type="move" name="top"/>
    </contour>
  </outline>
</glyph>
<glyph name="p" format="2">
  <advance width="582"/>
  <unicode hex="0070"/>
  <outline>
    <contour>
      <point x="239" y="435" type="curve"/>
      <point x="178" y="423"/>
      <point x="58" y="421"/>
      <point x="12" y="419" type="curve"/>
      <point x="23" y="378" type="line"/>
      <point x="107" y="363" type="line"/>
      <point x="114" y="223"/>
      <point x="115" y="154"/>
      <point x="115" y="63" type="curve" smooth="yes"/>
      <point x="115" y="15"/>
      <point x="115" y="-149"/>
      <point x="111" y="-201" type="curve"/>
      <point x="32" y="-221" type="line"/>
      <point x="47" y="-260" type="line"/>
      <point x="86" y="-258"/>
      <point x="121" y="-256"/>
      <point x="187" y="-256" type="curve" smooth="yes"/>
      <point x="246" y="-256"/>
      <point x="302" y="-257"/>
      <point x="337" y="-260" type="curve"/>
      <point x="351" y="-221" type="line"/>
      <point x="251" y="-197" type="line"/>
      <point x="247" y="16"/>
      <point x="246" y="102"/>
      <point x="246" y="192" type="curve" smooth="yes"/>
      <point x="246" y="238"/>
      <point x="246" y="278"/>
      <point x="247" y="321" type="curve"/>
      <point x="245" y="347"/>
      <point x="241" y="387"/>
    </contour>
    <contour>
      <point x="385" y="436" type="curve" smooth="yes"/>
      <point x="311" y="436"/>
      <point x="235" y="386"/>
      <point x="218" y="291" type="curve"/>
      <point x="246" y="224" type="line"/>
      <point x="246" y="291"/>
      <point x="298" y="358"/>
      <point x="327" y="365" type="curve"/>
      <point x="392" y="356"/>
      <point x="422" y="280"/>
      <point x="422" y="208" type="curve" smooth="yes"/>
      <point x="422" y="135"/>
      <point x="392" y="65"/>
      <point x="332" y="65" type="curve" smooth="yes"/>
      <point x="280" y="65"/>
      <point x="231" y="104"/>
      <point x="211" y="147" type="curve"/>
      <point x="190" y="105" type="line"/>
      <point x="230" y="41"/>
      <point x="285" y="-5"/>
      <point x="358" y="-5" type="curve" smooth="yes"/>
      <point x="492" y="-5"/>
      <point x="557" y="110"/>
      <point x="557" y="224" type="curve" smooth="yes"/>
      <point x="557" y="331"/>
      <point x="499" y="436"/>
    </contour>
  </outline>
</glyph>
<glyph name="q" format="2">
  <advance width="530"/>
  <unicode hex="0071"/>
  <outline>
    <contour>
      <point x="463" y="434" type="curve"/>
      <point x="402" y="434" type="line"/>
      <point x="368" y="405"/>
      <point x="358" y="398"/>
      <point x="323" y="367" type="curve"/>
      <point x="325" y="321"/>
      <point x="325" y="265"/>
      <point x="325" y="205" type="curve" smooth="yes"/>
      <point x="325" y="72"/>
      <point x="322" y="-60"/>
      <point x="321" y="-198" type="curve"/>
      <point x="223" y="-221" type="line"/>
      <point x="235" y="-260" type="line"/>
      <point x="275" y="-258"/>
      <point x="348" y="-256"/>
      <point x="389" y="-256" type="curve" smooth="yes"/>
      <point x="458" y="-256"/>
      <point x="492" y="-257"/>
      <point x="527" y="-260" type="curve"/>
      <point x="540" y="-221" type="line"/>
      <point x="461" y="-201" type="line"/>
      <point x="459" y="-117"/>
      <point x="458" y="-58"/>
      <point x="458" y="24" type="curve" smooth="yes"/>
      <point x="458" y="152"/>
      <point x="460" y="285"/>
    </contour>
    <contour>
      <point x="205" y="436" type="curve" smooth="yes"/>
      <point x="118" y="436"/>
      <point x="21" y="363"/>
      <point x="21" y="221" type="curve" smooth="yes"/>
      <point x="21" y="69"/>
      <point x="114" y="-7"/>
      <point x="205" y="-7" type="curve" smooth="yes"/>
      <point x="296" y="-7"/>
      <point x="357" y="64"/>
      <point x="393" y="162" type="curve"/>
      <point x="362" y="207" type="line"/>
      <point x="346" y="124"/>
      <point x="298" y="69"/>
      <point x="252" y="69" type="curve" smooth="yes"/>
      <point x="203" y="69"/>
      <point x="157" y="118"/>
      <point x="157" y="219" type="curve" smooth="yes"/>
      <point x="157" y="294"/>
      <point x="188" y="357"/>
      <point x="242" y="373" type="curve"/>
      <point x="280" y="365"/>
      <point x="326" y="310"/>
      <point x="326" y="240" type="curve"/>
      <point x="357" y="325" type="line"/>
      <point x="327" y="395"/>
      <point x="278" y="436"/>
    </contour>
  </outline>
</glyph>
<glyph name="r" format="1">
  <advance width="482"/>
  <unicode hex="0072"/>
  <outline>
    <contour>
      <point x="228" y="434" type="curve"/>
      <point x="167" y="423"/>
      <point x="62" y="418"/>
      <point x="16" y="416" type="curve"/>
      <point x="30" y="374" type="line"/>
      <point x="98" y="363" type="line"/>
      <point x="104" y="291"/>
      <point x="104" y="261"/>
      <point x="104" y="216" type="curve" smooth="yes"/>
      <point x="104" y="160"/>
      <point x="104" y="118"/>
      <point x="104" y="58" type="curve"/>
      <point x="23" y="37" type="line"/>
      <point x="38" y="0" type="line"/>
      <point x="78" y="1"/>
      <point x="130" y="3"/>
      <point x="171" y="3" type="curve" smooth="yes"/>
      <point x="218" y="3"/>
      <point x="294" y="2"/>
      <point x="328" y="0" type="curve"/>
      <point x="343" y="37" type="line"/>
      <point x="244" y="62" type="line"/>
      <point x="237" y="289" type="line"/>
      <point x="237" y="307"/>
      <point x="230" y="387"/>
    </contour>
    <contour>
      <point x="362" y="436" type="curve" smooth="yes"/>
      <point x="280" y="436"/>
      <point x="216" y="341"/>
      <point x="200" y="229" type="curve"/>
      <point x="239" y="171" type="line"/>
      <point x="239" y="267"/>
      <point x="275" y="325"/>
      <point x="309" y="346" type="curve"/>
      <point x="339" y="333"/>
      <point x="357" y="293"/>
      <point x="366" y="244" type="curve"/>
      <point x="422" y="244" type="line"/>
      <point x="440" y="305"/>
      <point x="448" y="331"/>
      <point x="460" y="392" type="curve"/>
      <point x="431" y="423"/>
      <point x="399" y="436"/>
    </contour>
    <contour>
      <point x="171" y="0" type="move" name="bottom"/>
    </contour>
    <contour>
      <point x="260" y="430" type="move" name="top"/>
    </contour>
  </outline>
</glyph>
<glyph name="s" format="2">
  <advance width="387"/>
  <unicode hex="0073"/>
  <anchor x="198" y="0" name="bottom"/>
  <anchor x="198" y="434" name="top"/>
  <outline>
    <contour>
      <point x="26" y="26" type="curve"/>
      <point x="75" y="-1"/>
      <point x="128" y="-10"/>
      <point x="179" y="-10" type="curve" smooth="yes"/>
      <point x="279" y="-10"/>
      <point x="367" y="24"/>
      <point x="367" y="120" type="curve" smooth="yes"/>
      <point x="367" y="285"/>
      <point x="143" y="253"/>
      <point x="143" y="340" type="curve" smooth="yes"/>
      <point x="143" y="370"/>
      <point x="172" y="383"/>
      <point x="202" y="383" type="curve" smooth="yes"/>
      <point x="228" y="383"/>
      <point x="250" y="374"/>
      <point x="261" y="359" type="curve"/>
      <point x="274" y="291" type="line"/>
      <point x="326" y="290" type="line"/>
      <point x="333" y="325"/>
      <point x="341" y="358"/>
      <point x="352" y="405" type="curve"/>
      <point x="311" y="425"/>
      <point x="257" y="436"/>
      <point x="210" y="436" type="curve" smooth="yes"/>
      <point x="119" y="436"/>
      <point x="34" y="402"/>
      <point x="34" y="300" type="curve" smooth="yes"/>
      <point x="34" y="152"/>
      <point x="246" y="177"/>
      <point x="246" y="93" type="curve" smooth="yes"/>
      <point x="246" y="60"/>
      <point x="215" y="44"/>
      <point x="182" y="44" type="curve" smooth="yes"/>
      <point x="158" y="44"/>
      <point x="132" y="52"/>
      <point x="115" y="67" type="curve"/>
      <point x="99" y="145" type="line"/>
      <point x="49" y="145" type="line"/>
      <point x="43" y="105"/>
      <point x="36" y="76"/>
    </contour>
  </outline>
</glyph>
<glyph name="t" format="1">
  <advance width="346"/>
  <unicode hex="0074"/>
  <outline>
    <contour>
      <point x="200" y="552" type="curve"/>
      <point x="187" y="552"/>
      <point x="165" y="552"/>
      <point x="153" y="552" type="curve"/>
      <point x="122" y="505"/>
      <point x="102" y="476"/>
      <point x="73" y="437" type="curve"/>
      <point x="46" y="430"/>
      <point x="27" y="425"/>
      <point x="-5" y="420" type="curve"/>
      <point x="-2" y="404"/>
      <point x="72" y="395"/>
      <point x="74" y="365" type="curve" smooth="yes"/>
      <point x="74" y="371"/>
      <point x="68" y="91"/>
      <point x="68" y="96" type="curve" smooth="yes"/>
      <point x="68" y="15"/>
      <point x="115" y="-10"/>
      <point x="162" y="-10" type="curve" smooth="yes"/>
      <point x="244" y="-10"/>
      <point x="301" y="37"/>
      <point x="352" y="80" type="curve"/>
      <point x="332" y="120" type="line"/>
      <point x="291" y="95"/>
      <point x="268" y="89"/>
      <point x="246" y="89" type="curve" smooth="yes"/>
      <point x="214" y="89"/>
      <point x="200" y="106"/>
      <point x="198" y="156" type="curve" smooth="yes"/>
      <point x="196" y="200"/>
      <point x="193" y="434"/>
    </contour>
    <contour>
      <point x="338" y="421" type="line"/>
      <point x="-5" y="420" type="line"/>
      <point x="-5" y="368" type="line"/>
      <point x="338" y="348" type="line"/>
    </contour>
    <contour>
      <point x="177" y="0" type="move" name="bottom"/>
    </contour>
    <contour>
      <point x="177" y="218" type="move" name="center"/>
    </contour>
    <contour>
      <point x="333" y="434" type="move" name="topright"/>
    </contour>
  </outline>
</glyph>
<glyph name="u" format="2">
  <advance width="611"/>
  <unicode hex="0075"/>
  <anchor x="552" y="-2" name="ogonek"/>
  <anchor x="302" y="434" name="top"/>
  <outline>
    <contour>
      <point x="230" y="-17" type="curve"/>
      <point x="330" y="-17"/>
      <point x="402" y="73"/>
      <point x="415" y="171" type="curve"/>
      <point x="389" y="256" type="line"/>
      <point x="389" y="177"/>
      <point x="344" y="87"/>
      <point x="297" y="78" type="curve"/>
      <point x="266" y="78"/>
      <point x="227" y="103"/>
      <point x="223" y="180" type="curve" smooth="yes"/>
      <point x="217" y="283"/>
      <point x="222" y="341"/>
      <point x="227" y="434" type="curve"/>
      <point x="162" y="425"/>
      <point x="84" y="419"/>
      <point x="7" y="419" type="curve"/>
      <point x="19" y="378" type="line"/>
      <point x="90" y="367" type="line"/>
      <point x="88" y="263"/>
      <point x="88" y="197"/>
      <point x="91" y="151" type="curve" smooth="yes"/>
      <point x="97" y="41"/>
      <point x="146" y="-17"/>
    </contour>
    <contour>
      <point x="397" y="0" type="curve"/>
      <point x="416" y="0"/>
      <point x="454" y="2"/>
      <point x="474" y="2" type="curve" smooth="yes"/>
      <point x="521" y="2"/>
      <point x="545" y="2"/>
      <point x="580" y="0" type="curve"/>
      <point x="599" y="37" type="line"/>
      <point x="524" y="58" type="line"/>
      <point x="519" y="130"/>
      <point x="515" y="162"/>
      <point x="514" y="207" type="curve" smooth="yes"/>
      <point x="514" y="207"/>
      <point x="519" y="433"/>
      <point x="519" y="434" type="curve"/>
      <point x="452" y="425"/>
      <point x="379" y="419"/>
      <point x="300" y="419" type="curve"/>
      <point x="312" y="378" type="line"/>
      <point x="384" y="366" type="line"/>
      <point x="390" y="145" type="line"/>
      <point x="391" y="82"/>
      <point x="395" y="40"/>
    </contour>
  </outline>
</glyph>
<glyph name="v" format="2">
  <advance width="579"/>
  <unicode hex="0076"/>
  <outline>
    <contour>
      <point x="286" y="419" type="line"/>
      <point x="250" y="418"/>
      <point x="201" y="416"/>
      <point x="145" y="416" type="curve" smooth="yes"/>
      <point x="94" y="416"/>
      <point x="60" y="418"/>
      <point x="20" y="419" type="curve"/>
      <point x="10" y="381" type="line"/>
      <point x="77" y="359" type="line"/>
      <point x="154" y="217"/>
      <point x="192" y="138"/>
      <point x="265" y="-9" type="curve"/>
      <point x="286" y="-9"/>
      <point x="348" y="91"/>
      <point x="343" y="118" type="curve"/>
      <point x="279" y="233"/>
      <point x="269" y="260"/>
      <point x="227" y="359" type="curve"/>
      <point x="303" y="381" type="line"/>
    </contour>
    <contour>
      <point x="563" y="419" type="line"/>
      <point x="527" y="418"/>
      <point x="505" y="416"/>
      <point x="460" y="416" type="curve" smooth="yes"/>
      <point x="425" y="416"/>
      <point x="395" y="418"/>
      <point x="353" y="419" type="curve"/>
      <point x="338" y="381" type="line"/>
      <point x="415" y="359" type="line"/>
      <point x="374" y="219"/>
      <point x="321" y="105"/>
      <point x="265" y="-9" type="curve"/>
      <point x="336" y="-9" type="line"/>
      <point x="394" y="123"/>
      <point x="428" y="217"/>
      <point x="504" y="359" type="curve"/>
      <point x="579" y="381" type="line"/>
    </contour>
  </outline>
</glyph>
<glyph name="w" format="1">
  <advance width="794"/>
  <unicode hex="0077"/>
  <outline>
    <contour>
      <point x="292" y="419" type="line"/>
      <point x="256" y="417"/>
      <point x="207" y="416"/>
      <point x="150" y="416" type="curve" smooth="yes"/>
      <point x="104" y="416"/>
      <point x="66" y="418"/>
      <point x="26" y="419" type="curve"/>
      <point x="10" y="381" type="line"/>
      <point x="86" y="360" type="line"/>
      <point x="146" y="234"/>
      <point x="188" y="138"/>
      <point x="246" y="-9" type="curve"/>
      <point x="268" y="-9"/>
      <point x="328" y="90"/>
      <point x="329" y="117" type="curve"/>
      <point x="282" y="222"/>
      <point x="268" y="260"/>
      <point x="236" y="360" type="curve"/>
      <point x="307" y="381" type="line"/>
    </contour>
    <contour>
      <point x="391" y="424" type="line"/>
      <point x="363" y="304"/>
      <point x="301" y="117"/>
      <point x="246" y="-9" type="curve"/>
      <point x="305" y="-9" type="line"/>
      <point x="345" y="98"/>
      <point x="389" y="212"/>
      <point x="436" y="317" type="curve"/>
      <point x="445" y="423" type="line"/>
    </contour>
    <contour>
      <point x="525" y="214"/>
      <point x="497" y="285"/>
      <point x="445" y="423" type="curve"/>
      <point x="366" y="275" type="line"/>
      <point x="417" y="179"/>
      <point x="439" y="115"/>
      <point x="486" y="-9" type="curve"/>
      <point x="509" y="-9"/>
      <point x="574" y="70"/>
      <point x="574" y="98" type="curve"/>
    </contour>
    <contour>
      <point x="767" y="419" type="line"/>
      <point x="731" y="417"/>
      <point x="708" y="416"/>
      <point x="663" y="416" type="curve" smooth="yes"/>
      <point x="627" y="416"/>
      <point x="591" y="417"/>
      <point x="550" y="419" type="curve"/>
      <point x="535" y="381" type="line"/>
      <point x="615" y="360" type="line"/>
      <point x="585" y="228"/>
      <point x="533" y="97"/>
      <point x="486" y="-9" type="curve"/>
      <point x="544" y="-9" type="line"/>
      <point x="596" y="123"/>
      <point x="641" y="225"/>
      <point x="702" y="360" type="curve"/>
      <point x="784" y="381" type="line"/>
    </contour>
    <contour>
      <point x="405" y="434" type="move" name="top"/>
    </contour>
  </outline>
</glyph>
<glyph name="x" format="2">
  <advance width="530"/>
  <unicode hex="0078"/>
  <outline>
    <contour>
      <point x="258" y="419" type="line"/>
      <point x="222" y="417"/>
      <point x="185" y="416"/>
      <point x="144" y="416" type="curve" smooth="yes"/>
      <point x="102" y="416"/>
      <point x="52" y="418"/>
      <point x="12" y="419" type="curve"/>
      <point x="0" y="381" type="line"/>
      <point x="76" y="359" type="line"/>
      <point x="173" y="227"/>
      <point x="217" y="162"/>
      <point x="300" y="57" type="curve"/>
      <point x="247" y="38" type="line"/>
      <point x="264" y="0" type="line"/>
      <point x="300" y="2"/>
      <point x="336" y="3"/>
      <point x="402" y="3" type="curve" smooth="yes"/>
      <point x="449" y="3"/>
      <point x="477" y="2"/>
      <point x="517" y="0" type="curve"/>
      <point x="530" y="38" type="line"/>
      <point x="461" y="60" type="line"/>
      <point x="360" y="175"/>
      <point x="302" y="252"/>
      <point x="229" y="362" type="curve"/>
      <point x="275" y="381" type="line"/>
    </contour>
    <contour>
      <point x="282" y="192" type="curve"/>
      <point x="245" y="247" type="line"/>
      <point x="187" y="180"/>
      <point x="123" y="96"/>
      <point x="87" y="60" type="curve"/>
      <point x="0" y="38" type="line"/>
      <point x="16" y="0" type="line"/>
      <point x="52" y="3"/>
      <point x="74" y="3"/>
      <point x="119" y="3" type="curve" smooth="yes"/>
      <point x="162" y="3"/>
      <point x="182" y="2"/>
      <point x="224" y="0" type="curve"/>
      <point x="239" y="38" type="line"/>
      <point x="177" y="60" type="line"/>
      <point x="198" y="85"/>
      <point x="237" y="141"/>
    </contour>
    <contour>
      <point x="242" y="227" type="curve"/>
      <point x="279" y="172" type="line"/>
      <point x="332" y="233"/>
      <point x="392" y="312"/>
      <point x="433" y="359" type="curve"/>
      <point x="509" y="381" type="line"/>
      <point x="493" y="419" type="line"/>
      <point x="457" y="417"/>
      <point x="435" y="416"/>
      <point x="390" y="416" type="curve" smooth="yes"/>
      <point x="350" y="416"/>
      <point x="331" y="417"/>
      <point x="298" y="419" type="curve"/>
      <point x="283" y="381" type="line"/>
      <point x="345" y="359" type="line"/>
      <point x="325" y="336"/>
      <point x="286" y="278"/>
    </contour>
  </outline>
</glyph>
<glyph name="y" format="2">
  <advance width="586"/>
  <unicode hex="0079"/>
  <anchor x="318" y="430" name="top"/>
  <outline>
    <contour>
      <point x="571" y="421" type="line"/>
      <point x="535" y="419"/>
      <point x="499" y="419"/>
      <point x="463" y="419" type="curve" smooth="yes"/>
      <point x="428" y="419"/>
      <point x="398" y="419"/>
      <point x="357" y="421" type="curve"/>
      <point x="343" y="383" type="line"/>
      <point x="421" y="364" type="line"/>
      <point x="362" y="172"/>
      <point x="242" y="-81"/>
      <point x="167" y="-188" type="curve"/>
      <point x="50" y="-220" type="line"/>
      <point x="66" y="-260" type="line"/>
      <point x="97" y="-258"/>
      <point x="172" y="-256"/>
      <point x="221" y="-256" type="curve" smooth="yes"/>
      <point x="269" y="-256"/>
      <point x="319" y="-258"/>
      <point x="351" y="-260" type="curve"/>
      <point x="367" y="-221" type="line"/>
      <point x="275" y="-190" type="line"/>
      <point x="328" y="-14"/>
      <point x="419" y="170"/>
      <point x="509" y="364" type="curve"/>
      <point x="586" y="383" type="line"/>
    </contour>
    <contour>
      <point x="284" y="420" type="line"/>
      <point x="249" y="419"/>
      <point x="200" y="417"/>
      <point x="144" y="417" type="curve" smooth="yes"/>
      <point x="92" y="417"/>
      <point x="54" y="419"/>
      <point x="14" y="420" type="curve"/>
      <point x="0" y="382" type="line"/>
      <point x="76" y="362" type="line"/>
      <point x="149" y="219"/>
      <point x="191" y="133"/>
      <point x="265" y="-31" type="curve"/>
      <point x="287" y="-31"/>
      <point x="339" y="86"/>
      <point x="333" y="113" type="curve"/>
      <point x="276" y="228"/>
      <point x="263" y="263"/>
      <point x="230" y="362" type="curve"/>
      <point x="302" y="382" type="line"/>
    </contour>
  </outline>
</glyph>
<glyph name="z" format="2">
  <advance width="420"/>
  <unicode hex="007A"/>
  <anchor x="217" y="430" name="top"/>
  <outline>
    <contour>
      <point x="39" y="0" type="curve"/>
      <point x="75" y="2"/>
      <point x="138" y="2"/>
      <point x="203" y="2" type="curve" smooth="yes"/>
      <point x="269" y="2"/>
      <point x="338" y="2"/>
      <point x="385" y="0" type="curve"/>
      <point x="390" y="47"/>
      <point x="401" y="98"/>
      <point x="410" y="139" type="curve"/>
      <point x="356" y="152" type="line"/>
      <point x="341" y="123"/>
      <point x="328" y="98"/>
      <point x="310" y="75" type="curve"/>
      <point x="280" y="61"/>
      <point x="243" y="56"/>
      <point x="216" y="56" type="curve" smooth="yes"/>
      <point x="207" y="56"/>
      <point x="198" y="57"/>
      <point x="192" y="58" type="curve"/>
      <point x="212" y="109"/>
      <point x="332" y="290"/>
      <point x="402" y="382" type="curve"/>
      <point x="398" y="393"/>
      <point x="388" y="411"/>
      <point x="380" y="420" type="curve"/>
      <point x="317" y="418"/>
      <point x="266" y="417"/>
      <point x="217" y="417" type="curve" smooth="yes"/>
      <point x="157" y="417" type="line" smooth="yes"/>
      <point x="119" y="417"/>
      <point x="82" y="417"/>
      <point x="36" y="420" type="curve"/>
      <point x="36" y="384"/>
      <point x="32" y="320"/>
      <point x="27" y="272" type="curve"/>
      <point x="82" y="272" type="line"/>
      <point x="92" y="300"/>
      <point x="106" y="331"/>
      <point x="116" y="348" type="curve"/>
      <point x="135" y="356"/>
      <point x="178" y="361"/>
      <point x="213" y="361" type="curve" smooth="yes"/>
      <point x="221" y="361"/>
      <point x="229" y="361"/>
      <point x="236" y="360" type="curve"/>
      <point x="189" y="287"/>
      <point x="101" y="150"/>
      <point x="16" y="37" type="curve"/>
      <point x="20" y="23"/>
      <point x="27" y="10"/>
    </contour>
  </outline>
</glyph>
<glyph name="braceleft" format="1">
  <advance width="265"/>
  <unicode hex="007B"/>
  <outline>
    <contour>
      <point x="20" y="381" type="curve"/>
      <point x="20" y="357" type="line"/>
      <point x="53" y="346"/>
      <point x="77" y="325"/>
      <point x="77" y="292" type="curve" smooth="yes"/>
      <point x="77" y="200"/>
      <point x="40" y="139"/>
      <point x="40" y="84" type="curve" smooth="yes"/>
      <point x="40" y="32"/>
      <point x="81" y="-13"/>
      <point x="208" y="-75" type="curve"/>
      <point x="217" y="-64"/>
      <point x="223" y="-54"/>
      <point x="230" y="-40" type="curve"/>
      <point x="187" y="-14"/>
      <point x="173" y="14"/>
      <point x="173" y="46" type="curve" smooth="yes"/>
      <point x="173" y="100"/>
      <point x="211" y="163"/>
      <point x="211" y="238" type="curve" smooth="yes"/>
      <point x="211" y="301"/>
      <point x="134" y="340"/>
      <point x="96" y="369" type="curve"/>
      <point x="134" y="398"/>
      <point x="211" y="437"/>
      <point x="211" y="500" type="curve" smooth="yes"/>
      <point x="211" y="575"/>
      <point x="173" y="638"/>
      <point x="173" y="692" type="curve" smooth="yes"/>
      <point x="173" y="724"/>
      <point x="187" y="752"/>
      <point x="230" y="778" type="curve"/>
      <point x="223" y="792"/>
      <point x="217" y="802"/>
      <point x="208" y="813" type="curve"/>
      <point x="81" y="751"/>
      <point x="40" y="706"/>
      <point x="40" y="654" type="curve" smooth="yes"/>
      <point x="40" y="599"/>
      <point x="77" y="538"/>
      <point x="77" y="446" type="curve" smooth="yes"/>
      <point x="77" y="413"/>
      <point x="53" y="392"/>
    </contour>
  </outline>
</glyph>
<glyph name="cent" format="2">
  <advance width="433"/>
  <unicode hex="00A2"/>
  <outline>
    <contour>
      <point x="275" y="-90" type="line"/>
      <point x="268" y="147"/>
      <point x="268" y="274"/>
      <point x="275" y="511" type="curve"/>
      <point x="212" y="511" type="line"/>
      <point x="219" y="274"/>
      <point x="219" y="147"/>
      <point x="212" y="-90" type="curve"/>
    </contour>
    <component base="c"/>
  </outline>
</glyph>
<glyph name="sterling" format="2">
  <advance width="639"/>
  <unicode hex="00A3"/>
  <outline>
    <contour>
      <point x="589" y="0" type="line"/>
      <point x="584" y="70"/>
      <point x="581" y="140"/>
      <point x="580" y="210" type="curve"/>
      <point x="516" y="210" type="line"/>
      <point x="492" y="89" type="line"/>
      <point x="458" y="70"/>
      <point x="411" y="64"/>
      <point x="363" y="64" type="curve" smooth="yes"/>
      <point x="318" y="64"/>
      <point x="272" y="70"/>
      <point x="239" y="74" type="curve"/>
      <point x="292" y="99"/>
      <point x="343" y="141"/>
      <point x="343" y="194" type="curve" smooth="yes"/>
      <point x="343" y="310"/>
      <point x="270" y="407"/>
      <point x="270" y="513" type="curve" smooth="yes"/>
      <point x="270" y="547"/>
      <point x="278" y="582"/>
      <point x="299" y="619" type="curve"/>
      <point x="388" y="613"/>
      <point x="437" y="567"/>
      <point x="459" y="478" type="curve"/>
      <point x="513" y="478" type="line"/>
      <point x="535" y="512"/>
      <point x="549" y="565"/>
      <point x="552" y="615" type="curve"/>
      <point x="493" y="661"/>
      <point x="426" y="671"/>
      <point x="364" y="671" type="curve" smooth="yes"/>
      <point x="238" y="671"/>
      <point x="131" y="596"/>
      <point x="131" y="464" type="curve" smooth="yes"/>
      <point x="131" y="363"/>
      <point x="202" y="256"/>
      <point x="202" y="171" type="curve" smooth="yes"/>
      <point x="202" y="126"/>
      <point x="189" y="87"/>
      <point x="160" y="60" type="curve"/>
      <point x="71" y="38" type="line"/>
      <point x="84" y="0" type="line"/>
    </contour>
    <contour>
      <point x="53" y="303" type="line"/>
      <point x="130" y="307"/>
      <point x="189" y="308"/>
      <point x="249" y="308" type="curve" smooth="yes"/>
      <point x="308" y="308"/>
      <point x="368" y="307"/>
      <point x="444" y="303" type="curve"/>
      <point x="444" y="366" type="line"/>
      <point x="368" y="363"/>
      <point x="308" y="361"/>
      <point x="249" y="361" type="curve" smooth="yes"/>
      <point x="189" y="361"/>
      <point x="130" y="363"/>
      <point x="53" y="366" type="curve"/>
    </contour>
  </outline>
</glyph>
<glyph name="yen" format="2">
  <advance width="600"/>
  <unicode hex="00A5"/>
  <outline>
    <contour>
      <point x="554" y="256" type="line"/>
      <point x="401" y="249"/>
      <point x="286" y="249"/>
      <point x="133" y="256" type="curve"/>
      <point x="133" y="193" type="line"/>
      <point x="286" y="200"/>
      <point x="401" y="200"/>
      <point x="554" y="193" type="curve"/>
    </contour>
    <contour>
      <point x="554" y="346" type="line"/>
      <point x="401" y="339"/>
      <point x="286" y="339"/>
      <point x="133" y="346" type="curve"/>
      <point x="133" y="283" type="line"/>
      <point x="286" y="290"/>
      <point x="401" y="290"/>
      <point x="554" y="283" type="curve"/>
    </contour>
    <component base="Y"/>
  </outline>
</glyph>
<glyph name="section" format="1">
  <advance width="557"/>
  <unicode hex="00A7"/>
  <outline>
    <contour>
      <point x="249" y="310" type="curve"/>
      <point x="230" y="365" type="line"/>
      <point x="131" y="351"/>
      <point x="55" y="294"/>
      <point x="55" y="192" type="curve" smooth="yes"/>
      <point x="55" y="-26"/>
      <point x="364" y="29"/>
      <point x="364" y="-111" type="curve" smooth="yes"/>
      <point x="364" y="-205"/>
      <point x="254" y="-237"/>
      <point x="164" y="-175" type="curve"/>
      <point x="151" y="-51" type="line"/>
      <point x="89" y="-51" type="line"/>
      <point x="79" y="-114"/>
      <point x="71" y="-151"/>
      <point x="57" y="-208" type="curve"/>
      <point x="112" y="-243"/>
      <point x="192" y="-263"/>
      <point x="257" y="-263" type="curve" smooth="yes"/>
      <point x="382" y="-263"/>
      <point x="502" y="-210"/>
      <point x="502" y="-85" type="curve" smooth="yes"/>
      <point x="502" y="128"/>
      <point x="180" y="105"/>
      <point x="180" y="232" type="curve" smooth="yes"/>
      <point x="180" y="275"/>
      <point x="211" y="302"/>
    </contour>
    <contour>
      <point x="285" y="69" type="curve"/>
      <point x="317" y="14" type="line"/>
      <point x="418" y="29"/>
      <point x="502" y="83"/>
      <point x="502" y="188" type="curve" smooth="yes"/>
      <point x="502" y="421"/>
      <point x="180" y="398"/>
      <point x="180" y="525" type="curve" smooth="yes"/>
      <point x="180" y="578"/>
      <point x="226" y="606"/>
      <point x="276" y="606" type="curve" smooth="yes"/>
      <point x="317" y="606"/>
      <point x="358" y="592"/>
      <point x="376" y="567" type="curve"/>
      <point x="385" y="464" type="line"/>
      <point x="446" y="464" type="line"/>
      <point x="456" y="513"/>
      <point x="465" y="555"/>
      <point x="479" y="617" type="curve"/>
      <point x="426" y="644"/>
      <point x="348" y="661"/>
      <point x="279" y="661" type="curve" smooth="yes"/>
      <point x="158" y="661"/>
      <point x="55" y="603"/>
      <point x="55" y="485" type="curve" smooth="yes"/>
      <point x="55" y="267"/>
      <point x="364" y="322"/>
      <point x="364" y="162" type="curve" smooth="yes"/>
      <point x="364" y="106"/>
      <point x="329" y="78"/>
    </contour>
  </outline>
</glyph>
<glyph name="dieresis" format="1">
  <advance width="306"/>
  <unicode hex="00A8"/>
  <outline>
    <contour>
      <point x="67" y="476" type="curve" smooth="yes"/>
      <point x="101" y="476"/>
      <point x="130" y="505"/>
      <point x="130" y="543" type="curve" smooth="yes"/>
      <point x="130" y="579"/>
      <point x="101" y="608"/>
      <point x="67" y="608" type="curve" smooth="yes"/>
      <point x="32" y="608"/>
      <point x="4" y="579"/>
      <point x="4" y="543" type="curve" smooth="yes"/>
      <point x="4" y="505"/>
      <point x="32" y="476"/>
    </contour>
    <contour>
      <point x="239" y="476" type="curve" smooth="yes"/>
      <point x="272" y="476"/>
      <point x="302" y="505"/>
      <point x="302" y="543" type="curve" smooth="yes"/>
      <point x="302" y="579"/>
      <point x="272" y="608"/>
      <point x="239" y="608" type="curve" smooth="yes"/>
      <point x="204" y="608"/>
      <point x="176" y="579"/>
      <point x="176" y="543" type="curve" smooth="yes"/>
      <point x="176" y="505"/>
      <point x="204" y="476"/>
    </contour>
    <contour>
      <point x="153" y="430" type="move" name="_top"/>
    </contour>
  </outline>
</glyph>
<glyph name="copyright" format="2">
  <advance width="786"/>
  <unicode hex="00A9"/>
  <outline>
    <contour>
      <point x="395" y="15" type="curve" smooth="yes"/>
      <point x="228" y="15"/>
      <point x="83" y="156"/>
      <point x="83" y="327" type="curve" smooth="yes"/>
      <point x="83" y="493"/>
      <point x="224" y="634"/>
      <point x="395" y="634" type="curve" smooth="yes"/>
      <point x="561" y="634"/>
      <point x="702" y="493"/>
      <point x="702" y="327" type="curve" smooth="yes"/>
      <point x="702" y="156"/>
      <point x="561" y="15"/>
    </contour>
    <contour>
      <point x="394" y="-33" type="curve" smooth="yes"/>
      <point x="590" y="-33"/>
      <point x="751" y="127"/>
      <point x="751" y="326" type="curve" smooth="yes"/>
      <point x="751" y="522"/>
      <point x="590" y="683"/>
      <point x="394" y="683" type="curve" smooth="yes"/>
      <point x="195" y="683"/>
      <point x="35" y="522"/>
      <point x="35" y="326" type="curve" smooth="yes"/>
      <point x="35" y="127"/>
      <point x="195" y="-33"/>
    </contour>
    <component base="c.sc" xScale="0.8" yScale="0.8" xOffset="147" yOffset="121"/>
  </outline>
</glyph>
<glyph name="registered" format="2">
  <advance width="786"/>
  <unicode hex="00AE"/>
  <anchor x="450.25" y="139" name="bottom"/>
  <anchor x="405.25" y="521.5" name="top"/>
  <outline>
    <contour>
      <point x="395" y="15" type="curve" smooth="yes"/>
      <point x="228" y="15"/>
      <point x="83" y="156"/>
      <point x="83" y="327" type="curve" smooth="yes"/>
      <point x="83" y="493"/>
      <point x="224" y="634"/>
      <point x="395" y="634" type="curve" smooth="yes"/>
      <point x="561" y="634"/>
      <point x="702" y="493"/>
      <point x="702" y="327" type="curve" smooth="yes"/>
      <point x="702" y="156"/>
      <point x="561" y="15"/>
    </contour>
    <contour>
      <point x="394" y="-33" type="curve" smooth="yes"/>
      <point x="590" y="-33"/>
      <point x="751" y="127"/>
      <point x="751" y="326" type="curve" smooth="yes"/>
      <point x="751" y="522"/>
      <point x="590" y="683"/>
      <point x="394" y="683" type="curve" smooth="yes"/>
      <point x="195" y="683"/>
      <point x="35" y="522"/>
      <point x="35" y="326" type="curve" smooth="yes"/>
      <point x="35" y="127"/>
      <point x="195" y="-33"/>
    </contour>
    <contour>
      <point x="208.75" y="139" type="line"/>
      <point x="239.5" y="139.75"/>
      <point x="262.75" y="141.25"/>
      <point x="313.75" y="141.25" type="curve" smooth="yes"/>
      <point x="367" y="141.25"/>
      <point x="383.5" y="140.5"/>
      <point x="410.5" y="139" type="curve"/>
      <point x="421" y="167.5" type="line"/>
      <point x="362.5" y="183.25" type="line"/>
      <point x="361" y="230.5"/>
      <point x="360.25" y="277"/>
      <point x="360.25" y="329.5" type="curve" smooth="yes"/>
      <point x="360.25" y="382.75"/>
      <point x="361" y="429.25"/>
      <point x="362.5" y="477.25" type="curve"/>
      <point x="375.25" y="481.75"/>
      <point x="388.75" y="485.5"/>
      <point x="401.5" y="485.5" type="curve" smooth="yes"/>
      <point x="438.25" y="485.5"/>
      <point x="457" y="448.75"/>
      <point x="457" y="411.25" type="curve" smooth="yes"/>
      <point x="457" y="380.5"/>
      <point x="445" y="349.75"/>
      <point x="419.5" y="335.5" type="curve"/>
      <point x="413.5" y="334.75"/>
      <point x="406.75" y="334.75"/>
      <point x="400" y="334.75" type="curve" smooth="yes"/>
      <point x="388" y="334.75"/>
      <point x="375.25" y="337.75"/>
      <point x="348.25" y="343.75" type="curve"/>
      <point x="348.25" y="300.25" type="line"/>
      <point x="378.25" y="295"/>
      <point x="379.75" y="294.25"/>
      <point x="413.5" y="294.25" type="curve" smooth="yes"/>
      <point x="511.75" y="294.25"/>
      <point x="562.75" y="358"/>
      <point x="562.75" y="418.75" type="curve" smooth="yes"/>
      <point x="562.75" y="474.25"/>
      <point x="520" y="527.5"/>
      <point x="431.5" y="527.5" type="curve" smooth="yes"/>
      <point x="391.75" y="527.5"/>
      <point x="374.5" y="523.75"/>
      <point x="313" y="523.75" type="curve" smooth="yes"/>
      <point x="256.75" y="523.75"/>
      <point x="238.75" y="524.5"/>
      <point x="206.5" y="527.5" type="curve"/>
      <point x="199" y="498.25" type="line"/>
      <point x="257.5" y="482.5" type="line"/>
      <point x="260.5" y="429.25"/>
      <point x="261.25" y="385"/>
      <point x="261.25" y="336.25" type="curve" smooth="yes"/>
      <point x="261.25" y="280"/>
      <point x="259.75" y="232.75"/>
      <point x="257.5" y="183.25" type="curve"/>
      <point x="199" y="167.5" type="line"/>
    </contour>
    <contour>
      <point x="463.75" y="139" type="curve"/>
      <point x="487" y="139.75"/>
      <point x="520" y="140.5"/>
      <point x="541" y="140.5" type="curve" smooth="yes"/>
      <point x="567.25" y="140.5"/>
      <point x="589.75" y="139.75"/>
      <point x="607.75" y="139" type="curve"/>
      <point x="618.25" y="167.5" type="line"/>
      <point x="557.5" y="183.25" type="line"/>
      <point x="511" y="245.5"/>
      <point x="486.25" y="283.75"/>
      <point x="460" y="324.25" type="curve"/>
      <point x="453.25" y="324.25"/>
      <point x="389.5" y="313"/>
      <point x="365.5" y="313" type="curve"/>
      <point x="397.75" y="262.75"/>
      <point x="426.25" y="214"/>
    </contour>
  </outline>
</glyph>
<glyph name="degree" format="1">
  <advance width="314"/>
  <unicode hex="00B0"/>
  <outline>
    <contour>
      <point x="140" y="487" type="curve" smooth="yes"/>
      <point x="102" y="487"/>
      <point x="69" y="519"/>
      <point x="69" y="558" type="curve" smooth="yes"/>
      <point x="69" y="596"/>
      <point x="101" y="628"/>
      <point x="140" y="628" type="curve" smooth="yes"/>
      <point x="178" y="628"/>
      <point x="210" y="596"/>
      <point x="210" y="558" type="curve" smooth="yes"/>
      <point x="210" y="519"/>
      <point x="178" y="487"/>
    </contour>
    <contour>
      <point x="140" y="428" type="curve" smooth="yes"/>
      <point x="211" y="428"/>
      <point x="269" y="486"/>
      <point x="269" y="558" type="curve" smooth="yes"/>
      <point x="269" y="629"/>
      <point x="211" y="687"/>
      <point x="140" y="687" type="curve" smooth="yes"/>
      <point x="68" y="687"/>
      <point x="10" y="629"/>
      <point x="10" y="558" type="curve" smooth="yes"/>
      <point x="10" y="486"/>
      <point x="68" y="428"/>
    </contour>
    <contour>
      <point x="120" y="450" type="move" name="_top"/>
    </contour>
  </outline>
</glyph>
<glyph name="plusminus" format="1">
  <advance width="571"/>
  <unicode hex="00B1"/>
  <outline>
    <contour>
      <point x="536" y="454" type="line"/>
      <point x="386" y="451"/>
      <point x="185" y="451"/>
      <point x="35" y="454" type="curve"/>
      <point x="35" y="371" type="line"/>
      <point x="185" y="374"/>
      <point x="386" y="374"/>
      <point x="536" y="371" type="curve"/>
    </contour>
    <contour>
      <point x="327" y="195" type="line"/>
      <point x="324" y="345"/>
      <point x="324" y="486"/>
      <point x="327" y="636" type="curve"/>
      <point x="244" y="636" type="line"/>
      <point x="247" y="486"/>
      <point x="247" y="345"/>
      <point x="244" y="195" type="curve"/>
    </contour>
    <contour>
      <point x="536" y="152" type="line"/>
      <point x="386" y="149"/>
      <point x="185" y="149"/>
      <point x="35" y="152" type="curve"/>
      <point x="35" y="69" type="line"/>
      <point x="185" y="72"/>
      <point x="386" y="72"/>
      <point x="536" y="69" type="curve"/>
    </contour>
  </outline>
</glyph>
<glyph name="twosuperior" format="1">
  <advance width="356"/>
  <unicode hex="00B2"/>
  <outline>
    <contour>
      <point x="20" y="563" type="curve"/>
      <point x="40" y="522" type="line"/>
      <point x="126" y="626"/>
      <point x="212" y="600"/>
      <point x="212" y="530" type="curve" smooth="yes"/>
      <point x="212" y="460"/>
      <point x="144" y="394"/>
      <point x="22" y="283" type="curve"/>
      <point x="37" y="251" type="line"/>
      <point x="85" y="253"/>
      <point x="145" y="254"/>
      <point x="168" y="254" type="curve" smooth="yes"/>
      <point x="216" y="254"/>
      <point x="279" y="253"/>
      <point x="333" y="251" type="curve"/>
      <point x="334" y="278"/>
      <point x="335" y="315"/>
      <point x="336" y="345" type="curve"/>
      <point x="251" y="331"/>
      <point x="207" y="331"/>
      <point x="124" y="329" type="curve"/>
      <point x="94" y="298" type="line"/>
      <point x="213" y="380"/>
      <point x="325" y="461"/>
      <point x="325" y="550" type="curve" smooth="yes"/>
      <point x="325" y="626"/>
      <point x="268" y="668"/>
      <point x="198" y="668" type="curve" smooth="yes"/>
      <point x="119" y="668"/>
      <point x="69" y="619"/>
    </contour>
  </outline>
</glyph>
<glyph name="threesuperior" format="2">
  <advance width="372"/>
  <unicode hex="00B3"/>
  <outline>
    <contour>
      <point x="170" y="247" type="curve" smooth="yes"/>
      <point x="278" y="247"/>
      <point x="339" y="317"/>
      <point x="339" y="391" type="curve" smooth="yes"/>
      <point x="339" y="444"/>
      <point x="307" y="502"/>
      <point x="237" y="522" type="curve"/>
      <point x="262" y="547"/>
      <point x="277" y="561"/>
      <point x="327" y="610" type="curve"/>
      <point x="310" y="660" type="line"/>
      <point x="266" y="659"/>
      <point x="219" y="659"/>
      <point x="172" y="659" type="curve" smooth="yes"/>
      <point x="125" y="659"/>
      <point x="78" y="659"/>
      <point x="34" y="660" type="curve"/>
      <point x="35" y="646"/>
      <point x="36" y="625"/>
      <point x="36" y="602" type="curve" smooth="yes"/>
      <point x="36" y="573"/>
      <point x="35" y="542"/>
      <point x="34" y="517" type="curve"/>
      <point x="74" y="517" type="line"/>
      <point x="82" y="543"/>
      <point x="87" y="556"/>
      <point x="97" y="575" type="curve"/>
      <point x="119" y="577"/>
      <point x="140" y="577"/>
      <point x="162" y="577" type="curve" smooth="yes"/>
      <point x="179" y="577"/>
      <point x="197" y="577"/>
      <point x="216" y="576" type="curve"/>
      <point x="191" y="542"/>
      <point x="160" y="508"/>
      <point x="138" y="485" type="curve"/>
      <point x="147" y="464" type="line"/>
      <point x="207" y="453"/>
      <point x="234" y="414"/>
      <point x="234" y="378" type="curve" smooth="yes"/>
      <point x="234" y="338"/>
      <point x="203" y="301"/>
      <point x="148" y="301" type="curve" smooth="yes"/>
      <point x="111" y="301"/>
      <point x="76" y="309"/>
      <point x="34" y="333" type="curve"/>
      <point x="25" y="290" type="line"/>
      <point x="69" y="260"/>
      <point x="121" y="247"/>
    </contour>
  </outline>
</glyph>
<glyph name="paragraph" format="2">
  <advance width="595"/>
  <unicode hex="00B6"/>
  <outline>
    <contour>
      <point x="281" y="-60" type="curve"/>
      <point x="362" y="-60" type="line"/>
      <point x="363" y="-48"/>
      <point x="366" y="600"/>
      <point x="365" y="600" type="curve"/>
      <point x="403" y="600" type="line"/>
      <point x="402" y="600"/>
      <point x="404" y="-48"/>
      <point x="405" y="-60" type="curve"/>
      <point x="486" y="-60" type="line"/>
      <point x="482" y="30"/>
      <point x="481" y="287"/>
      <point x="481" y="366" type="curve" smooth="yes"/>
      <point x="481" y="470"/>
      <point x="483" y="515"/>
      <point x="486" y="596" type="curve"/>
      <point x="575" y="622" type="line"/>
      <point x="564" y="660" type="line"/>
      <point x="503" y="657"/>
      <point x="470" y="656"/>
      <point x="411" y="656" type="curve" smooth="yes"/>
      <point x="369" y="656"/>
      <point x="324" y="657"/>
      <point x="287" y="657" type="curve" smooth="yes"/>
      <point x="111" y="657"/>
      <point x="40" y="580"/>
      <point x="40" y="468" type="curve" smooth="yes"/>
      <point x="40" y="319"/>
      <point x="154" y="266"/>
      <point x="286" y="266" type="curve"/>
      <point x="286" y="187"/>
      <point x="285" y="30"/>
    </contour>
  </outline>
</glyph>
<glyph name="periodcentered" format="2">
  <advance width="179"/>
  <unicode hex="00B7"/>
  <outline>
    <contour>
      <point x="90" y="391" type="curve" smooth="yes"/>
      <point x="73" y="391"/>
      <point x="55" y="386"/>
      <point x="37" y="381" type="curve"/>
      <point x="32" y="364"/>
      <point x="29" y="346"/>
      <point x="29" y="329" type="curve" smooth="yes"/>
      <point x="29" y="311"/>
      <point x="32" y="294"/>
      <point x="37" y="277" type="curve"/>
      <point x="55" y="271"/>
      <point x="73" y="267"/>
      <point x="90" y="267" type="curve" smooth="yes"/>
      <point x="107" y="267"/>
      <point x="124" y="271"/>
      <point x="142" y="277" type="curve"/>
      <point x="147" y="294"/>
      <point x="151" y="311"/>
      <point x="151" y="329" type="curve" smooth="yes"/>
      <point x="151" y="346"/>
      <point x="147" y="364"/>
      <point x="142" y="381" type="curve"/>
      <point x="124" y="386"/>
      <point x="107" y="391"/>
    </contour>
  </outline>
</glyph>
<glyph name="onesuperior" format="1">
  <advance width="342"/>
  <unicode hex="00B9"/>
  <outline>
    <contour>
      <point x="238" y="670" type="curve"/>
      <point x="193" y="670" type="line"/>
      <point x="135" y="630"/>
      <point x="91" y="620"/>
      <point x="20" y="613" type="curve"/>
      <point x="38" y="572" type="line"/>
      <point x="127" y="573" type="line"/>
      <point x="129" y="550"/>
      <point x="131" y="487"/>
      <point x="131" y="452" type="curve" smooth="yes"/>
      <point x="131" y="399"/>
      <point x="131" y="341"/>
      <point x="130" y="304" type="curve"/>
      <point x="38" y="282" type="line"/>
      <point x="49" y="251" type="line"/>
      <point x="80" y="251"/>
      <point x="146" y="253"/>
      <point x="186" y="253" type="curve" smooth="yes"/>
      <point x="240" y="253"/>
      <point x="280" y="252"/>
      <point x="311" y="251" type="curve"/>
      <point x="322" y="282" type="line"/>
      <point x="238" y="304" type="line"/>
      <point x="236" y="354"/>
      <point x="236" y="413"/>
      <point x="236" y="457" type="curve" smooth="yes"/>
      <point x="236" y="517"/>
      <point x="236" y="587"/>
    </contour>
  </outline>
</glyph>
<glyph name="ordmasculine" format="1">
  <advance width="377"/>
  <unicode hex="00BA"/>
  <outline>
    <contour>
      <point x="25" y="316" type="curve"/>
      <point x="25" y="274" type="line"/>
      <point x="119" y="276"/>
      <point x="244" y="276"/>
      <point x="338" y="274" type="curve"/>
      <point x="338" y="316" type="line"/>
      <point x="244" y="314"/>
      <point x="119" y="314"/>
    </contour>
    <component base="o" xScale="0.75" yScale="0.75" yOffset="358"/>
  </outline>
</glyph>
<glyph name="onequarter" format="2">
  <advance width="865"/>
  <unicode hex="00BC"/>
  <outline>
    <contour>
      <point x="774" y="693" type="line"/>
      <point x="692" y="693" type="line"/>
      <point x="143" y="-48" type="line"/>
      <point x="224" y="-48" type="line"/>
    </contour>
    <contour>
      <point x="253" y="670" type="curve"/>
      <point x="208" y="670" type="line"/>
      <point x="150" y="630"/>
      <point x="106" y="620"/>
      <point x="35" y="613" type="curve"/>
      <point x="53" y="572" type="line"/>
      <point x="142" y="573" type="line"/>
      <point x="144" y="550"/>
      <point x="146" y="487"/>
      <point x="146" y="452" type="curve" smooth="yes"/>
      <point x="146" y="399"/>
      <point x="146" y="341"/>
      <point x="145" y="304" type="curve"/>
      <point x="53" y="282" type="line"/>
      <point x="64" y="251" type="line"/>
      <point x="95" y="251"/>
      <point x="161" y="253"/>
      <point x="201" y="253" type="curve" smooth="yes"/>
      <point x="255" y="253"/>
      <point x="295" y="252"/>
      <point x="326" y="251" type="curve"/>
      <point x="337" y="282" type="line"/>
      <point x="253" y="304" type="line"/>
      <point x="251" y="354"/>
      <point x="251" y="413"/>
      <point x="251" y="457" type="curve" smooth="yes"/>
      <point x="251" y="517"/>
      <point x="251" y="587"/>
    </contour>
    <component base="foursuperior" xOffset="457" yOffset="-250"/>
  </outline>
</glyph>
<glyph name="threequarters" format="1">
  <advance width="840"/>
  <unicode hex="00BE"/>
  <outline>
    <contour>
      <point x="118" y="-48" type="line"/>
      <point x="199" y="-48" type="line"/>
      <point x="749" y="693" type="line"/>
      <point x="667" y="693" type="line"/>
    </contour>
    <component base="foursuperior" xOffset="417" yOffset="-250"/>
    <component base="threesuperior" xOffset="20"/>
  </outline>
</glyph>
<glyph name="Aacute" format="1">
  <advance width="715"/>
  <unicode hex="00C1"/>
  <outline>
    <component base="A"/>
    <component base="acute" xOffset="309" yOffset="231"/>
    <contour>
      <point x="615" y="10" type="move" name="ogonek"/>
    </contour>
    <contour>
      <point x="338" y="942" type="move" name="top"/>
    </contour>
  </outline>
</glyph>
<glyph name="AE" format="2">
  <advance width="916"/>
  <unicode hex="00C6"/>
  <anchor x="500" y="0" name="bottom"/>
  <anchor x="846" y="10" name="ogonek"/>
  <anchor x="534" y="660" name="top"/>
  <outline>
    <contour>
      <point x="469" y="596" type="curve"/>
      <point x="412" y="630" type="line"/>
      <point x="331" y="480"/>
      <point x="161" y="175"/>
      <point x="67" y="59" type="curve"/>
      <point x="-5" y="38" type="line"/>
      <point x="8" y="0" type="line"/>
      <point x="44" y="2"/>
      <point x="75" y="3"/>
      <point x="110" y="3" type="curve" smooth="yes"/>
      <point x="146" y="3"/>
      <point x="185" y="2"/>
      <point x="228" y="0" type="curve"/>
      <point x="241" y="38" type="line"/>
      <point x="167" y="59" type="line"/>
      <point x="235" y="209"/>
      <point x="332" y="356"/>
    </contour>
    <contour>
      <point x="448" y="225" type="line"/>
      <point x="399" y="217"/>
      <point x="354" y="215"/>
      <point x="317" y="215" type="curve" smooth="yes"/>
      <point x="278" y="215"/>
      <point x="243" y="217"/>
      <point x="198" y="224" type="curve"/>
      <point x="198" y="147" type="line"/>
      <point x="243" y="154"/>
      <point x="278" y="154"/>
      <point x="317" y="154" type="curve" smooth="yes"/>
      <point x="354" y="154"/>
      <point x="399" y="154"/>
      <point x="448" y="147" type="curve"/>
    </contour>
    <contour>
      <point x="727" y="371" type="line"/>
      <point x="681" y="364"/>
      <point x="664" y="360"/>
      <point x="602" y="360" type="curve" smooth="yes"/>
      <point x="570" y="360"/>
      <point x="539" y="362"/>
      <point x="492" y="366" type="curve"/>
      <point x="492" y="292" type="line"/>
      <point x="536" y="298"/>
      <point x="572" y="299"/>
      <point x="604" y="299" type="curve" smooth="yes"/>
      <point x="666" y="299"/>
      <point x="680" y="295"/>
      <point x="727" y="287" type="curve"/>
    </contour>
    <contour>
      <point x="756" y="454" type="curve"/>
      <point x="701" y="454" type="line"/>
      <point x="668" y="351" type="line"/>
      <point x="668" y="308" type="line"/>
      <point x="701" y="204" type="line"/>
      <point x="756" y="204" type="line"/>
      <point x="754" y="232"/>
      <point x="752" y="289"/>
      <point x="752" y="333" type="curve" smooth="yes"/>
      <point x="752" y="376"/>
      <point x="754" y="414"/>
    </contour>
    <contour>
      <point x="878" y="0" type="curve"/>
      <point x="873" y="68"/>
      <point x="869" y="149"/>
      <point x="869" y="210" type="curve"/>
      <point x="805" y="210" type="line"/>
      <point x="782" y="89" type="line"/>
      <point x="748" y="72"/>
      <point x="694" y="64"/>
      <point x="641" y="64" type="curve" smooth="yes"/>
      <point x="617" y="64"/>
      <point x="592" y="66"/>
      <point x="570" y="69" type="curve"/>
      <point x="568" y="138"/>
      <point x="568" y="202"/>
      <point x="568" y="263" type="curve" smooth="yes"/>
      <point x="568" y="362"/>
      <point x="569" y="467"/>
      <point x="570" y="587" type="curve"/>
      <point x="595" y="590"/>
      <point x="620" y="592"/>
      <point x="644" y="592" type="curve" smooth="yes"/>
      <point x="696" y="592"/>
      <point x="745" y="584"/>
      <point x="778" y="567" type="curve"/>
      <point x="796" y="462" type="line"/>
      <point x="860" y="462" type="line"/>
      <point x="861" y="513"/>
      <point x="864" y="576"/>
      <point x="868" y="660" type="curve"/>
      <point x="818" y="657"/>
      <point x="601" y="656"/>
      <point x="503" y="656" type="curve" smooth="yes"/>
      <point x="464" y="656"/>
      <point x="402" y="657"/>
      <point x="336" y="660" type="curve"/>
      <point x="323" y="621" type="line"/>
      <point x="419" y="597" type="line"/>
      <point x="422" y="528"/>
      <point x="424" y="460"/>
      <point x="424" y="376" type="curve" smooth="yes"/>
      <point x="424" y="271"/>
      <point x="422" y="167"/>
      <point x="419" y="59" type="curve"/>
      <point x="330" y="38" type="line"/>
      <point x="342" y="0" type="line"/>
      <point x="415" y="2"/>
      <point x="452" y="3"/>
      <point x="499" y="3" type="curve" smooth="yes"/>
      <point x="692" y="3"/>
      <point x="819" y="2"/>
    </contour>
  </outline>
</glyph>
<glyph name="Oslash" format="2">
  <advance width="715"/>
  <unicode hex="00D8"/>
  <outline>
    <contour>
      <point x="78" y="4" type="line"/>
      <point x="146" y="-37" type="line"/>
      <point x="616" y="667" type="line"/>
      <point x="547" y="708" type="line"/>
    </contour>
    <component base="O"/>
  </outline>
</glyph>
<glyph name="Thorn" format="2">
  <advance width="629"/>
  <unicode hex="00DE"/>
  <outline>
    <contour>
      <point x="340" y="660" type="line"/>
      <point x="304" y="658"/>
      <point x="246" y="656"/>
      <point x="192" y="656" type="curve" smooth="yes"/>
      <point x="130" y="656"/>
      <point x="85" y="657"/>
      <point x="33" y="660" type="curve"/>
      <point x="20" y="621" type="line"/>
      <point x="112" y="597" type="line"/>
      <point x="119" y="369"/>
      <point x="118" y="275"/>
      <point x="112" y="59" type="curve"/>
      <point x="20" y="38" type="line"/>
      <point x="33" y="0" type="line"/>
      <point x="74" y="1"/>
      <point x="126" y="3"/>
      <point x="188" y="3" type="curve" smooth="yes"/>
      <point x="252" y="3"/>
      <point x="304" y="2"/>
      <point x="340" y="0" type="curve"/>
      <point x="353" y="38" type="line"/>
      <point x="262" y="59" type="line"/>
      <point x="260" y="278"/>
      <point x="261" y="369"/>
      <point x="262" y="597" type="curve"/>
      <point x="353" y="621" type="line"/>
    </contour>
    <contour>
      <point x="198" y="525" type="curve"/>
      <point x="244" y="472" type="line"/>
      <point x="370" y="494"/>
      <point x="439" y="447"/>
      <point x="439" y="330" type="curve" smooth="yes"/>
      <point x="439" y="274"/>
      <point x="418" y="220"/>
      <point x="376" y="192" type="curve"/>
      <point x="325" y="182"/>
      <point x="269" y="189"/>
      <point x="229" y="203" type="curve"/>
      <point x="229" y="140" type="line"/>
      <point x="268" y="132"/>
      <point x="304" y="128"/>
      <point x="328" y="128" type="curve" smooth="yes"/>
      <point x="490" y="128"/>
      <point x="589" y="214"/>
      <point x="589" y="343" type="curve" smooth="yes"/>
      <point x="589" y="455"/>
      <point x="508" y="537"/>
      <point x="369" y="537" type="curve" smooth="yes"/>
      <point x="295" y="537"/>
      <point x="260" y="534"/>
    </contour>
  </outline>
</glyph>
<glyph name="germandbls" format="2">
  <advance width="637"/>
  <unicode hex="00DF"/>
  <outline>
    <contour>
      <point x="46" y="0" type="line"/>
      <point x="78" y="0"/>
      <point x="218" y="1"/>
      <point x="235" y="0" type="curve"/>
      <point x="242" y="23"/>
      <point x="245" y="40"/>
      <point x="245" y="89" type="curve" smooth="yes"/>
      <point x="245" y="161"/>
      <point x="243" y="350"/>
      <point x="243" y="452" type="curve" smooth="yes"/>
      <point x="243" y="596"/>
      <point x="279" y="649"/>
      <point x="323" y="681" type="curve"/>
      <point x="406" y="681"/>
      <point x="437" y="615"/>
      <point x="437" y="562" type="curve" smooth="yes"/>
      <point x="437" y="393"/>
      <point x="304" y="427"/>
      <point x="304" y="312" type="curve" smooth="yes"/>
      <point x="304" y="179"/>
      <point x="506" y="198"/>
      <point x="506" y="97" type="curve" smooth="yes"/>
      <point x="506" y="64"/>
      <point x="476" y="45"/>
      <point x="443" y="45" type="curve" smooth="yes"/>
      <point x="420" y="45"/>
      <point x="396" y="54"/>
      <point x="379" y="67" type="curve"/>
      <point x="366" y="160" type="line"/>
      <point x="314" y="160" type="line"/>
      <point x="309" y="120"/>
      <point x="306" y="70"/>
      <point x="296" y="20" type="curve"/>
      <point x="338" y="0"/>
      <point x="390" y="-11"/>
      <point x="441" y="-11" type="curve" smooth="yes"/>
      <point x="539" y="-11"/>
      <point x="632" y="30"/>
      <point x="632" y="120" type="curve" smooth="yes"/>
      <point x="632" y="283"/>
      <point x="422" y="272"/>
      <point x="422" y="361" type="curve" smooth="yes"/>
      <point x="422" y="416"/>
      <point x="575" y="433"/>
      <point x="575" y="581" type="curve" smooth="yes"/>
      <point x="575" y="661"/>
      <point x="524" y="739"/>
      <point x="378" y="739" type="curve" smooth="yes"/>
      <point x="224" y="739"/>
      <point x="114" y="610"/>
      <point x="114" y="457" type="curve" smooth="yes"/>
      <point x="114" y="96"/>
      <point x="111" y="73"/>
      <point x="106" y="58" type="curve"/>
      <point x="30" y="37" type="line"/>
    </contour>
  </outline>
</glyph>
<glyph name="ae" format="2">
  <advance width="692"/>
  <unicode hex="00E6"/>
  <anchor x="347" y="0" name="bottom"/>
  <anchor x="649" y="62" name="ogonek"/>
  <anchor x="367" y="434" name="top"/>
  <outline>
    <contour>
      <point x="345" y="279" type="line"/>
      <point x="305" y="255"/>
      <point x="265" y="244"/>
      <point x="217" y="236" type="curve" smooth="yes"/>
      <point x="110" y="218"/>
      <point x="25" y="195"/>
      <point x="25" y="112" type="curve" smooth="yes"/>
      <point x="25" y="31"/>
      <point x="78" y="-9"/>
      <point x="128" y="-9" type="curve" smooth="yes"/>
      <point x="226" y="-9"/>
      <point x="312" y="74"/>
      <point x="344" y="114" type="curve"/>
      <point x="315" y="155" type="line"/>
      <point x="281" y="111"/>
      <point x="227" y="79"/>
      <point x="196" y="79" type="curve" smooth="yes"/>
      <point x="171" y="79"/>
      <point x="155" y="96"/>
      <point x="155" y="124" type="curve" smooth="yes"/>
      <point x="155" y="158"/>
      <point x="169" y="168"/>
      <point x="215" y="178" type="curve" smooth="yes"/>
      <point x="233" y="182"/>
      <point x="256" y="189"/>
      <point x="285" y="196" type="curve"/>
    </contour>
    <contour>
      <point x="671" y="237" type="curve"/>
      <point x="671" y="371"/>
      <point x="585" y="437"/>
      <point x="485" y="437" type="curve" smooth="yes"/>
      <point x="377" y="437"/>
      <point x="273" y="362"/>
      <point x="273" y="214" type="curve" smooth="yes"/>
      <point x="273" y="68"/>
      <point x="373" y="-6"/>
      <point x="485" y="-6" type="curve" smooth="yes"/>
      <point x="549" y="-6"/>
      <point x="617" y="15"/>
      <point x="674" y="67" type="curve"/>
      <point x="652" y="113" type="line"/>
      <point x="612" y="87"/>
      <point x="571" y="73"/>
      <point x="534" y="73" type="curve" smooth="yes"/>
      <point x="461" y="73"/>
      <point x="404" y="128"/>
      <point x="404" y="248" type="curve" smooth="yes"/>
      <point x="404" y="306"/>
      <point x="421" y="353"/>
      <point x="448" y="378" type="curve"/>
      <point x="513" y="377"/>
      <point x="543" y="326"/>
      <point x="545" y="284" type="curve"/>
      <point x="498" y="276"/>
      <point x="390" y="274"/>
      <point x="362" y="275" type="curve"/>
      <point x="362" y="227" type="line"/>
      <point x="372" y="226"/>
      <point x="405" y="224"/>
      <point x="448" y="224" type="curve" smooth="yes"/>
      <point x="533" y="224"/>
      <point x="627" y="228"/>
    </contour>
    <contour>
      <point x="273" y="224" type="curve"/>
      <point x="402" y="207" type="line"/>
      <point x="404" y="233"/>
      <point x="405" y="263"/>
      <point x="405" y="305" type="curve" smooth="yes"/>
      <point x="405" y="393"/>
      <point x="344" y="436"/>
      <point x="274" y="436" type="curve" smooth="yes"/>
      <point x="189" y="436"/>
      <point x="112" y="398"/>
      <point x="36" y="342" type="curve"/>
      <point x="62" y="299" type="line"/>
      <point x="120" y="330"/>
      <point x="174" y="351"/>
      <point x="236" y="354" type="curve"/>
      <point x="264" y="345"/>
      <point x="275" y="319"/>
      <point x="275" y="278" type="curve" smooth="yes"/>
      <point x="275" y="262"/>
      <point x="274" y="243"/>
    </contour>
  </outline>
</glyph>
<glyph name="divide" format="1">
  <advance width="571"/>
  <unicode hex="00F7"/>
  <outline>
    <contour>
      <point x="536" y="372" type="line"/>
      <point x="386" y="367"/>
      <point x="185" y="367"/>
      <point x="35" y="372" type="curve"/>
      <point x="35" y="289" type="line"/>
      <point x="185" y="294"/>
      <point x="386" y="294"/>
      <point x="536" y="289" type="curve"/>
    </contour>
    <contour>
      <point x="286" y="441" type="curve" smooth="yes"/>
      <point x="317" y="441"/>
      <point x="343" y="467"/>
      <point x="343" y="499" type="curve" smooth="yes"/>
      <point x="343" y="530"/>
      <point x="317" y="556"/>
      <point x="286" y="556" type="curve" smooth="yes"/>
      <point x="254" y="556"/>
      <point x="228" y="530"/>
      <point x="228" y="499" type="curve" smooth="yes"/>
      <point x="228" y="467"/>
      <point x="254" y="441"/>
    </contour>
    <contour>
      <point x="286" y="105" type="curve" smooth="yes"/>
      <point x="317" y="105"/>
      <point x="343" y="131"/>
      <point x="343" y="163" type="curve" smooth="yes"/>
      <point x="343" y="194"/>
      <point x="317" y="220"/>
      <point x="286" y="220" type="curve" smooth="yes"/>
      <point x="254" y="220"/>
      <point x="228" y="194"/>
      <point x="228" y="163" type="curve" smooth="yes"/>
      <point x="228" y="131"/>
      <point x="254" y="105"/>
    </contour>
  </outline>
</glyph>
<glyph name="oslash" format="1">
  <advance width="492"/>
  <unicode hex="00F8"/>
  <outline>
    <contour>
      <point x="382" y="493" type="line"/>
      <point x="297" y="493" type="line"/>
      <point x="110" y="-67" type="line"/>
      <point x="195" y="-67" type="line"/>
    </contour>
    <component base="o"/>
    <contour>
      <point x="246" y="430" type="move" name="top"/>
    </contour>
  </outline>
</glyph>
<glyph name="thorn" format="2">
  <advance width="600"/>
  <unicode hex="00FE"/>
  <outline>
    <contour>
      <point x="269" y="745" type="curve"/>
      <point x="208" y="733"/>
      <point x="76" y="727"/>
      <point x="30" y="725" type="curve"/>
      <point x="41" y="684" type="line"/>
      <point x="125" y="669" type="line"/>
      <point x="132" y="529"/>
      <point x="133" y="314"/>
      <point x="133" y="193" type="curve" smooth="yes"/>
      <point x="133" y="55"/>
      <point x="132" y="1"/>
      <point x="129" y="-201" type="curve"/>
      <point x="50" y="-221" type="line"/>
      <point x="65" y="-260" type="line"/>
      <point x="104" y="-258"/>
      <point x="139" y="-256"/>
      <point x="205" y="-256" type="curve" smooth="yes"/>
      <point x="264" y="-256"/>
      <point x="320" y="-257"/>
      <point x="355" y="-260" type="curve"/>
      <point x="369" y="-221" type="line"/>
      <point x="269" y="-197" type="line"/>
      <point x="265" y="16"/>
      <point x="264" y="113"/>
      <point x="264" y="192" type="curve" smooth="yes"/>
      <point x="264" y="444"/>
      <point x="266" y="547"/>
    </contour>
    <contour>
      <point x="403" y="436" type="curve" smooth="yes"/>
      <point x="329" y="436"/>
      <point x="253" y="386"/>
      <point x="236" y="291" type="curve"/>
      <point x="264" y="224" type="line"/>
      <point x="264" y="311"/>
      <point x="316" y="358"/>
      <point x="345" y="365" type="curve"/>
      <point x="410" y="356"/>
      <point x="440" y="280"/>
      <point x="440" y="208" type="curve" smooth="yes"/>
      <point x="440" y="135"/>
      <point x="410" y="65"/>
      <point x="350" y="65" type="curve" smooth="yes"/>
      <point x="298" y="65"/>
      <point x="249" y="104"/>
      <point x="229" y="147" type="curve"/>
      <point x="208" y="105" type="line"/>
      <point x="248" y="41"/>
      <point x="303" y="-5"/>
      <point x="376" y="-5" type="curve" smooth="yes"/>
      <point x="510" y="-5"/>
      <point x="575" y="110"/>
      <point x="575" y="224" type="curve" smooth="yes"/>
      <point x="575" y="331"/>
      <point x="517" y="436"/>
    </contour>
  </outline>
</glyph>
<glyph name="dotlessi" format="2">
  <advance width="336"/>
  <unicode hex="0131"/>
  <anchor x="184" y="10" name="ogonek"/>
  <anchor x="169" y="434" name="top"/>
  <outline>
    <contour>
      <point x="240" y="445" type="curve"/>
      <point x="154" y="433"/>
      <point x="62" y="428"/>
      <point x="16" y="426" type="curve"/>
      <point x="30" y="381" type="line"/>
      <point x="97" y="368" type="line"/>
      <point x="102" y="297"/>
      <point x="102" y="272"/>
      <point x="103" y="226" type="curve" smooth="yes"/>
      <point x="104" y="167"/>
      <point x="103" y="124"/>
      <point x="100" y="58" type="curve"/>
      <point x="21" y="37" type="line"/>
      <point x="37" y="0" type="line"/>
      <point x="77" y="1"/>
      <point x="105" y="3"/>
      <point x="171" y="3" type="curve" smooth="yes"/>
      <point x="242" y="3"/>
      <point x="268" y="2"/>
      <point x="304" y="0" type="curve"/>
      <point x="320" y="37" type="line"/>
      <point x="240" y="58" type="line"/>
      <point x="238" y="107"/>
      <point x="237" y="179"/>
      <point x="237" y="228" type="curve" smooth="yes"/>
      <point x="237" y="296"/>
      <point x="238" y="369"/>
    </contour>
  </outline>
</glyph>
<glyph name="OE" format="2">
  <advance width="985"/>
  <unicode hex="0152"/>
  <anchor x="543" y="0" name="bottom"/>
  <anchor x="915" y="10" name="ogonek"/>
  <anchor x="563" y="660" name="top"/>
  <outline>
    <contour>
      <point x="792" y="369" type="line"/>
      <point x="749" y="368"/>
      <point x="714" y="367"/>
      <point x="679" y="367" type="curve" smooth="yes"/>
      <point x="644" y="367"/>
      <point x="627" y="368"/>
      <point x="566" y="369" type="curve"/>
      <point x="566" y="312" type="line"/>
      <point x="627" y="314"/>
      <point x="644" y="314"/>
      <point x="679" y="314" type="curve" smooth="yes"/>
      <point x="714" y="314"/>
      <point x="749" y="314"/>
      <point x="792" y="312" type="curve"/>
    </contour>
    <contour>
      <point x="823" y="454" type="curve"/>
      <point x="776" y="454" type="line"/>
      <point x="756" y="363" type="line"/>
      <point x="756" y="320" type="line"/>
      <point x="776" y="204" type="line"/>
      <point x="823" y="204" type="line"/>
      <point x="822" y="236"/>
      <point x="821" y="292"/>
      <point x="821" y="335" type="curve" smooth="yes"/>
      <point x="821" y="377"/>
      <point x="822" y="416"/>
    </contour>
    <contour>
      <point x="566" y="4" type="curve"/>
      <point x="663" y="4"/>
      <point x="820" y="1"/>
      <point x="947" y="0" type="curve"/>
      <point x="942" y="65"/>
      <point x="938" y="152"/>
      <point x="938" y="210" type="curve"/>
      <point x="873" y="210" type="line"/>
      <point x="852" y="89" type="line"/>
      <point x="819" y="74"/>
      <point x="766" y="65"/>
      <point x="705" y="65" type="curve" smooth="yes"/>
      <point x="670" y="65"/>
      <point x="656" y="67"/>
      <point x="639" y="70" type="curve"/>
      <point x="637" y="136"/>
      <point x="637" y="186"/>
      <point x="637" y="253" type="curve" smooth="yes"/>
      <point x="637" y="362"/>
      <point x="638" y="461"/>
      <point x="639" y="587" type="curve"/>
      <point x="667" y="591"/>
      <point x="683" y="592"/>
      <point x="712" y="592" type="curve" smooth="yes"/>
      <point x="764" y="592"/>
      <point x="797" y="586"/>
      <point x="846" y="569" type="curve"/>
      <point x="865" y="462" type="line"/>
      <point x="929" y="462" type="line"/>
      <point x="930" y="511"/>
      <point x="933" y="588"/>
      <point x="937" y="659" type="curve"/>
      <point x="860" y="656"/>
      <point x="770" y="655"/>
      <point x="671" y="655" type="curve" smooth="yes"/>
      <point x="641" y="655"/>
      <point x="598" y="655"/>
      <point x="565" y="655" type="curve"/>
      <point x="457" y="655"/>
      <point x="456" y="669"/>
      <point x="370" y="669" type="curve" smooth="yes"/>
      <point x="126" y="669"/>
      <point x="40" y="502"/>
      <point x="40" y="333" type="curve" smooth="yes"/>
      <point x="40" y="163"/>
      <point x="140" y="-9"/>
      <point x="371" y="-9" type="curve" smooth="yes"/>
      <point x="439" y="-9"/>
      <point x="460" y="0"/>
    </contour>
    <contour>
      <point x="489" y="20" type="curve"/>
      <point x="509" y="80"/>
      <point x="565" y="74"/>
      <point x="550" y="199" type="curve"/>
      <point x="521" y="80"/>
      <point x="451" y="51"/>
      <point x="390" y="51" type="curve" smooth="yes"/>
      <point x="253" y="51"/>
      <point x="178" y="215"/>
      <point x="178" y="357" type="curve" smooth="yes"/>
      <point x="178" y="515"/>
      <point x="248" y="614"/>
      <point x="357" y="614" type="curve" smooth="yes"/>
      <point x="427" y="614"/>
      <point x="494" y="566"/>
      <point x="533" y="446" type="curve"/>
      <point x="533" y="530"/>
      <point x="533" y="583"/>
      <point x="489" y="610" type="curve"/>
      <point x="492" y="542"/>
      <point x="493" y="459"/>
      <point x="493" y="372" type="curve" smooth="yes"/>
      <point x="493" y="266"/>
      <point x="491" y="122"/>
    </contour>
  </outline>
</glyph>
<glyph name="breve" format="2">
  <advance width="311"/>
  <unicode hex="02D8"/>
  <anchor x="157" y="430" name="_top"/>
  <outline>
    <contour>
      <point x="268" y="666" type="line"/>
      <point x="268" y="622"/>
      <point x="249" y="545"/>
      <point x="183" y="534" type="curve"/>
      <point x="130" y="540"/>
      <point x="90" y="586"/>
      <point x="82" y="671" type="curve"/>
      <point x="0" y="654" type="line"/>
      <point x="0" y="540"/>
      <point x="73" y="478"/>
      <point x="159" y="478" type="curve" smooth="yes"/>
      <point x="239" y="478"/>
      <point x="311" y="545"/>
      <point x="311" y="654" type="curve"/>
    </contour>
  </outline>
</glyph>
<glyph name="ring" format="1">
  <advance width="219"/>
  <unicode hex="02DA"/>
  <outline>
    <contour>
      <point x="110" y="540" type="curve" smooth="yes"/>
      <point x="84" y="540"/>
      <point x="62" y="561"/>
      <point x="62" y="588" type="curve" smooth="yes"/>
      <point x="62" y="614"/>
      <point x="83" y="635"/>
      <point x="110" y="635" type="curve" smooth="yes"/>
      <point x="136" y="635"/>
      <point x="157" y="614"/>
      <point x="157" y="588" type="curve" smooth="yes"/>
      <point x="157" y="561"/>
      <point x="136" y="540"/>
    </contour>
    <contour>
      <point x="110" y="478" type="curve" smooth="yes"/>
      <point x="170" y="478"/>
      <point x="219" y="527"/>
      <point x="219" y="588" type="curve" smooth="yes"/>
      <point x="219" y="648"/>
      <point x="170" y="697"/>
      <point x="110" y="697" type="curve" smooth="yes"/>
      <point x="49" y="697"/>
      <point x="0" y="648"/>
      <point x="0" y="588" type="curve" smooth="yes"/>
      <point x="0" y="527"/>
      <point x="49" y="478"/>
    </contour>
    <contour>
      <point x="110" y="430" type="move" name="_top"/>
    </contour>
  </outline>
</glyph>
<glyph name="commaaccent" format="2">
  <unicode hex="0326"/>
  <anchor x="-107" y="0" name="_bottom"/>
  <outline>
    <contour>
      <point x="-63" y="-231"/>
      <point x="-29" y="-193"/>
      <point x="-29" y="-135" type="curve" smooth="yes"/>
      <point x="-29" y="-90"/>
      <point x="-59" y="-48"/>
      <point x="-110" y="-48" type="curve" smooth="yes"/>
      <point x="-135" y="-48"/>
      <point x="-151" y="-53"/>
      <point x="-165" y="-61" type="curve"/>
      <point x="-169" y="-71"/>
      <point x="-172" y="-87"/>
      <point x="-172" y="-102" type="curve" smooth="yes"/>
      <point x="-172" y="-116"/>
      <point x="-169" y="-131"/>
      <point x="-165" y="-143" type="curve"/>
      <point x="-153" y="-148"/>
      <point x="-136" y="-150"/>
      <point x="-122" y="-150" type="curve" smooth="yes"/>
      <point x="-107" y="-150"/>
      <point x="-99" y="-148"/>
      <point x="-87" y="-143" type="curve"/>
      <point x="-85" y="-147"/>
      <point x="-84" y="-152"/>
      <point x="-84" y="-156" type="curve" smooth="yes"/>
      <point x="-84" y="-178"/>
      <point x="-104" y="-196"/>
      <point x="-143" y="-209" type="curve"/>
      <point x="-131" y="-250" type="line"/>
    </contour>
  </outline>
</glyph>
<glyph name="mark-ar" format="1">
  <advance width="540"/>
  <unicode hex="061C"/>
  <outline>
    <contour>
      <point x="50" y="0" type="curve" smooth="yes"/>
      <point x="59" y="0"/>
      <point x="66" y="7"/>
      <point x="66" y="16" type="curve" smooth="yes"/>
      <point x="66" y="24"/>
      <point x="59" y="31"/>
      <point x="50" y="31" type="curve" smooth="yes"/>
      <point x="42" y="31"/>
      <point x="35" y="24"/>
      <point x="35" y="16" type="curve" smooth="yes"/>
      <point x="35" y="7"/>
      <point x="42" y="0"/>
    </contour>
    <contour>
      <point x="50" y="73" type="curve" smooth="yes"/>
      <point x="59" y="73"/>
      <point x="66" y="80"/>
      <point x="66" y="89" type="curve" smooth="yes"/>
      <point x="66" y="97"/>
      <point x="59" y="104"/>
      <point x="50" y="104" type="curve" smooth="yes"/>
      <point x="42" y="104"/>
      <point x="35" y="97"/>
      <point x="35" y="89" type="curve" smooth="yes"/>
      <point x="35" y="80"/>
      <point x="42" y="73"/>
    </contour>
    <contour>
      <point x="124" y="0" type="curve" smooth="yes"/>
      <point x="132" y="0"/>
      <point x="139" y="7"/>
      <point x="139" y="16" type="curve" smooth="yes"/>
      <point x="139" y="24"/>
      <point x="132" y="31"/>
      <point x="124" y="31" type="curve" smooth="yes"/>
      <point x="115" y="31"/>
      <point x="108" y="24"/>
      <point x="108" y="16" type="curve" smooth="yes"/>
      <point x="108" y="7"/>
      <point x="115" y="0"/>
    </contour>
    <contour>
      <point x="197" y="0" type="curve" smooth="yes"/>
      <point x="205" y="0"/>
      <point x="212" y="7"/>
      <point x="212" y="16" type="curve" smooth="yes"/>
      <point x="212" y="24"/>
      <point x="205" y="31"/>
      <point x="197" y="31" type="curve" smooth="yes"/>
      <point x="188" y="31"/>
      <point x="181" y="24"/>
      <point x="181" y="16" type="curve" smooth="yes"/>
      <point x="181" y="7"/>
      <point x="188" y="0"/>
    </contour>
    <contour>
      <point x="50" y="146" type="curve" smooth="yes"/>
      <point x="59" y="146"/>
      <point x="66" y="154"/>
      <point x="66" y="162" type="curve" smooth="yes"/>
      <point x="66" y="171"/>
      <point x="59" y="178"/>
      <point x="50" y="178" type="curve" smooth="yes"/>
      <point x="42" y="178"/>
      <point x="35" y="171"/>
      <point x="35" y="162" type="curve" smooth="yes"/>
      <point x="35" y="154"/>
      <point x="42" y="146"/>
    </contour>
    <contour>
      <point x="270" y="0" type="curve" smooth="yes"/>
      <point x="279" y="0"/>
      <point x="286" y="7"/>
      <point x="286" y="16" type="curve" smooth="yes"/>
      <point x="286" y="24"/>
      <point x="279" y="31"/>
      <point x="270" y="31" type="curve" smooth="yes"/>
      <point x="261" y="31"/>
      <point x="254" y="24"/>
      <point x="254" y="16" type="curve" smooth="yes"/>
      <point x="254" y="7"/>
      <point x="261" y="0"/>
    </contour>
    <contour>
      <point x="50" y="220" type="curve" smooth="yes"/>
      <point x="59" y="220"/>
      <point x="66" y="227"/>
      <point x="66" y="235" type="curve" smooth="yes"/>
      <point x="66" y="244"/>
      <point x="59" y="251"/>
      <point x="50" y="251" type="curve" smooth="yes"/>
      <point x="42" y="251"/>
      <point x="35" y="244"/>
      <point x="35" y="235" type="curve" smooth="yes"/>
      <point x="35" y="227"/>
      <point x="42" y="220"/>
    </contour>
    <contour>
      <point x="50" y="293" type="curve" smooth="yes"/>
      <point x="59" y="293"/>
      <point x="66" y="300"/>
      <point x="66" y="309" type="curve" smooth="yes"/>
      <point x="66" y="317"/>
      <point x="59" y="324"/>
      <point x="50" y="324" type="curve" smooth="yes"/>
      <point x="42" y="324"/>
      <point x="35" y="317"/>
      <point x="35" y="309" type="curve" smooth="yes"/>
      <point x="35" y="300"/>
      <point x="42" y="293"/>
    </contour>
    <contour>
      <point x="343" y="0" type="curve" smooth="yes"/>
      <point x="352" y="0"/>
      <point x="359" y="7"/>
      <point x="359" y="16" type="curve" smooth="yes"/>
      <point x="359" y="24"/>
      <point x="352" y="31"/>
      <point x="343" y="31" type="curve" smooth="yes"/>
      <point x="335" y="31"/>
      <point x="328" y="24"/>
      <point x="328" y="16" type="curve" smooth="yes"/>
      <point x="328" y="7"/>
      <point x="335" y="0"/>
    </contour>
    <contour>
      <point x="50" y="366" type="curve" smooth="yes"/>
      <point x="59" y="366"/>
      <point x="66" y="373"/>
      <point x="66" y="382" type="curve" smooth="yes"/>
      <point x="66" y="390"/>
      <point x="59" y="397"/>
      <point x="50" y="397" type="curve" smooth="yes"/>
      <point x="42" y="397"/>
      <point x="35" y="390"/>
      <point x="35" y="382" type="curve" smooth="yes"/>
      <point x="35" y="373"/>
      <point x="42" y="366"/>
    </contour>
    <contour>
      <point x="416" y="0" type="curve" smooth="yes"/>
      <point x="425" y="0"/>
      <point x="432" y="7"/>
      <point x="432" y="16" type="curve" smooth="yes"/>
      <point x="432" y="24"/>
      <point x="425" y="31"/>
      <point x="416" y="31" type="curve" smooth="yes"/>
      <point x="408" y="31"/>
      <point x="401" y="24"/>
      <point x="401" y="16" type="curve" smooth="yes"/>
      <point x="401" y="7"/>
      <point x="408" y="0"/>
    </contour>
    <contour>
      <point x="490" y="0" type="curve" smooth="yes"/>
      <point x="498" y="0"/>
      <point x="505" y="7"/>
      <point x="505" y="16" type="curve" smooth="yes"/>
      <point x="505" y="24"/>
      <point x="498" y="31"/>
      <point x="490" y="31" type="curve" smooth="yes"/>
      <point x="481" y="31"/>
      <point x="474" y="24"/>
      <point x="474" y="16" type="curve" smooth="yes"/>
      <point x="474" y="7"/>
      <point x="481" y="0"/>
    </contour>
    <contour>
      <point x="50" y="439" type="curve" smooth="yes"/>
      <point x="59" y="439"/>
      <point x="66" y="447"/>
      <point x="66" y="455" type="curve" smooth="yes"/>
      <point x="66" y="464"/>
      <point x="59" y="471"/>
      <point x="50" y="471" type="curve" smooth="yes"/>
      <point x="42" y="471"/>
      <point x="35" y="464"/>
      <point x="35" y="455" type="curve" smooth="yes"/>
      <point x="35" y="447"/>
      <point x="42" y="439"/>
    </contour>
    <contour>
      <point x="490" y="73" type="curve" smooth="yes"/>
      <point x="498" y="73"/>
      <point x="505" y="80"/>
      <point x="505" y="89" type="curve" smooth="yes"/>
      <point x="505" y="97"/>
      <point x="498" y="104"/>
      <point x="490" y="104" type="curve" smooth="yes"/>
      <point x="481" y="104"/>
      <point x="474" y="97"/>
      <point x="474" y="89" type="curve" smooth="yes"/>
      <point x="474" y="80"/>
      <point x="481" y="73"/>
    </contour>
    <contour>
      <point x="124" y="439" type="curve" smooth="yes"/>
      <point x="132" y="439"/>
      <point x="139" y="447"/>
      <point x="139" y="455" type="curve" smooth="yes"/>
      <point x="139" y="464"/>
      <point x="132" y="471"/>
      <point x="124" y="471" type="curve" smooth="yes"/>
      <point x="115" y="471"/>
      <point x="108" y="464"/>
      <point x="108" y="455" type="curve" smooth="yes"/>
      <point x="108" y="447"/>
      <point x="115" y="439"/>
    </contour>
    <contour>
      <point x="197" y="439" type="curve" smooth="yes"/>
      <point x="205" y="439"/>
      <point x="212" y="447"/>
      <point x="212" y="455" type="curve" smooth="yes"/>
      <point x="212" y="464"/>
      <point x="205" y="471"/>
      <point x="197" y="471" type="curve" smooth="yes"/>
      <point x="188" y="471"/>
      <point x="181" y="464"/>
      <point x="181" y="455" type="curve" smooth="yes"/>
      <point x="181" y="447"/>
      <point x="188" y="439"/>
    </contour>
    <contour>
      <point x="490" y="146" type="curve" smooth="yes"/>
      <point x="498" y="146"/>
      <point x="505" y="154"/>
      <point x="505" y="162" type="curve" smooth="yes"/>
      <point x="505" y="171"/>
      <point x="498" y="178"/>
      <point x="490" y="178" type="curve" smooth="yes"/>
      <point x="481" y="178"/>
      <point x="474" y="171"/>
      <point x="474" y="162" type="curve" smooth="yes"/>
      <point x="474" y="154"/>
      <point x="481" y="146"/>
    </contour>
    <contour>
      <point x="270" y="439" type="curve" smooth="yes"/>
      <point x="279" y="439"/>
      <point x="286" y="447"/>
      <point x="286" y="455" type="curve" smooth="yes"/>
      <point x="286" y="464"/>
      <point x="279" y="471"/>
      <point x="270" y="471" type="curve" smooth="yes"/>
      <point x="261" y="471"/>
      <point x="254" y="464"/>
      <point x="254" y="455" type="curve" smooth="yes"/>
      <point x="254" y="447"/>
      <point x="261" y="439"/>
    </contour>
    <contour>
      <point x="490" y="220" type="curve" smooth="yes"/>
      <point x="498" y="220"/>
      <point x="505" y="227"/>
      <point x="505" y="235" type="curve" smooth="yes"/>
      <point x="505" y="244"/>
      <point x="498" y="251"/>
      <point x="490" y="251" type="curve" smooth="yes"/>
      <point x="481" y="251"/>
      <point x="474" y="244"/>
      <point x="474" y="235" type="curve" smooth="yes"/>
      <point x="474" y="227"/>
      <point x="481" y="220"/>
    </contour>
    <contour>
      <point x="490" y="293" type="curve" smooth="yes"/>
      <point x="498" y="293"/>
      <point x="505" y="300"/>
      <point x="505" y="309" type="curve" smooth="yes"/>
      <point x="505" y="317"/>
      <point x="498" y="324"/>
      <point x="490" y="324" type="curve" smooth="yes"/>
      <point x="481" y="324"/>
      <point x="474" y="317"/>
      <point x="474" y="309" type="curve" smooth="yes"/>
      <point x="474" y="300"/>
      <point x="481" y="293"/>
    </contour>
    <contour>
      <point x="343" y="439" type="curve" smooth="yes"/>
      <point x="352" y="439"/>
      <point x="359" y="447"/>
      <point x="359" y="455" type="curve" smooth="yes"/>
      <point x="359" y="464"/>
      <point x="352" y="471"/>
      <point x="343" y="471" type="curve" smooth="yes"/>
      <point x="335" y="471"/>
      <point x="328" y="464"/>
      <point x="328" y="455" type="curve" smooth="yes"/>
      <point x="328" y="447"/>
      <point x="335" y="439"/>
    </contour>
    <contour>
      <point x="490" y="366" type="curve" smooth="yes"/>
      <point x="498" y="366"/>
      <point x="505" y="373"/>
      <point x="505" y="382" type="curve" smooth="yes"/>
      <point x="505" y="390"/>
      <point x="498" y="397"/>
      <point x="490" y="397" type="curve" smooth="yes"/>
      <point x="481" y="397"/>
      <point x="474" y="390"/>
      <point x="474" y="382" type="curve" smooth="yes"/>
      <point x="474" y="373"/>
      <point x="481" y="366"/>
    </contour>
    <contour>
      <point x="416" y="439" type="curve" smooth="yes"/>
      <point x="425" y="439"/>
      <point x="432" y="447"/>
      <point x="432" y="455" type="curve" smooth="yes"/>
      <point x="432" y="464"/>
      <point x="425" y="471"/>
      <point x="416" y="471" type="curve" smooth="yes"/>
      <point x="408" y="471"/>
      <point x="401" y="464"/>
      <point x="401" y="455" type="curve" smooth="yes"/>
      <point x="401" y="447"/>
      <point x="408" y="439"/>
    </contour>
    <contour>
      <point x="490" y="439" type="curve" smooth="yes"/>
      <point x="498" y="439"/>
      <point x="505" y="447"/>
      <point x="505" y="455" type="curve" smooth="yes"/>
      <point x="505" y="464"/>
      <point x="498" y="471"/>
      <point x="490" y="471" type="curve" smooth="yes"/>
      <point x="481" y="471"/>
      <point x="474" y="464"/>
      <point x="474" y="455" type="curve" smooth="yes"/>
      <point x="474" y="447"/>
      <point x="481" y="439"/>
    </contour>
    <contour>
      <point x="304" y="182" type="curve"/>
      <point x="303" y="194"/>
      <point x="303" y="207"/>
      <point x="303" y="219" type="curve"/>
      <point x="293" y="219" type="line"/>
      <point x="290" y="196" type="line"/>
      <point x="281" y="193"/>
      <point x="269" y="192"/>
      <point x="258" y="192" type="curve" smooth="yes"/>
      <point x="253" y="192"/>
      <point x="246" y="192"/>
      <point x="239" y="193" type="curve"/>
      <point x="239" y="221"/>
      <point x="239" y="243"/>
      <point x="239" y="262" type="curve" smooth="yes"/>
      <point x="239" y="274"/>
      <point x="239" y="287"/>
      <point x="239" y="302" type="curve"/>
      <point x="262" y="306" type="line"/>
      <point x="260" y="313" type="line"/>
      <point x="250" y="312"/>
      <point x="217" y="312"/>
      <point x="206" y="313" type="curve"/>
      <point x="204" y="306" type="line"/>
      <point x="222" y="302" type="line"/>
      <point x="223" y="281"/>
      <point x="223" y="262"/>
      <point x="223" y="245" type="curve" smooth="yes"/>
      <point x="223" y="228"/>
      <point x="223" y="213"/>
      <point x="222" y="192" type="curve"/>
      <point x="204" y="189" type="line"/>
      <point x="206" y="182" type="line"/>
      <point x="214" y="182"/>
      <point x="223" y="183"/>
      <point x="231" y="183" type="curve" smooth="yes"/>
      <point x="269" y="183"/>
      <point x="283" y="182"/>
    </contour>
    <contour>
      <point x="187" y="192" type="line"/>
      <point x="171" y="227"/>
      <point x="152" y="271"/>
      <point x="137" y="314" type="curve"/>
      <point x="133" y="314" type="line"/>
      <point x="119" y="274"/>
      <point x="94" y="215"/>
      <point x="83" y="192" type="curve"/>
      <point x="68" y="189" type="line"/>
      <point x="70" y="182" type="line"/>
      <point x="78" y="182"/>
      <point x="83" y="183"/>
      <point x="90" y="183" type="curve" smooth="yes"/>
      <point x="97" y="183"/>
      <point x="101" y="182"/>
      <point x="111" y="182" type="curve"/>
      <point x="112" y="189" type="line"/>
      <point x="97" y="192" type="line"/>
      <point x="99" y="196"/>
      <point x="101" y="205"/>
      <point x="105" y="215" type="curve"/>
      <point x="115" y="216"/>
      <point x="123" y="216"/>
      <point x="130" y="216" type="curve" smooth="yes"/>
      <point x="139" y="216"/>
      <point x="148" y="216"/>
      <point x="158" y="215" type="curve"/>
      <point x="162" y="206"/>
      <point x="165" y="199"/>
      <point x="167" y="192" type="curve"/>
      <point x="151" y="189" type="line"/>
      <point x="154" y="182" type="line"/>
      <point x="161" y="182"/>
      <point x="170" y="183"/>
      <point x="176" y="183" type="curve" smooth="yes"/>
      <point x="184" y="183"/>
      <point x="192" y="182"/>
      <point x="200" y="182" type="curve"/>
      <point x="202" y="189" type="line"/>
    </contour>
    <contour>
      <point x="130" y="226" type="curve" smooth="yes"/>
      <point x="124" y="226"/>
      <point x="117" y="226"/>
      <point x="110" y="227" type="curve"/>
      <point x="116" y="247"/>
      <point x="125" y="269"/>
      <point x="132" y="284" type="curve"/>
      <point x="139" y="267"/>
      <point x="147" y="245"/>
      <point x="155" y="227" type="curve"/>
      <point x="146" y="226"/>
      <point x="138" y="226"/>
    </contour>
    <contour>
      <point x="453" y="192" type="line"/>
      <point x="449" y="236"/>
      <point x="448" y="258"/>
      <point x="445" y="302" type="curve"/>
      <point x="463" y="306" type="line"/>
      <point x="459" y="313" type="line"/>
      <point x="451" y="312"/>
      <point x="436" y="312"/>
      <point x="426" y="313" type="curve"/>
      <point x="418" y="282"/>
      <point x="404" y="245"/>
      <point x="393" y="216" type="curve"/>
      <point x="381" y="248"/>
      <point x="371" y="273"/>
      <point x="357" y="313" type="curve"/>
      <point x="351" y="312"/>
      <point x="326" y="312"/>
      <point x="320" y="313" type="curve"/>
      <point x="317" y="306" type="line"/>
      <point x="336" y="302" type="line"/>
      <point x="335" y="271"/>
      <point x="333" y="227"/>
      <point x="328" y="192" type="curve"/>
      <point x="309" y="189" type="line"/>
      <point x="311" y="182" type="line"/>
      <point x="319" y="182"/>
      <point x="325" y="183"/>
      <point x="335" y="183" type="curve" smooth="yes"/>
      <point x="345" y="183"/>
      <point x="352" y="182"/>
      <point x="361" y="182" type="curve"/>
      <point x="364" y="189" type="line"/>
      <point x="344" y="192" type="line"/>
      <point x="343" y="222"/>
      <point x="345" y="259"/>
      <point x="347" y="289" type="curve"/>
      <point x="364" y="245"/>
      <point x="370" y="226"/>
      <point x="386" y="181" type="curve"/>
      <point x="391" y="181" type="line"/>
      <point x="405" y="223"/>
      <point x="421" y="261"/>
      <point x="429" y="285" type="curve"/>
      <point x="431" y="256"/>
      <point x="433" y="229"/>
      <point x="434" y="192" type="curve"/>
      <point x="416" y="189" type="line"/>
      <point x="419" y="182" type="line"/>
      <point x="426" y="182"/>
      <point x="434" y="183"/>
      <point x="443" y="183" type="curve" smooth="yes"/>
      <point x="453" y="183"/>
      <point x="460" y="182"/>
      <point x="467" y="182" type="curve"/>
      <point x="469" y="189" type="line"/>
    </contour>
  </outline>
</glyph>
<glyph name="threedotsup-ar" format="2">
  <advance width="343"/>
  <unicode hex="061E"/>
  <anchor x="170" y="-35" name="_top"/>
  <outline>
    <contour>
      <point x="140" y="208" type="curve" smooth="yes"/>
      <point x="130" y="204"/>
      <point x="126" y="187"/>
      <point x="126" y="164" type="curve" smooth="yes"/>
      <point x="126" y="145"/>
      <point x="128" y="125"/>
      <point x="132" y="111" type="curve"/>
      <point x="141" y="111"/>
      <point x="151" y="110"/>
      <point x="161" y="110" type="curve" smooth="yes"/>
      <point x="185" y="110"/>
      <point x="210" y="112"/>
      <point x="216" y="116" type="curve" smooth="yes"/>
      <point x="223" y="121"/>
      <point x="228" y="137"/>
      <point x="228" y="159" type="curve" smooth="yes"/>
      <point x="228" y="177"/>
      <point x="226" y="198"/>
      <point x="221" y="212" type="curve"/>
      <point x="214" y="213"/>
      <point x="203" y="213"/>
      <point x="193" y="213" type="curve" smooth="yes"/>
      <point x="172" y="213"/>
      <point x="147" y="212"/>
    </contour>
    <contour>
      <point x="74" y="88" type="curve" smooth="yes"/>
      <point x="64" y="84"/>
      <point x="60" y="67"/>
      <point x="60" y="44" type="curve" smooth="yes"/>
      <point x="60" y="25"/>
      <point x="62" y="5"/>
      <point x="66" y="-9" type="curve"/>
      <point x="75" y="-9"/>
      <point x="85" y="-10"/>
      <point x="95" y="-10" type="curve" smooth="yes"/>
      <point x="119" y="-10"/>
      <point x="144" y="-8"/>
      <point x="150" y="-4" type="curve" smooth="yes"/>
      <point x="157" y="1"/>
      <point x="162" y="17"/>
      <point x="162" y="39" type="curve" smooth="yes"/>
      <point x="162" y="57"/>
      <point x="160" y="78"/>
      <point x="155" y="92" type="curve"/>
      <point x="148" y="93"/>
      <point x="137" y="93"/>
      <point x="127" y="93" type="curve" smooth="yes"/>
      <point x="106" y="93"/>
      <point x="81" y="92"/>
    </contour>
    <contour>
      <point x="195" y="93" type="curve" smooth="yes"/>
      <point x="185" y="89"/>
      <point x="181" y="72"/>
      <point x="181" y="49" type="curve" smooth="yes"/>
      <point x="181" y="30"/>
      <point x="183" y="10"/>
      <point x="187" y="-4" type="curve"/>
      <point x="196" y="-4"/>
      <point x="206" y="-5"/>
      <point x="216" y="-5" type="curve" smooth="yes"/>
      <point x="240" y="-5"/>
      <point x="265" y="-3"/>
      <point x="271" y="1" type="curve" smooth="yes"/>
      <point x="278" y="6"/>
      <point x="283" y="22"/>
      <point x="283" y="44" type="curve" smooth="yes"/>
      <point x="283" y="62"/>
      <point x="281" y="83"/>
      <point x="276" y="97" type="curve"/>
      <point x="269" y="98"/>
      <point x="258" y="98"/>
      <point x="248" y="98" type="curve" smooth="yes"/>
      <point x="227" y="98"/>
      <point x="202" y="97"/>
    </contour>
  </outline>
</glyph>
<glyph name="alefHamzabelow-ar" format="2">
  <advance width="287"/>
  <unicode hex="0625"/>
  <anchor x="89" y="-15" name="bottom"/>
  <anchor x="87" y="588" name="top"/>
  <outline>
    <contour>
      <point x="74" y="0" type="line"/>
      <point x="122" y="0"/>
      <point x="154" y="1"/>
      <point x="252" y="1" type="curve"/>
      <point x="252" y="14"/>
      <point x="251" y="44"/>
      <point x="244" y="44" type="curve" smooth="yes"/>
      <point x="115" y="44" type="line"/>
      <point x="106" y="44"/>
      <point x="111" y="74"/>
      <point x="118" y="74" type="curve"/>
      <point x="252" y="74" type="line"/>
      <point x="252" y="87"/>
      <point x="251" y="118"/>
      <point x="244" y="118" type="curve" smooth="yes"/>
      <point x="116" y="118" type="line"/>
      <point x="108" y="118"/>
      <point x="113" y="148"/>
      <point x="121" y="148" type="curve"/>
      <point x="252" y="148" type="line"/>
      <point x="252" y="160"/>
      <point x="251" y="191"/>
      <point x="244" y="191" type="curve" smooth="yes"/>
      <point x="119" y="191" type="line" smooth="yes"/>
      <point x="115" y="191"/>
      <point x="114" y="193"/>
      <point x="114" y="210" type="curve"/>
      <point x="102" y="212"/>
      <point x="102" y="191"/>
      <point x="90" y="191" type="curve"/>
    </contour>
    <contour>
      <point x="110" y="179"/>
      <point x="122" y="329"/>
      <point x="127" y="556" type="curve"/>
      <point x="100" y="556"/>
      <point x="72" y="550"/>
      <point x="55" y="542" type="curve" smooth="yes"/>
      <point x="48" y="538"/>
      <point x="45" y="536"/>
      <point x="45" y="529" type="curve" smooth="yes"/>
      <point x="45" y="528"/>
      <point x="45" y="527"/>
      <point x="45" y="526" type="curve" smooth="yes"/>
      <point x="56" y="315"/>
      <point x="61" y="0"/>
      <point x="74" y="0" type="curve"/>
      <point x="89" y="0"/>
      <point x="110" y="8"/>
      <point x="110" y="16" type="curve" smooth="yes"/>
    </contour>
  </outline>
</glyph>
<glyph name="alef-ar" format="2">
  <advance width="178"/>
  <unicode hex="0627"/>
  <anchor x="89" y="-120" name="bottom"/>
  <anchor x="92" y="588" name="top"/>
  <outline>
    <contour>
      <point x="112" y="89"/>
      <point x="122" y="329"/>
      <point x="127" y="556" type="curve"/>
      <point x="100" y="556"/>
      <point x="72" y="550"/>
      <point x="55" y="542" type="curve" smooth="yes"/>
      <point x="48" y="538"/>
      <point x="45" y="536"/>
      <point x="45" y="529" type="curve" smooth="yes"/>
      <point x="45" y="528"/>
      <point x="45" y="527"/>
      <point x="45" y="526" type="curve" smooth="yes"/>
      <point x="56" y="315"/>
      <point x="63" y="129"/>
      <point x="68" y="-96" type="curve"/>
      <point x="83" y="-96"/>
      <point x="108" y="-92"/>
      <point x="108" y="-74" type="curve" smooth="yes"/>
    </contour>
  </outline>
</glyph>
<glyph name="khah-ar" format="1">
  <advance width="526"/>
  <unicode hex="062E"/>
  <outline>
    <component base="hah-ar"/>
    <component base="dotabove-ar" xOffset="162" yOffset="87"/>
    <contour>
      <point x="263" y="-40" type="move" name="bottom"/>
    </contour>
    <contour>
      <point x="274" y="608" type="move" name="top"/>
    </contour>
  </outline>
</glyph>
<glyph name="dal-ar" format="2">
  <advance width="463"/>
  <unicode hex="062F"/>
  <anchor x="325" y="-40" name="bottom"/>
  <anchor x="292" y="295" name="top"/>
  <outline>
    <contour>
      <point x="136" y="530" type="curve"/>
      <point x="114" y="530"/>
      <point x="85" y="526"/>
      <point x="68" y="518" type="curve" smooth="yes"/>
      <point x="61" y="514"/>
      <point x="55" y="509"/>
      <point x="55" y="500" type="curve" smooth="yes"/>
      <point x="55" y="464"/>
      <point x="64" y="367"/>
      <point x="68" y="267" type="curve" smooth="yes"/>
      <point x="73" y="147"/>
      <point x="113" y="140"/>
      <point x="113" y="130" type="curve" smooth="yes"/>
      <point x="113" y="121"/>
      <point x="78" y="115"/>
      <point x="78" y="30" type="curve" smooth="yes"/>
      <point x="78" y="23"/>
      <point x="78" y="15"/>
      <point x="79" y="7" type="curve" smooth="yes"/>
      <point x="84" y="-70"/>
      <point x="87" y="-143"/>
      <point x="97" y="-271" type="curve"/>
      <point x="119" y="-271"/>
      <point x="133" y="-261"/>
      <point x="133" y="-246" type="curve" smooth="yes"/>
      <point x="133" y="-225"/>
      <point x="137" y="-133"/>
      <point x="144" y="-45" type="curve" smooth="yes"/>
      <point x="146" y="-19"/>
      <point x="148" y="-4"/>
      <point x="193" y="-1" type="curve" smooth="yes"/>
      <point x="210" y="0"/>
      <point x="242" y="1"/>
      <point x="286" y="1" type="curve" smooth="yes"/>
      <point x="302" y="1"/>
      <point x="348" y="1"/>
      <point x="362" y="1" type="curve" smooth="yes"/>
      <point x="389" y="0"/>
      <point x="403" y="65"/>
      <point x="403" y="138" type="curve" smooth="yes"/>
      <point x="403" y="181"/>
      <point x="398" y="217"/>
      <point x="388" y="254" type="curve"/>
      <point x="315" y="250"/>
      <point x="266" y="249"/>
      <point x="194" y="249" type="curve" smooth="yes"/>
      <point x="132" y="249"/>
      <point x="127" y="266"/>
      <point x="127" y="336" type="curve" smooth="yes"/>
      <point x="127" y="410"/>
      <point x="132" y="475"/>
    </contour>
  </outline>
</glyph>
<glyph name="thal-ar" format="1">
  <advance width="463"/>
  <unicode hex="0630"/>
  <outline>
    <component base="dal-ar"/>
    <component base="dotabove-ar" xOffset="181" yOffset="11"/>
    <contour>
      <point x="315" y="-40" type="move" name="bottom"/>
    </contour>
    <contour>
      <point x="291" y="540" type="move" name="top"/>
    </contour>
  </outline>
</glyph>
<glyph name="zain-ar" format="1">
  <advance width="338"/>
  <unicode hex="0632"/>
  <outline>
    <component base="reh-ar"/>
    <component base="dotabove-ar" xOffset="66" yOffset="-16"/>
    <contour>
      <point x="209" y="-212" type="move" name="bottom"/>
    </contour>
    <contour>
      <point x="146" y="535" type="move" name="top"/>
    </contour>
  </outline>
</glyph>
<glyph name="sheen-ar" format="1">
  <advance width="485"/>
  <unicode hex="0634"/>
  <outline>
    <component base="seen-ar"/>
    <component base="threedotsupabove-ar" xOffset="57" yOffset="89"/>
    <contour>
      <point x="269" y="-44" type="move" name="bottom"/>
    </contour>
    <contour>
      <point x="229" y="813" type="move" name="top"/>
    </contour>
  </outline>
</glyph>
<glyph name="sad-ar" format="2">
  <advance width="742"/>
  <unicode hex="0635"/>
  <image fileName="../../../../Desktop/Screen Shot 2015-03-13 at 1.50.27 PM.png" xScale="8" yScale="8" xOffset="-1295" yOffset="-610"/>
  <anchor x="379" y="-44" name="bottom"/>
  <anchor x="381" y="430" name="top"/>
  <outline>
    <contour>
      <point x="143" y="223" type="curve" smooth="yes"/>
      <point x="143" y="243"/>
      <point x="148" y="251"/>
      <point x="168" y="254" type="curve" smooth="yes"/>
      <point x="190" y="257"/>
      <point x="251" y="258"/>
      <point x="322" y="258" type="curve" smooth="yes"/>
      <point x="410" y="258"/>
      <point x="512" y="256"/>
      <point x="565" y="253" type="curve" smooth="yes"/>
      <point x="607" y="250"/>
      <point x="616" y="226"/>
      <point x="616" y="163" type="curve" smooth="yes"/>
      <point x="616" y="141"/>
      <point x="610" y="140"/>
      <point x="595" y="140" type="curve" smooth="yes"/>
      <point x="190" y="140" type="line" smooth="yes"/>
      <point x="153" y="140"/>
      <point x="143" y="140"/>
    </contour>
    <contour>
      <point x="181" y="0" type="curve"/>
      <point x="624" y="0" type="line" smooth="yes"/>
      <point x="670" y="0"/>
      <point x="677" y="95"/>
      <point x="677" y="186" type="curve" smooth="yes"/>
      <point x="677" y="349"/>
      <point x="667" y="388"/>
      <point x="618" y="392" type="curve" smooth="yes"/>
      <point x="566" y="396"/>
      <point x="472" y="398"/>
      <point x="378" y="398" type="curve" smooth="yes"/>
      <point x="290" y="398"/>
      <point x="202" y="396"/>
      <point x="151" y="392" type="curve" smooth="yes"/>
      <point x="98" y="387"/>
      <point x="80" y="373"/>
      <point x="80" y="240" type="curve" smooth="yes"/>
      <point x="80" y="187"/>
      <point x="81" y="143"/>
      <point x="81" y="112" type="curve" smooth="yes"/>
      <point x="81" y="92"/>
      <point x="81" y="76"/>
      <point x="80" y="65" type="curve"/>
      <point x="-147" y="-285"/>
      <point x="-581" y="-442"/>
      <point x="-1100" y="-277" type="curve"/>
      <point x="-1100" y="-338"/>
      <point x="-1050" y="-428"/>
      <point x="-1012" y="-437" type="curve" smooth="yes"/>
      <point x="-543" y="-548"/>
      <point x="-115" y="-431"/>
    </contour>
  </outline>
</glyph>
<glyph name="ain-ar" format="2">
  <advance width="511"/>
  <unicode hex="0639"/>
  <anchor x="281" y="-40" name="bottom"/>
  <anchor x="283" y="392" name="top"/>
  <outline>
    <contour>
      <point x="-80" y="-366" type="curve"/>
      <point x="-71" y="-366"/>
      <point x="-49" y="-365"/>
      <point x="-47" y="-351" type="curve" smooth="yes"/>
      <point x="-15" y="-125"/>
      <point x="-1" y="-7"/>
      <point x="174" y="2" type="curve" smooth="yes"/>
      <point x="200" y="3"/>
      <point x="229" y="4"/>
      <point x="259" y="4" type="curve" smooth="yes"/>
      <point x="332" y="4"/>
      <point x="400" y="2"/>
      <point x="445" y="1" type="curve"/>
      <point x="447" y="52"/>
      <point x="445" y="137"/>
      <point x="414" y="140" type="curve" smooth="yes"/>
      <point x="378" y="143"/>
      <point x="346" y="143"/>
      <point x="243" y="143" type="curve" smooth="yes"/>
      <point x="225" y="143"/>
      <point x="219" y="145"/>
      <point x="213" y="198" type="curve" smooth="yes"/>
      <point x="210" y="222"/>
      <point x="223" y="228"/>
      <point x="269" y="228" type="curve" smooth="yes"/>
      <point x="303" y="228"/>
      <point x="370" y="226"/>
      <point x="416" y="221" type="curve"/>
      <point x="418" y="229"/>
      <point x="419" y="243"/>
      <point x="419" y="259" type="curve" smooth="yes"/>
      <point x="419" y="301"/>
      <point x="412" y="358"/>
      <point x="397" y="359" type="curve" smooth="yes"/>
      <point x="341" y="363"/>
      <point x="273" y="365"/>
      <point x="215" y="364" type="curve" smooth="yes"/>
      <point x="162" y="363"/>
      <point x="123" y="354"/>
      <point x="123" y="309" type="curve" smooth="yes"/>
      <point x="123" y="256"/>
      <point x="137" y="239"/>
      <point x="152" y="158" type="curve" smooth="yes"/>
      <point x="155" y="142"/>
      <point x="149" y="136"/>
      <point x="132" y="130" type="curve" smooth="yes"/>
      <point x="-52" y="69"/>
      <point x="-56" y="-73"/>
    </contour>
  </outline>
</glyph>
<glyph name="tatweel-ar" format="2">
  <advance width="105"/>
  <unicode hex="0640"/>
  <anchor x="49" y="-20" name="bottom"/>
  <anchor x="51" y="160" name="top"/>
  <outline>
    <contour>
      <point x="-20" y="0" type="line"/>
      <point x="125" y="0" type="line"/>
      <point x="125" y="140" type="line"/>
      <point x="-20" y="140" type="line"/>
    </contour>
  </outline>
</glyph>
<glyph name="feh-ar" format="1">
  <advance width="530"/>
  <unicode hex="0641"/>
  <outline>
    <component base="fehDotless-ar"/>
    <component base="dotabove-ar" xOffset="59" yOffset="294"/>
    <contour>
      <point x="296" y="-40" type="move" name="bottom"/>
    </contour>
    <contour>
      <point x="195" y="818" type="move" name="top"/>
    </contour>
  </outline>
</glyph>
<glyph name="qaf-ar" format="1">
  <advance width="530"/>
  <unicode hex="0642"/>
  <outline>
    <component base="qafDotless-ar"/>
    <component base="twodotshorizontalabove-ar" xOffset="16" yOffset="283"/>
    <contour>
      <point x="276" y="-40" type="move" name="bottom"/>
    </contour>
    <contour>
      <point x="198" y="781" type="move" name="top"/>
    </contour>
  </outline>
</glyph>
<glyph name="lam-ar" format="2">
  <advance width="342"/>
  <unicode hex="0644"/>
  <anchor x="214" y="-217" name="bottom"/>
  <anchor x="162" y="566" name="top"/>
  <outline>
    <contour>
      <point x="-727" y="-260" type="curve"/>
      <point x="-727" y="-319"/>
      <point x="-692" y="-388"/>
      <point x="-666" y="-396" type="curve" smooth="yes"/>
      <point x="-588" y="-419"/>
      <point x="-513" y="-430"/>
      <point x="-442" y="-430" type="curve" smooth="yes"/>
      <point x="-199" y="-430"/>
      <point x="10" y="-305"/>
      <point x="212" y="-117" type="curve" smooth="yes"/>
      <point x="243" y="-88"/>
      <point x="257" y="-80"/>
      <point x="258" y="-52" type="curve" smooth="yes"/>
      <point x="259" y="-20"/>
      <point x="260" y="5"/>
      <point x="260" y="32" type="curve" smooth="yes"/>
      <point x="260" y="72"/>
      <point x="258" y="114"/>
      <point x="258" y="178" type="curve" smooth="yes"/>
      <point x="257" y="307"/>
      <point x="252" y="433"/>
      <point x="246" y="533" type="curve"/>
      <point x="241" y="538"/>
      <point x="235" y="541"/>
      <point x="229" y="541" type="curve" smooth="yes"/>
      <point x="224" y="541"/>
      <point x="218" y="539"/>
      <point x="212" y="534" type="curve" smooth="yes"/>
      <point x="191" y="518"/>
      <point x="167" y="501"/>
      <point x="148" y="483" type="curve"/>
      <point x="149" y="433"/>
      <point x="151" y="380"/>
      <point x="153" y="340" type="curve" smooth="yes"/>
      <point x="155" y="304"/>
      <point x="193" y="324"/>
      <point x="197" y="223" type="curve" smooth="yes"/>
      <point x="199" y="177"/>
      <point x="200" y="142"/>
      <point x="200" y="113" type="curve" smooth="yes"/>
      <point x="200" y="74"/>
      <point x="198" y="45"/>
      <point x="196" y="14" type="curve"/>
      <point x="6" y="-202"/>
      <point x="-207" y="-304"/>
      <point x="-444" y="-304" type="curve" smooth="yes"/>
      <point x="-535" y="-304"/>
      <point x="-629" y="-289"/>
    </contour>
  </outline>
</glyph>
<glyph name="meem-ar" format="2">
  <advance width="477"/>
  <unicode hex="0645"/>
  <anchor x="321" y="-44" name="bottom"/>
  <anchor x="211" y="440" name="top"/>
  <outline>
    <contour>
      <point x="264" y="0"/>
      <point x="396" y="0" type="curve" smooth="yes"/>
      <point x="433" y="0"/>
      <point x="435" y="87"/>
      <point x="435" y="196" type="curve" smooth="yes"/>
      <point x="435" y="248"/>
      <point x="431" y="340"/>
      <point x="420" y="421" type="curve" smooth="yes"/>
      <point x="419" y="431"/>
      <point x="385" y="449"/>
      <point x="371" y="449" type="curve"/>
      <point x="248" y="379"/>
      <point x="60" y="199"/>
      <point x="60" y="185" type="curve" smooth="yes"/>
      <point x="60" y="144"/>
      <point x="99" y="-231"/>
      <point x="113" y="-390" type="curve"/>
      <point x="127" y="-390"/>
      <point x="149" y="-384"/>
      <point x="150" y="-371" type="curve" smooth="yes"/>
      <point x="162" y="-183"/>
      <point x="175" y="0"/>
      <point x="194" y="0" type="curve" smooth="yes"/>
      <point x="289" y="0"/>
    </contour>
    <contour>
      <point x="370" y="154" type="curve" smooth="yes"/>
      <point x="370" y="142"/>
      <point x="361" y="140"/>
      <point x="330" y="140" type="curve" smooth="yes"/>
      <point x="283" y="140"/>
      <point x="202" y="140"/>
      <point x="202" y="144" type="curve" smooth="yes"/>
      <point x="202" y="161"/>
      <point x="336" y="263"/>
      <point x="350" y="263" type="curve" smooth="yes"/>
      <point x="359" y="263"/>
      <point x="370" y="192"/>
    </contour>
  </outline>
</glyph>
<glyph name="waw-ar" format="1">
  <advance width="481"/>
  <unicode hex="0648"/>
  <outline>
    <contour>
      <point x="208" y="0" type="curve" smooth="yes"/>
      <point x="273" y="0"/>
      <point x="279" y="-2"/>
      <point x="274" y="-8" type="curve" smooth="yes"/>
      <point x="183" y="-118"/>
      <point x="31" y="-259"/>
      <point x="-176" y="-418" type="curve"/>
      <point x="-174" y="-429"/>
      <point x="-168" y="-437"/>
      <point x="-153" y="-441" type="curve"/>
      <point x="60" y="-321"/>
      <point x="264" y="-196"/>
      <point x="387" y="-79" type="curve" smooth="yes"/>
      <point x="399" y="-68"/>
      <point x="406" y="21"/>
      <point x="406" y="121" type="curve" smooth="yes"/>
      <point x="406" y="224"/>
      <point x="402" y="346"/>
      <point x="397" y="425" type="curve" smooth="yes"/>
      <point x="396" y="434"/>
      <point x="365" y="453"/>
      <point x="357" y="453" type="curve" smooth="yes"/>
      <point x="345" y="453"/>
      <point x="21" y="192"/>
      <point x="21" y="167" type="curve" smooth="yes"/>
      <point x="21" y="141"/>
      <point x="45" y="38"/>
      <point x="62" y="0" type="curve"/>
      <point x="125" y="0"/>
      <point x="141" y="0"/>
    </contour>
    <contour>
      <point x="186" y="144" type="curve" smooth="yes"/>
      <point x="179" y="144"/>
      <point x="178" y="148"/>
      <point x="183" y="152" type="curve" smooth="yes"/>
      <point x="237" y="201"/>
      <point x="311" y="256"/>
      <point x="322" y="256" type="curve" smooth="yes"/>
      <point x="329" y="256"/>
      <point x="338" y="194"/>
      <point x="338" y="160" type="curve" smooth="yes"/>
      <point x="338" y="147"/>
      <point x="337" y="146"/>
      <point x="328" y="145" type="curve" smooth="yes"/>
      <point x="300" y="143"/>
      <point x="280" y="143"/>
      <point x="251" y="143" type="curve" smooth="yes"/>
      <point x="230" y="143"/>
      <point x="201" y="143"/>
    </contour>
    <contour>
      <point x="329" y="-222" type="move" name="bottom"/>
    </contour>
    <contour>
      <point x="161" y="400" type="move" name="top"/>
    </contour>
  </outline>
</glyph>
<glyph name="kasratan-ar" format="1">
  <advance width="299"/>
  <unicode hex="064D"/>
  <outline>
    <component base="kasra-ar" xOffset="40"/>
    <component base="kasra-ar" xOffset="2" yOffset="-89"/>
    <contour>
      <point x="149" y="-49" type="move" name="_bottom"/>
    </contour>
    <contour>
      <point x="121" y="-234" type="move" name="bottom"/>
    </contour>
  </outline>
</glyph>
<glyph name="fatha-ar" format="1">
  <advance width="257"/>
  <unicode hex="064E"/>
  <outline>
    <contour>
      <point x="11" y="606" type="line"/>
      <point x="11" y="591"/>
      <point x="12" y="551"/>
      <point x="19" y="551" type="curve" smooth="yes"/>
      <point x="232" y="551" type="line"/>
      <point x="232" y="566"/>
      <point x="231" y="606"/>
      <point x="224" y="606" type="curve" smooth="yes"/>
    </contour>
    <contour>
      <point x="126" y="527" type="move" name="_top"/>
    </contour>
    <contour>
      <point x="114" y="624" type="move" name="top"/>
    </contour>
    <contour>
      <point x="-60" y="535" type="move" name="top_alef"/>
    </contour>
  </outline>
</glyph>
<glyph name="damma-ar" format="2">
  <unicode hex="064F"/>
  <anchor x="131" y="535" name="_top"/>
  <anchor x="124" y="736" name="top"/>
  <outline>
    <contour>
      <point x="170" y="628" type="curve" smooth="yes"/>
      <point x="170" y="607"/>
      <point x="163" y="606"/>
      <point x="138" y="606" type="curve" smooth="yes"/>
      <point x="12" y="606" type="line"/>
      <point x="12" y="586"/>
      <point x="13" y="551"/>
      <point x="20" y="551" type="curve" smooth="yes"/>
      <point x="170" y="551" type="line" smooth="yes"/>
      <point x="213" y="551"/>
      <point x="223" y="564"/>
      <point x="223" y="643" type="curve" smooth="yes"/>
      <point x="223" y="681"/>
      <point x="220" y="718"/>
      <point x="217" y="743" type="curve" smooth="yes"/>
      <point x="216" y="748"/>
      <point x="161" y="740"/>
      <point x="162" y="733" type="curve" smooth="yes"/>
      <point x="167" y="702"/>
      <point x="170" y="654"/>
    </contour>
  </outline>
</glyph>
<glyph name="shadda-ar" format="1">
  <advance width="263"/>
  <unicode hex="0651"/>
  <outline>
    <contour>
      <point x="37" y="552" type="curve" smooth="yes"/>
      <point x="240" y="552" type="line"/>
      <point x="243" y="571"/>
      <point x="245" y="599"/>
      <point x="245" y="624" type="curve" smooth="yes"/>
      <point x="245" y="652"/>
      <point x="243" y="687"/>
      <point x="239" y="713" type="curve"/>
      <point x="238" y="718"/>
      <point x="184" y="710"/>
      <point x="185" y="703" type="curve"/>
      <point x="190" y="677"/>
      <point x="193" y="654"/>
      <point x="193" y="621" type="curve" smooth="yes"/>
      <point x="193" y="607"/>
      <point x="186" y="607"/>
      <point x="174" y="607" type="curve" smooth="yes"/>
      <point x="166" y="607"/>
      <point x="164" y="609"/>
      <point x="164" y="614" type="curve" smooth="yes"/>
      <point x="164" y="644"/>
      <point x="161" y="681"/>
      <point x="156" y="713" type="curve"/>
      <point x="155" y="718"/>
      <point x="102" y="710"/>
      <point x="103" y="703" type="curve"/>
      <point x="107" y="681"/>
      <point x="111" y="643"/>
      <point x="111" y="625" type="curve" smooth="yes"/>
      <point x="111" y="608"/>
      <point x="106" y="607"/>
      <point x="91" y="607" type="curve" smooth="yes"/>
      <point x="80" y="607"/>
      <point x="80" y="609"/>
      <point x="79" y="629" type="curve" smooth="yes"/>
      <point x="78" y="652"/>
      <point x="74" y="693"/>
      <point x="71" y="713" type="curve"/>
      <point x="71" y="714"/>
      <point x="68" y="715"/>
      <point x="63" y="715" type="curve" smooth="yes"/>
      <point x="48" y="715"/>
      <point x="20" y="710"/>
      <point x="18" y="703" type="curve"/>
      <point x="31" y="630"/>
      <point x="22" y="552"/>
    </contour>
    <contour>
      <point x="135" y="523" type="move" name="_top"/>
    </contour>
    <contour>
      <point x="128" y="751" type="move" name="top"/>
    </contour>
  </outline>
</glyph>
<glyph name="sukun-ar" format="1">
  <advance width="231"/>
  <unicode hex="0652"/>
  <outline>
    <contour>
      <point x="116" y="561" type="curve" smooth="yes"/>
      <point x="169" y="561"/>
      <point x="213" y="603"/>
      <point x="213" y="657" type="curve" smooth="yes"/>
      <point x="213" y="711"/>
      <point x="169" y="753"/>
      <point x="116" y="753" type="curve" smooth="yes"/>
      <point x="62" y="753"/>
      <point x="18" y="711"/>
      <point x="18" y="657" type="curve" smooth="yes"/>
      <point x="18" y="600"/>
      <point x="64" y="561"/>
    </contour>
    <contour>
      <point x="116" y="615" type="curve" smooth="yes"/>
      <point x="92" y="615"/>
      <point x="74" y="633"/>
      <point x="74" y="657" type="curve" smooth="yes"/>
      <point x="74" y="681"/>
      <point x="92" y="700"/>
      <point x="116" y="700" type="curve" smooth="yes"/>
      <point x="139" y="700"/>
      <point x="159" y="681"/>
      <point x="159" y="657" type="curve" smooth="yes"/>
      <point x="159" y="633"/>
      <point x="139" y="615"/>
    </contour>
    <contour>
      <point x="117" y="530" type="move" name="_top"/>
    </contour>
    <contour>
      <point x="116" y="769" type="move" name="top"/>
    </contour>
  </outline>
</glyph>
<glyph name="madda-ar" format="2">
  <unicode hex="0653"/>
  <anchor x="172" y="545" name="_top"/>
  <anchor x="154" y="730" name="top"/>
  <outline>
    <contour>
      <point x="90" y="564" type="curve" smooth="yes"/>
      <point x="106" y="564"/>
      <point x="122" y="566"/>
      <point x="143" y="576" type="curve"/>
      <point x="148" y="578"/>
      <point x="151" y="588"/>
      <point x="151" y="606" type="curve" smooth="yes"/>
      <point x="151" y="616"/>
      <point x="150" y="624"/>
      <point x="149" y="630" type="curve"/>
      <point x="130" y="622"/>
      <point x="116" y="619"/>
      <point x="105" y="619" type="curve" smooth="yes"/>
      <point x="86" y="619"/>
      <point x="77" y="628"/>
      <point x="77" y="637" type="curve" smooth="yes"/>
      <point x="77" y="645"/>
      <point x="85" y="653"/>
      <point x="101" y="653" type="curve" smooth="yes"/>
      <point x="166" y="653"/>
      <point x="222" y="599"/>
      <point x="286" y="599" type="curve" smooth="yes"/>
      <point x="317" y="599"/>
      <point x="331" y="626"/>
      <point x="331" y="652" type="curve" smooth="yes"/>
      <point x="331" y="677"/>
      <point x="319" y="700"/>
      <point x="294" y="700" type="curve" smooth="yes"/>
      <point x="279" y="700"/>
      <point x="261" y="687"/>
      <point x="257" y="662" type="curve"/>
      <point x="199" y="675"/>
      <point x="161" y="710"/>
      <point x="100" y="710" type="curve" smooth="yes"/>
      <point x="39" y="710"/>
      <point x="10" y="674"/>
      <point x="10" y="634" type="curve" smooth="yes"/>
      <point x="10" y="596"/>
      <point x="35" y="564"/>
    </contour>
  </outline>
</glyph>
<glyph name="hamzabelow-ar" format="1">
  <advance width="228"/>
  <unicode hex="0655"/>
  <outline>
    <component base="hamzaabove-ar" yOffset="-766"/>
    <contour>
      <point x="111" y="-37" type="move" name="_bottom"/>
    </contour>
    <contour>
      <point x="118" y="-254" type="move" name="bottom"/>
    </contour>
  </outline>
</glyph>
